<svg version="1" xmlns="http://www.w3.org/2000/svg" width="110" height="110" viewBox="0 0 110 110"><circle cx="55" cy="55" r="55" fill="#32bea6"/><path d="M63 23c-2.37 0-4.66.34-6.82.99C46.25 26.93 39 36.12 39 47c0 .25 0 .5.02.75a23.847 23.847 0 0 0 3.962 12.476l-19.714 21.01a1 1 0 0 0 .052 1.413l4.396 4.084a1 1 0 0 0 1.413-.052l19.328-20.598A23.876 23.876 0 0 0 63 71c13.25 0 24-10.75 24-24S76.25 23 63 23z" fill="#f0f1f1"/><path d="M42.981 60.226l-19.714 21.01a1 1 0 0 0 .052 1.413l1.732 1.609 20.641-20.641a24.11 24.11 0 0 1-2.711-3.391z" fill="#fff"/><path d="M87 47c0 13.25-10.75 24-24 24-13 0-23.59-10.34-23.98-23.25-.02-.25-.02-.5-.02-.75 0-10.88 7.25-20.07 17.18-23.01 2.16-.65 4.45-.99 6.82-.99 13.25 0 24 10.75 24 24z" fill="#df2c2c"/><path d="M63 23c-2.37 0-4.66.34-6.82.99C46.25 26.93 39 36.12 39 47c0 .25 0 .5.02.75a23.894 23.894 0 0 0 6.672 15.866l33.922-33.923C75.301 25.552 69.449 23 63 23z" fill="#fa5655"/><path d="M82.51 45.89c0 5.58-2.18 10.83-6.13 14.78a17.562 17.562 0 0 1-12.52 5.19c-4.72 0-9.17-1.84-12.51-5.19a14.946 14.946 0 0 1-4.42-10.65c0-4.03 1.57-7.81 4.42-10.66a12.82 12.82 0 0 1 9.13-3.78c3.44 0 6.69 1.34 9.13 3.78 2.342 2.351 4.892 9.253-1.486 14.879a3.052 3.052 0 0 1-3.974.057 2.013 2.013 0 0 1 .091-3.161c3.371-2.5 1.998-9.555-3.761-9.555-1.85 0-3.58.72-4.89 2.02a9.024 9.024 0 0 0-2.66 6.42c0 2.42.95 4.7 2.66 6.41 2.21 2.21 5.15 3.43 8.27 3.43 3.13 0 6.07-1.22 8.28-3.43 2.81-2.82 4.37-6.56 4.37-10.54 0-3.98-1.56-7.73-4.37-10.54-7.34-7.34-19.27-7.34-26.6 0-3.43 3.43-5.68 7.73-6.52 12.4-.02-.25-.02-.5-.02-.75 0-10.88 7.25-20.07 17.18-23.01 7.21-.77 14.69 1.6 20.2 7.11 3.95 3.95 6.13 9.2 6.13 14.79z" fill="#facb1b"/><path d="M52.93 50.02c0-2.43.95-4.71 2.66-6.42a6.892 6.892 0 0 1 4.89-2.02c2.278 0 3.858 1.11 4.742 2.6l4.592-4.592c-.068-.075-.136-.16-.203-.228a12.838 12.838 0 0 0-9.13-3.78c-3.45 0-6.69 1.34-9.13 3.78a14.97 14.97 0 0 0-4.42 10.66c0 3.396 1.131 6.621 3.197 9.254l4.288-4.288a9 9 0 0 1-1.486-4.966z" fill="#fbe158"/><path d="M76.38 31.1c-5.51-5.51-12.99-7.88-20.2-7.11C46.25 26.93 39 36.12 39 47c0 .25 0 .5.02.75.84-4.67 3.09-8.97 6.52-12.4 7.33-7.34 19.26-7.34 26.6 0 .321.321.621.658.909 1.002l4.245-4.245c-.299-.339-.591-.684-.914-1.007z" fill="#fbe158"/></svg>