<svg version="1" xmlns="http://www.w3.org/2000/svg" width="110" height="110" viewBox="0 0 110 110"><circle cx="55" cy="55" r="55" fill="#fabc3d"/><path d="M22.926 87.052h64c-6.984-12.223-48.308-24.41-64 0z" fill="#f8e1c2"/><path d="M54.926 42.052a43.076 43.076 0 0 0-2.846-.02 37.21 37.21 0 0 0-4.534 4.97c-7.69 10.05-11.013 23.586-12.139 29.308 4.828-2.209 10.196-3.229 15.617-3.34.263-8.215 1.145-17.889 3.542-24.659.727-2.11 1.467-3.617 2.129-4.7a18.265 18.265 0 0 0-1.769-1.559z" fill="#84462d"/><path d="M54.926 42.052c-8.058-.329-14.565 1.567-20 5 1.11-4.971 4.296-8.725 10-11-6.119-1.922-12.117-.526-18 4 6.402-11.443 15.209-13.565 26-8-.699-3.264-4.013-5.85-9-8 7.873-.394 13.412 1.427 15 7 3.851-3.019 7.878-2.481 12 0-3.129-.024-5.889 1.033-8 4 8.103 1.754 11.203 7.872 12 16-3.802-4.298-7.723-7.61-12-8 1.888 4.164 1.446 8.125 0 12-1.483-5.282-3.863-9.845-8-13z" fill="#0c7367"/><path d="M38.306 65.331c-.09.27-.175.534-.26.8 4.197.405 11.18 1.657 13.19 2.041.04-.67.09-1.32.13-1.96-1.918-.312-8.988-1.348-13.06-.881zM40.862 58.636c-.096.22-.189.439-.282.658 3.244.656 8.554 2.059 11.167 2.927.06-.65.14-1.28.22-1.89-2.678-.748-7.944-1.831-11.105-1.695zM43.733 52.841c-.092.164-.187.328-.278.493 2.612.628 6.696 1.817 9.16 2.728.11-.61.22-1.2.34-1.76-2.385-.725-6.267-1.518-9.222-1.461zM47.546 47.002c-.149.195-.292.396-.438.594 2.225.588 5.286 1.409 6.968 2.236.16-.54.32-1.04.49-1.521-1.745-.658-4.7-1.215-6.957-1.389l-.063.08z" fill="#9c6144"/><path d="M22.926 87.052H42.09l13.938-13.938c-12.538-.956-25.684 2.398-33.102 13.938z" fill="#fcf1e2"/></svg>