<svg xmlns="http://www.w3.org/2000/svg" viewBox="0 0 110 110"><circle fill="#32BEA6" cx="55" cy="55" r="55"/><path fill="#FFF" d="M79 27c0-2.2-1.8-4-4-4H35c-2.2 0-4 1.8-4 4v56c0 2.2 1.8 4 4 4h40c2.2 0 4-1.8 4-4V27z"/><path fill="#3E3E3F" d="M35 29h40v48H35z"/><circle fill="#CFD3D4" cx="55" cy="82" r="2"/><circle fill="#B6BCBD" cx="59.7" cy="58.3" r="1.3"/><path fill="#B6BCBD" d="M64 58h5v1h-5z"/><circle fill="#B6BCBD" cx="59.7" cy="64.7" r="1.3"/><path fill="#B6BCBD" d="M64 64.3h5v1h-5z"/><circle fill="#3E3E3F" cx="55" cy="26" r="1"/><path fill="#5B5C5F" d="M35 67l38-38H35z"/><path fill="#FBE158" d="M42 44h6v7h-6z"/><path fill="#12B2A0" d="M52 40h6v11h-6z"/><g><path fill="#059BBF" d="M63 35h6v16h-6z"/></g><g><circle fill="#FACB1B" cx="47" cy="63" r="8"/><path fill="#47C4B7" d="M55 63c0 4.4-3.6 8-8 8-3.4 0-6.2-2.1-7.4-5l14.8-6.2c.4 1 .6 2.1.6 3.2z"/><path fill="#21B2D1" d="M55 63c0 2.8-1.5 5.3-3.7 6.7L47 62.9l7.4-3.1c.4 1 .6 2.1.6 3.2z"/><path fill="#FA5655" d="M54.4 59.8L47 62.9V55c3.3 0 6.1 2 7.4 4.8z"/></g></svg>