<svg version="1" xmlns="http://www.w3.org/2000/svg" width="110" height="110" viewBox="0 0 110 110"><circle cx="55" cy="55" r="55" fill="#32bea6"/><path d="M55 70l-7-1-16.241 3.872a8 8 0 0 0-5.168 4.791L23 87h32V70zM55 70l7-1 16.241 3.872a8 8 0 0 1 5.168 4.791L87 87H55V70z" fill="#0484ab"/><path d="M55 68.371c-3.284-1.094-7.159-3.171-10-7.568v13.586c0 1.725.329 3.434.97 5.035L49 87h12l3.03-7.576c.641-1.601.97-3.31.97-5.035V60.803c-2.841 4.397-6.716 6.474-10 7.568z" fill="#f4d0a1"/><path d="M45 60.803v13.586c0 1.725.329 3.434.97 5.035L49 87h6V68.371c-3.284-1.094-7.159-3.171-10-7.568z" fill="#f8e1c2"/><path d="M54.977 83c-2.887 0-5.605-.387-8.023-1.058L48.977 87h12L63 81.942C60.582 82.613 57.863 83 54.977 83z" fill="#fff"/><path d="M43 87h6l-3.03-7.576a13.546 13.546 0 0 1-.97-5.035V67c-2 2-4 4-6 7l4 2-5 5 5 6zM67 87h-6l3.03-7.576c.641-1.601.97-3.31.97-5.035V67c2 2 4 4 6 7l-4 2 5 5-5 6z" fill="#21b2d1"/><path d="M42 85c0 .55-.45 1-1 1H30c-.55 0-1-.45-1-1v-7c0-.55.45-1 1-1h11c.55 0 1 .45 1 1v7z" fill="#fff"/><path fill="#9ce5f4" d="M30 80h4v5h-4zM41 77h-4v-.5c0-.825-.675-1.5-1.5-1.5s-1.5.675-1.5 1.5v.5h-4c-.55 0-1 .45-1 1v1h13v-1c0-.55-.45-1-1-1z"/><path d="M70 44.371h-1v-.021c-.018-9.008-1.024-16.979-14-16.979S41.018 35.342 41 44.35v.021h-1c-1 0-2 1.111-2 2.222 0 3.091.864 7.13 4.178 7.703C44.62 63.398 50.396 66.837 55 68.371c4.604-1.534 10.38-4.973 12.822-14.075C71.136 53.724 72 49.684 72 46.593c0-1.111-1-2.222-2-2.222z" fill="#f8e1c2"/><path d="M41 44.35v.021h-1c-1 0-2 1.111-2 2.222 0 3.091.864 7.13 4.178 7.703C44.62 63.398 50.396 66.837 55 68.371v-41c-12.976 0-13.982 7.971-14 16.979z" fill="#fcf1e2"/><path d="M48.964 45.866c1.43 0 2.627.277 2.959 1.134.004-1-1.003-2.446-2.959-2.446-1.953 0-3.053 1.446-2.959 2.446.332-.856 1.529-1.134 2.959-1.134zM60.887 45.866c1.43 0 2.627.277 2.959 1.134.004-1-1.003-2.446-2.959-2.446-1.953 0-3.053 1.446-2.959 2.446.332-.856 1.529-1.134 2.959-1.134z" fill="#3e3e3f"/><g><path d="M65 61c11 5 8.074 17.046 14 26-13-6-14-12-14-20v-6z" fill="#3e3e3f"/></g><path d="M50.084 27.346c-.274-.176-.626-.304-1.084-.346-11-1-11.931 13.548-8.006 17.606 1.79-.541 8.368-5.803 9.735-11.803C54.228 39.733 69.254 45.09 69 45c10.845-18.698-17.177-25.574-18.916-17.654z" fill="#3e3e3f"/><g><path d="M50 57.371h10s0 3-5 3-5-3-5-3z" fill="#f79392"/></g></svg>