<svg version="1" xmlns="http://www.w3.org/2000/svg" width="110" height="110" viewBox="0 0 110 110"><circle cx="55" cy="55" r="55" fill="#25b7d3"/><path d="M64 67s2.154-6.949 5-6c2.871.957 2.384 8.327-.586 14.218a4 4 0 0 1-1.368 1.538C62.403 79.815 53.195 79 45 79c-8 0-13.058-16.007 19-12z" fill="#6fdaf1"/><path d="M44.69 78.981l12.555-12.555C33.114 65.398 37.488 78.605 44.69 78.981z" fill="#9ce5f4"/><path d="M78.313 39c-.184-.128-22.683-15.795-22.886-15.893l-.002-.001a.996.996 0 0 0-.936.033L27.726 39h3.923l19.634-11.635L42.719 39h2.473L55 25.586 64.808 39h2.473l-7.902-10.736L74.812 39h3.501z" fill="#f0f1f1"/><path d="M87 43a2 2 0 0 1-2 2H25a2 2 0 0 1-2-2v-2a2 2 0 0 1 2-2h60a2 2 0 0 1 2 2v2z" fill="#df2c2c"/><path d="M35 51v-6h-2v6.437A4.932 4.932 0 0 1 35 51z" fill="#f0f1f1"/><path d="M27 62.95V63h14.944c2.097-2.05.894-5.631-2.056-5.961C40.552 53.908 38.163 51 35 51a4.995 4.995 0 0 0-4.861 3.87C27.171 52.707 23 54.823 23 58.5c0 2.314 1.753 4.198 4 4.45zM77 51.683V45h-2v8h.105A6.992 6.992 0 0 1 77 51.683z" fill="#f0f1f1"/><path d="M83 63a5 5 0 0 1 0-10c.923 0 1.776.267 2.518.703A6.982 6.982 0 0 0 80 51a7 7 0 1 0 0 14 6.982 6.982 0 0 0 5.518-2.703A4.948 4.948 0 0 1 83 63z" fill="#fbe158"/><path d="M56 66.374V45h-2v21.366a53.75 53.75 0 0 1 2 .008z" fill="#f0f1f1"/><path d="M49.386 78.374a.999.999 0 0 1 .716-1.699h7.129c.3 0 .586.135.776.368.915 1.123 2.457 2.947 2.901 4.355a1.998 1.998 0 0 1-2.069 2.595c-3.565-.288-6.927-3.034-9.453-5.619z" fill="#9ce5f4"/><circle cx="46" cy="73" r="2" fill="#21b2d1"/><circle cx="54" cy="73" r="2" fill="#21b2d1"/><circle cx="62" cy="73" r="2" fill="#21b2d1"/><path d="M73 58c0 1.424.428 2.748 1.159 3.854l3.842-3.842L78 58a5 5 0 0 1 5-5l.011.001.839-.839A6.94 6.94 0 0 0 80 51a7 7 0 0 0-7 7z" fill="#fbec9a"/><path d="M30.139 54.87C27.17 52.707 23 54.823 23 58.5c0 1.859 1.14 3.424 2.749 4.104l11.202-11.202A4.963 4.963 0 0 0 35 51a4.995 4.995 0 0 0-4.861 3.87z" fill="#fff"/><path d="M55 39H25a2 2 0 0 0-2 2v2a2 2 0 0 0 2 2h30v-6z" fill="#fa5655"/></svg>