<svg version="1" xmlns="http://www.w3.org/2000/svg" width="110" height="110" viewBox="0 0 110 110"><circle cx="55" cy="55" r="55" fill="#e04f5f"/><path fill="#fbe158" d="M27 27h32v56H27z"/><path fill="#f99134" d="M59 27h24v44H59z"/><path fill="#fff" d="M23 23h64l-4 4H27zM23 87h36v-4H27z"/><path fill="#cfd3d4" d="M59 71h24v16H59z"/><path d="M79 71H63V58a8 8 0 0 1 16 0v13z" fill="#fff"/><path d="M66 58a5 5 0 0 1 10 0H66z" fill="#40c9e7"/><path fill="#e2e4e5" d="M66 60h10v11H66z"/><path fill="#f0f1f1" d="M59 83h24v2H59zM59 79h24v2H59zM59 75h24v2H59zM59 71h24v2H59z"/><path d="M71 43c-2.757 0-5-2.243-5-5s2.243-5 5-5 5 2.243 5 5-2.243 5-5 5z" fill="#40c9e7"/><path d="M71 33c2.757 0 5 2.243 5 5s-2.243 5-5 5-5-2.243-5-5 2.243-5 5-5m0-2a7 7 0 1 0 0 14 7 7 0 0 0 0-14z" fill="#fff"/><path d="M41 78H31V63a5 5 0 0 1 10 0v15z" fill="#40c9e7"/><path fill="#40c9e7" d="M31 71h10v7H31zM55 78H45V63a5 5 0 0 1 10 0v15z"/><path fill="#40c9e7" d="M45 71h10v7H45zM55 51H45V36a5 5 0 0 1 10 0v15z"/><path fill="#40c9e7" d="M45 44h10v7H45z"/><path d="M55 37.35V36a5 5 0 0 0-10 0v11.35l10-10z" fill="#6fdaf1"/><path fill="#6fdaf1" d="M48.35 44H45v3.35zM41 64.35V63a5 5 0 0 0-10 0v11.35l10-10z"/><path fill="#6fdaf1" d="M34.35 71H31v3.35zM55 64.35V63a5 5 0 0 0-10 0v11.35l10-10z"/><path fill="#6fdaf1" d="M48.35 71H45v3.35z"/><path fill="#fff" d="M45 42h10v2H45zM31 69h10v2H31zM45 69h10v2H45zM23 51h36v4H27z"/><path d="M41 51H31V36a5 5 0 0 1 10 0v15z" fill="#40c9e7"/><path fill="#40c9e7" d="M31 44h10v7H31z"/><path d="M41 37.35V36a5 5 0 0 0-10 0v11.35l10-10z" fill="#6fdaf1"/><path fill="#fff" d="M31 42h10v2H31zM83 87h4V65a2 2 0 1 0-4 0v22z"/></svg>