<svg xmlns="http://www.w3.org/2000/svg" width="110" height="110" viewBox="0 0 110 110"><circle fill="#00C853" cx="55" cy="55" r="55"/><path fill="#FFF" d="M73.5 23C66.044 23 60 28.289 60 34.813c0 4.874 3.376 9.058 8.192 10.862L66.75 50l6.124-3.403c.209.009.415.028.626.028 7.456 0 13.5-5.288 13.5-11.813C87 28.289 80.956 23 73.5 23z"/><path fill="#F8E1C2" d="M45.94 87H42.5l-3.28-5.74a19.9 19.9 0 0 0 3.271-.29L45.94 87zM51.681 87h-3.44l-3.72-6.51c.989-.3 1.92-.681 2.799-1.12L51.681 87z"/><path fill="#FDD835" d="M62 45.706l-7.362 1.84c1.105 1.803 1.922 3.881 2.439 6.105L62 54.883l-3.441-4.589L62 45.706z"/><path fill="#1565C0" d="M39.06 81.26c-9.18 0-13.77-3.439-16.06-8.02 14.91 4.58 6.88-6.89 6.88-17.21 0-8.03 4.59-14.91 13.77-14.91 19.494 0 19.509 40.14-4.59 40.14z"/><path fill="#1E88E5" d="M43.647 41.118c-9.177 0-13.766 6.882-13.766 14.911 0 10.323 8.029 21.794-6.882 17.206 1.235 2.471 3.146 4.603 6.07 6.05l27.49-27.491c-1.955-6.08-6.316-10.676-12.912-10.676z"/><circle fill="#FFF" cx="45.941" cy="50.294" r="2.294"/><circle fill="#5B5C5F" cx="73.5" cy="34.813" r="1.688"/><circle fill="#5B5C5F" cx="66.75" cy="34.813" r="1.688"/><circle fill="#5B5C5F" cx="80.25" cy="34.813" r="1.688"/></svg>