<svg version="1" xmlns="http://www.w3.org/2000/svg" width="110" height="110" viewBox="0 0 110 110"><circle cx="55" cy="55" r="55" fill="#fabc3d"/><path d="M79 71c0 1.38-.26 2.72-.76 4C75.58 81.9 66.18 87 55 87s-20.58-5.1-23.24-12c-.5-1.28-.76-2.62-.76-4h48z" fill="#f0f1f1"/><path d="M31 71c0 1.38.26 2.72.76 4C34.42 81.9 43.82 87 55 87V71H31z" fill="#fff"/><path d="M85.209 38.804c3.994-5.28-6.898-14.919-19.094-10.28C61.568 25.19 57.555 23 52.054 23c-7.869 0-14.616 4.799-17.479 11.629-1.924-.251-4.346 1.462-4.346 4.109l.001.016c-3.95-.185-7.23 1.732-7.23 4.115 0 3.96 8.213 5.639 12.077 2.476C37.196 46.369 40.022 47 43.138 47c5.646 0 10.362-2.057 11.568-4.812C56.413 44.99 60.985 47 66.374 47c2.879 0 6.138-.628 8.648-2.056 5.861 5.09 13.962.064 10.187-6.14zM76.804 56.143C73.739 55.52 71 57.091 71 59c0 1.93 2.771 3.474 5.804 2.857C80.584 64.325 87 62.535 87 59s-6.417-5.324-10.196-2.857z" fill="#099686"/><path d="M71.041 59.392L63 61c3.392-2.261 6.544-4.522 8.237-6.784a2 2 0 0 0 .084-2.277l-1.987-3.105a2.002 2.002 0 0 1 .068-1.637l.241-.482c-1.046.17-2.13.285-3.269.285-1.704 0-3.325-.202-4.8-.565.488 1.125 1.88 2.96 1.426 3.565-.531.708-7.881-.458-11.286-4.922-.953.521-2.076.956-3.326 1.278C50.271 51.201 57.168 52.385 59 53c2.018.678-2.075 3.163-7.124 6.748a2.004 2.004 0 0 1-2.072.15 14.079 14.079 0 0 1-1.997-1.22c-.719.642-1.689 1.217-2.83 1.668.708.801 1.668 1.702 2.676 2.553C44.598 65.332 41.696 68.08 40 71h20c0-6.416 8.998-8.971 12.564-9.732-.814-.471-1.376-1.132-1.523-1.876z" fill="#84462d"/><path d="M49.145 55.805c-.367-2.04-3.637-3.184-7.474-2.698-4.403-2.24-11.655-.882-12.573 2.276C26.668 55.962 25 57.139 25 58.5c0 1.933 3.358 3.5 7.5 3.5 1.939 0 3.7-.346 5.031-.91 1.375.296 3.042.323 4.797.007 4.156-.748 7.209-3.118 6.817-5.292z" fill="#099686"/><path d="M79 71c0 1.38-.26 2.72-.76 4H31.76c-.5-1.28-.76-2.62-.76-4h48z" fill="#e2e4e5"/><path d="M66.115 28.523C61.568 25.189 57.555 23 52.054 23c-7.869 0-14.616 4.799-17.479 11.629-1.924-.251-4.346 1.461-4.346 4.109l.001.016c-3.95-.185-7.23 1.732-7.23 4.115 0 3.959 8.213 5.639 12.077 2.476a14.17 14.17 0 0 0 1.708.688l31.448-18.157a17.55 17.55 0 0 0-2.118.647z" fill="#12b2a0"/><path d="M55 71H31c0 1.38.26 2.72.76 4H55v-4z" fill="#f0f1f1"/></svg>