<svg version="1" xmlns="http://www.w3.org/2000/svg" width="110" height="110" viewBox="0 0 110 110"><circle cx="55" cy="55" r="55" fill="#25b7d3"/><circle cx="55" cy="55" r="32" fill="#df2c2c"/><circle cx="55" cy="55" r="26" fill="#e2e4e5"/><circle cx="55" cy="55" r="20" fill="#df2c2c"/><circle cx="55" cy="55" r="14" fill="#0484ab"/><path fill="#e2e4e5" d="M55 40.742L59 51h9l-7.837 5.655 3.191 9.832L55 60.423l-8.354 6.072 3.191-9.842L41.92 51H51z"/><path d="M29 55c0-14.359 11.641-26 26-26v-6c-17.673 0-32 14.327-32 32s14.327 32 32 32v-6c-14.359 0-26-11.641-26-26z" fill="#fa5655"/><path d="M29 55c0 14.359 11.641 26 26 26v-6c-11.046 0-20-8.954-20-20s8.954-20 20-20v-6c-14.359 0-26 11.641-26 26z" fill="#fff"/><path d="M46.836 66.357l-.19.138.073-.225C43.257 63.721 41 59.629 41 55c0-7.697 6.213-13.939 13.897-13.995l.103-.263V35c-11.046 0-20 8.954-20 20s8.954 20 20 20v-6c-3.05 0-5.864-.987-8.164-2.643z" fill="#fa5655"/><path d="M41.92 51H51l3.897-9.995C47.213 41.061 41 47.303 41 55c0 4.629 2.257 8.721 5.719 11.27l3.118-9.617L41.92 51zM46.836 66.357A13.922 13.922 0 0 0 55 69v-8.577l-8.164 5.934z" fill="#059bbf"/><path d="M55 41c-.035 0-.068.005-.103.005L51 51h-9.08l7.917 5.653-3.118 9.617c.039.029.077.059.117.087L55 60.423V41z" fill="#fff"/></svg>