<svg xmlns="http://www.w3.org/2000/svg" viewBox="0 0 110 110"><circle fill="#FABC3D" cx="55" cy="55" r="55"/><path fill="#3E3E3F" d="M77 75l-2 2H35l-2-2V35l2-2h40l2 2z"/><path fill="#FFF" d="M41 33h-4v-4c0-1.1.9-2 2-2s2 .9 2 2v4zM49 33h-4v-4c0-1.1.9-2 2-2s2 .9 2 2v4zM57 33h-4v-4c0-1.1.9-2 2-2s2 .9 2 2v4zM65 33h-4v-4c0-1.1.9-2 2-2s2 .9 2 2v4zM73 33h-4v-4c0-1.1.9-2 2-2s2 .9 2 2v4z"/><path fill="#F0F1F1" d="M41 81c0 1.1-.9 2-2 2s-2-.9-2-2v-4h4v4z"/><path fill="#FFF" d="M33 73h-4c-1.1 0-2-.9-2-2s.9-2 2-2h4v4zM33 65h-4c-1.1 0-2-.9-2-2s.9-2 2-2h4v4zM33 57h-4c-1.1 0-2-.9-2-2s.9-2 2-2h4v4zM33 49h-4c-1.1 0-2-.9-2-2s.9-2 2-2h4v4zM33 41h-4c-1.1 0-2-.9-2-2s.9-2 2-2h4v4z"/><path fill="#F0F1F1" d="M83 71c0 1.1-.9 2-2 2h-4v-4h4c1.1 0 2 .9 2 2zM83 63c0 1.1-.9 2-2 2h-4v-4h4c1.1 0 2 .9 2 2zM83 55c0 1.1-.9 2-2 2h-4v-4h4c1.1 0 2 .9 2 2zM83 47c0 1.1-.9 2-2 2h-4v-4h4c1.1 0 2 .9 2 2zM83 39c0 1.1-.9 2-2 2h-4v-4h4c1.1 0 2 .9 2 2zM49 81c0 1.1-.9 2-2 2s-2-.9-2-2v-4h4v4zM57 81c0 1.1-.9 2-2 2s-2-.9-2-2v-4h4v4zM65 81c0 1.1-.9 2-2 2s-2-.9-2-2v-4h4v4zM73 81c0 1.1-.9 2-2 2s-2-.9-2-2v-4h4v4z"/><path fill="#5B5C5F" d="M38 38h34v34H38z"/><path fill="#818284" d="M38 38h34L38 72z"/><path fill="#B6BCBD" d="M41.2 42.8h.6l.5 1.1.5-1.1h.6V45h-.6v-1l-.3.8H42l-.3-.8v1h-.6v-2.2zM44.1 44.3c0 .4.6.4.6 0v-1.5h.6v1.5c0 1-1.8 1-1.8 0v-1.5h.6v1.5zM45.6 42.8h.6v1.7h.9v.5h-1.5v-2.2zM48 43.3V45h-.6v-1.7h-.6v-.5h1.7v.5H48zM49.4 45h-.6v-2.2h.6V45zM51.3 44.5c-.2.4-.5.5-.8.5-.4 0-.9-.3-.9-.8v-.8c0-.5.4-.8.9-.8.3 0 .6.1.8.5l-.5.2c-.1-.3-.6-.2-.6.1v.8c0 .3.5.3.6 0l.5.3zM51.5 43.5c0-.5.5-.8.9-.8s.9.3.9.8v.8c0 .5-.5.8-.9.8-.5 0-.9-.3-.9-.8v-.8zm.5.8c0 .2.2.2.4.2s.4-.1.4-.2v-.8c0-.2-.2-.2-.4-.2s-.3.1-.3.2v.8zM54.3 44.3l-.1.7h-.6v-2.2h.9c.5 0 .8.2.8.7 0 .4-.2.6-.4.7l.6.8h-.7l-.5-.7zm.2-.5c.4 0 .4-.5 0-.5h-.3v.5h.3zM56.2 43.7h.9v.5h-.9v.3h1v.5h-1.5v-2.2h1.5v.5h-1v.4zM59.6 44.5c-.2.4-.5.5-.8.5-.4 0-.9-.3-.9-.8v-.8c0-.5.4-.8.9-.8.3 0 .6.1.8.5l-.5.2c-.1-.3-.6-.2-.6.1v.8c0 .3.5.3.6 0l.5.3zM59.8 42.8h.9c.5 0 .8.4.8.8s-.3.8-.8.8h-.3v.6h-.6v-2.2zm.9 1.1c.3 0 .3-.5 0-.5h-.3v.5h.3zM62.3 44.3c0 .4.6.4.6 0v-1.5h.6v1.5c0 1-1.8 1-1.8 0v-1.5h.6v1.5zM41.5 48c.2.3.6.2.6-.1 0-.2-.1-.3-.3-.3-.1 0-.3 0-.4.2h-.3v-1.3h1.3v.5h-.9v.2c.5-.2 1 .1 1 .7 0 .4-.3.8-.8.8-.2 0-.5-.1-.7-.4l.5-.3zM43.1 48.1c.2 0 .3.1.3.3 0 .2-.1.3-.3.3s-.3-.1-.3-.3c0-.1.1-.3.3-.3zM44 48c.2.3.6.2.6-.1 0-.2-.1-.3-.3-.3-.1 0-.3 0-.4.2h-.3v-1.3h1.3v.5H44v.2c.5-.2 1 .1 1 .7 0 .4-.3.8-.8.8-.2 0-.5-.1-.7-.4l.5-.3zM47 47.2c-.1-.3-.6-.2-.6.1v.7c0 .3.6.3.6 0v-.1h-.4v-.5h.9v.6c0 .5-.4.8-.9.8-.4 0-.9-.3-.9-.8v-.8c0-.5.4-.7.9-.7.3 0 .6.1.8.5l-.4.2zM48.4 48.7h-.6v-2.2h.6v.8h.6v-.8h.6v2.2H49v-.8h-.6v.8zM51.5 46.5l.1.2-.9 1.5h.9v.5H50l-.1-.2 1-1.5H50v-.5h1.5z"/></svg>