<svg version="1" xmlns="http://www.w3.org/2000/svg" width="110" height="110" viewBox="0 0 110 110"><circle cx="55" cy="55" r="55" fill="#32BEA6"/><path fill="#F1F2F2" d="M55 87L43 67.997h24"/><path d="M57.655 68h-5.31c-.856 0-1.67-.365-2.24-1.004L45 63v4.497s0 7.5 10 7.5 10-7.5 10-7.5V63l-5.105 3.996c-.57.64-1.384 1.004-2.24 1.004z" fill="#F7B4B4"/><path d="M50.105 66.996L45 63v4.497s0 7.5 10 7.5V68h-2.655c-.856 0-1.67-.365-2.24-1.004z" fill="#FBC8C8"/><path fill="#FFF" d="M43 67.997l2-1 9.985 4.98L49 77.998M67 67.997l-2-1-9.985 4.98L61 77.998"/><path fill="#DF2C2C" d="M59 87l-2.8-10.2 1.8-1.798-3.02-3.024-2.997 2.998 1.818 1.817L51 87"/><path fill="#FA5655" d="M55 87V71.997l-.02-.02-2.997 3 1.818 1.816L51 87"/><path d="M23 87l4-11c.615-1.333 1.698-2.394 3.043-2.983L43 68l12 19H23zM87 87l-4-11c-.615-1.333-1.698-2.394-3.043-2.983L67 68 55 87h32z" fill="#FFF"/><path d="M70 45c-1 0-1 1.11-1 1.11V46h-1v-7.902C65.643 40.306 61.912 42 56 42c-9.2 0-13.313-5.068-13.913-5.88-.03.076-.06.15-.087.228V46h-1v6.997l4 10 5.105 3.996c.57.64 1.384 1.004 2.24 1.004h5.31c.856 0 1.67-.365 2.24-1.004L65 62.997l3.207-8.017C71.042 54.776 72 50.476 72 47.222 72 46.112 71 45 70 45z" fill="#FBC8C8"/><path d="M42 36c-.03.076.028.274 0 .35v9.653h-1l-.065-.277c-.095-.32-.332-.723-.935-.723-1 0-2 1.11-2 2.222 0 3.253.958 7.554 3.793 7.758L45 63l5.105 3.996c.57.64 1.384 1.004 2.24 1.004H55V41.966C46.51 41.61 42.577 36.78 42 36z" fill="#FBD7D7"/><path fill="#F3B607" d="M33 87h22L43 68l-10 3.872M77 87H55l12-19 10 3.872"/><path fill="#FACB1B" d="M37 70.323V87h3V69.162M47 74.333l-3-4.75V87h3M73 70.323V87h-3V69.162M63 74.333l3-4.75V87h-3"/><path d="M50 56.997h10s0 3-5 3-5-3-5-3z" fill="#F79392"/><path d="M69.426 36.49C72.32 32.573 72 28 72 28H48.134c-2.58 0-5.038 1.1-6.76 3.02-1.72 1.923-2.54 4.487-2.255 7.052L41 46h1V36s4 6 14 6c5.912 0 9.643-1.694 12-3.902V46h1l1.272-7.09c.175-.7.018-1.44-.426-2.01-.122-.156-.265-.29-.42-.41z" fill="#3E3E3F"/><g><path d="M61.934 43.467H48.067c-1.192 0-6.067.38-6.067 3.467S43.246 53 46.333 53c2.85 0 6.583-2.384 6.902-6.385.432-.338 1.054-.548 1.764-.548h.004c.71 0 1.332.212 1.76.55.32 4 4.053 6.384 6.903 6.384C66.754 53 68 50.02 68 46.935c0-3.088-4.875-3.467-6.066-3.467zm-8.72 2.14c-.125-.557-.483-.97-.96-1.274h5.49c-.472.303-.827.71-.956 1.263-.508-.253-1.118-.396-1.784-.396-.667.018-1.28.16-1.79.408z" fill="#3E3E3F"/><path d="M51.533 45.532c-1.008-.306-2.228-.332-2.764-.332-.99 0-5.037.273-5.037 2.498 0 1.387.402 2.744 1.327 3.57l6.473-5.736zM58.467 45.532c1.008-.306 2.228-.332 2.764-.332.99 0 5.037.273 5.037 2.498 0 1.387-.402 2.744-1.327 3.57l-6.473-5.736z" fill="#5B5C5F"/></g><g><path d="M75.556 58.894c-2.4-.48-17.65-3.528-18.238-.587-.588 2.942 15.003 6.06 17.553 6.568 1.355.27 2.716-.827 3.04-2.452.64-3.202-2.354-3.53-2.354-3.53z" fill="#692E19"/><ellipse transform="matrix(.981 .196 -.196 .981 13.633 -13.684)" cx="75.949" cy="62.032" rx="2" ry="3" fill="#FA5655"/></g></svg>