<svg version="1" xmlns="http://www.w3.org/2000/svg" width="110" height="110" viewBox="0 0 110 110"><circle cx="55" cy="55" r="55" fill="#fabc3d"/><path d="M69.633 23.765a2 2 0 0 1 2.808-.338l2.82 2.215a1 1 0 0 1-.499 1.779l-2.227.268a1.001 1.001 0 0 0-.874 1.112l.436 3.631a1 1 0 0 1-.874 1.112l-3.631.436a1.001 1.001 0 0 0-.874 1.112l.436 3.631a1 1 0 0 1-.874 1.112l-3.631.436a1.001 1.001 0 0 0-.874 1.112l.436 3.631a1 1 0 0 1-.874 1.112l-3.631.436a1.001 1.001 0 0 0-.874 1.112l.436 3.631a1 1 0 0 1-.874 1.112l-4.212.506a1.003 1.003 0 0 1-.737-.206l-2.82-2.215 21.008-26.737zM85.949 40.081a2 2 0 0 0 .338-2.808l-2.215-2.82a1 1 0 0 0-1.779.499l-.268 2.227a1.001 1.001 0 0 1-1.112.874l-3.631-.436a1 1 0 0 0-1.112.874l-.436 3.631a1.001 1.001 0 0 1-1.112.874l-3.631-.436a1 1 0 0 0-1.112.874l-.436 3.631a1.001 1.001 0 0 1-1.112.874l-3.631-.436a1 1 0 0 0-1.112.874l-.436 3.631a1.001 1.001 0 0 1-1.112.874l-3.631-.436a1 1 0 0 0-1.112.874l-.506 4.212c-.032.263.043.528.206.737l2.215 2.82 26.737-21.008z" fill="#f0f1f1"/><path d="M54.717 54.589l-3.949-6.957-21.742 12.34a4 4 0 1 0 3.949 6.957l21.742-12.34z" fill="#df2c2c"/><path d="M73 75c-6.175 0-10.967 2.789-14.816 5.029C55.444 81.624 53.079 83 51 83c-1.573 0-2.665-.235-3.361-.55a3.97 3.97 0 0 1-3.35-.258 3.98 3.98 0 0 1-1.55-1.604 4.8 4.8 0 0 0 .636 3.312C44.25 85.313 46.282 87 51 87c3.158 0 6.091-1.707 9.195-3.514C63.809 81.384 67.904 79 73 79c7.429 0 12.491 4.332 14 5.808v-5.2C84.017 77.464 79.24 75 73 75z" fill="#3e3e3f"/><path d="M55.125 54.996l6.957 3.949-12.34 21.742a4 4 0 1 1-6.957-3.949l12.34-21.742z" fill="#df2c2c"/><circle cx="54.551" cy="54.551" r="3.5" fill="#fff"/><path d="M54.551 60.551a5.959 5.959 0 0 1-4.242-1.757c-1.133-1.133-1.758-2.64-1.758-4.243s.624-3.109 1.758-4.243c1.133-1.133 2.64-1.757 4.242-1.757s3.109.624 4.243 1.758c1.133 1.133 1.757 2.64 1.757 4.242s-.624 3.109-1.758 4.243a5.96 5.96 0 0 1-4.242 1.757zm0-9.025a3.024 3.024 0 0 0-3.025 3.025c0 3.946 6.05 3.978 6.05 0a3.024 3.024 0 0 0-3.025-3.025z" fill="#3e3e3f"/><path d="M29.026 59.972a4 4 0 0 0-1.504 5.453 3.96 3.96 0 0 0 2.006 1.725l17.258-17.258-17.76 10.08z" fill="#fa5655"/></svg>