<svg xmlns="http://www.w3.org/2000/svg" viewBox="0 0 110 110"><circle fill="#E04F5F" cx="55" cy="55" r="55"/><path fill="#FBE158" d="M83 39L27 59v26c0 .7.3 1.3.8 1.6.5.4 1.2.5 1.8.2l53.3-19V39z"/><path fill="#FCF6C2" d="M83 39L27 59l28-36c12.2 0 23.3 7.4 28 16z"/><circle fill="#F3B607" cx="52" cy="70" r="1"/><circle fill="#F3B607" cx="78" cy="46" r="1"/><circle fill="#F3B607" cx="71" cy="55" r="4"/><circle fill="#F3B607" cx="40" cy="58" r="1"/><path fill="#F3B607" d="M44.6 78.8s-.1.1 0 0c-.8 1-.7 2-.2 2.7l3.6-1.3c-.1-1.5-1.8-2.5-3.4-1.4z"/><circle fill="#F3B607" cx="64" cy="65" r="2"/><circle fill="#F3B607" cx="37" cy="69" r="2"/><ellipse fill="#FACB1B" cx="58" cy="30.5" rx="3" ry="1.5"/><ellipse fill="#FACB1B" cx="51.5" cy="41.2" rx="2.5" ry="1.2"/><ellipse fill="#FACB1B" cx="66.5" cy="37" rx="4.5" ry="2"/><ellipse fill="#FACB1B" cx="42" cy="48" rx="2" ry="1"/></svg>