<svg version="1" xmlns="http://www.w3.org/2000/svg" width="110" height="110" viewBox="0 0 110 110"><circle cx="55" cy="55" r="55" fill="#25b7d3"/><path d="M70 47c-1 0-1 1.111-1 1.111v-1.108-.037C66.129 47.357 60.568 48 55 48c-1 0-2-.021-2.984-.057-4.5-.166-8.661-.656-11.016-.977V55l4 10 5.105 3.996A2.999 2.999 0 0 0 52.345 70h5.31c.856 0 1.671-.365 2.24-1.004L65 65l3.208-8.02C71.042 56.775 72 52.475 72 49.222 72 48.111 71 47 70 47z" fill="#fbc8c8"/><path d="M41 46.966v1.148s0-1.111-1-1.111-2 1.111-2 2.222c0 3.253.958 7.554 3.793 7.758L45 65l5.105 3.996A2.999 2.999 0 0 0 52.345 70H55V48c-1 0-2-.021-2.984-.057-4.5-.166-8.662-.656-11.016-.977z" fill="#fbd7d7"/><path d="M83 76a5.997 5.997 0 0 0-3.043-2.982L65 69v-4l-5.105 3.996A2.999 2.999 0 0 1 57.655 70h-5.31a2.999 2.999 0 0 1-2.24-1.004L45 65v4l-14.957 4.018A5.997 5.997 0 0 0 27 76l-4 11h64l-4-11zM55 46c-11.429 0-16-2-16-2v3s1.143 7 9.143 7C51.32 54 55 51 55 50c0 1 3.68 4 6.857 4 8 0 9.143-7 9.143-7v-3s-4.571 2-16 2z" fill="#3e3e3f"/><path d="M52 49c0 .732-1.343 1.955-3 1.968-3 .022-4-1.235-4-1.968h7zM58 49c0 .732 1.343 1.955 3 1.967 3 .022 4-1.235 4-1.967h-7z" fill="#fff"/><path d="M71 40.033s-.375.083-1.094.207C69.026 27.857 62.014 26 55 26s-14.026 1.857-14.906 14.241c-.288-.05-.818-.146-1.094-.208-.55 0-1.05.299-1.413.78-.362.481-.587 1.145-.587 1.875v1.328c0 1.46.9 2.656 2 2.656 0 0 6.125 1.017 13.016 1.271C53 47.979 54 48 55 48c8 0 16-1.328 16-1.328 1.1 0 2-1.195 2-2.656v-1.328c0-1.46-.9-2.655-2-2.655z" fill="#3e3e3f"/><path d="M40.094 40.241c-.719-.125-1.094-.208-1.094-.208-1.1 0-2 1.195-2 2.655v1.328c0 1.46.9 2.656 2 2.656 0 0 8 1.328 16 1.328V26c-7.014 0-14.026 1.857-14.906 14.241z" fill="#5b5c5f"/><path d="M61.996 61c-.088-2.437.462-5-7-5s-6.912 2.563-7 5c-.126 3.507 3 5 7 8 4-3 7.127-4.493 7-8zm-7 3c-4.996.029-4.824-4.96-4.992-5h9.992c-.167.04-.004 5.029-5 5z" fill="#3e3e3f"/></svg>