<svg version="1" xmlns="http://www.w3.org/2000/svg" width="110" height="110" viewBox="0 0 110 110"><circle cx="55" cy="55" r="55" fill="#32bea6"/><path d="M55 24c-4.596 0-8.126.638-10.853 1.614-2.768.991-4.703 2.331-6.047 3.723C35.005 32.542 35 36 35 36l2 38h12V39.173c3.438 1.309 7.875 2.027 12 2.415V74h12l2-38s0-12-20-12z" fill="#692e19"/><path d="M55 24c-4.596 0-8.126.638-10.853 1.614-2.768.991-4.703 2.331-6.047 3.723C35.005 32.542 35 36 35 36l2 38h12V39.173c1.791.682 3.854 1.2 6 1.598V24z" fill="#84462d"/><path d="M55 70l-7-1-16.241 3.872a8 8 0 0 0-5.168 4.791L23 87h32V70zM55 70l7-1 16.241 3.872a8 8 0 0 1 5.168 4.791L87 87H55V70z" fill="#3e3e3f"/><path d="M45 61.433V75l8 12h2V69c-3.284-1.095-7.159-3.171-10-7.567z" fill="#fbc8c8"/><path d="M55 69v18h2l8-12V61.433c-2.841 4.396-6.716 6.472-10 7.567z" fill="#f7b4b4"/><path d="M70 45h-1v-.021a72.143 72.143 0 0 0-.06-2.968c-8.076-.134-25.427-1.291-25.91-8.7-1.771 3.1-2.021 7.258-2.03 11.668V45h-1c-1 0-2 1.111-2 2.222 0 3.091.864 7.13 4.178 7.703C44.62 64.027 50.396 67.465 55 69c4.604-1.535 10.38-4.973 12.822-14.075C71.136 54.353 72 50.313 72 47.222 72 46.111 71 45 70 45z" fill="#fbc8c8"/><path d="M43.03 33.311c-1.771 3.1-2.021 7.258-2.03 11.668V45h-1c-1 0-2 1.111-2 2.222 0 3.091.864 7.13 4.178 7.703C44.62 64.027 50.396 67.465 55 69V40.774c-6.218-1.15-11.701-3.34-11.97-7.463z" fill="#fbd7d7"/><path d="M50 58h10s0 3-5 3-5-3-5-3z" fill="#f79392"/><path fill="#fff" d="M44.989 64L47 75l8 12h-2l-13-8 4-5-9-2zM65.011 64L63 75l-8 12h2l13-8-4-5 9-2z"/><path d="M52 47a2 2 0 0 0-2-2h-.006c.001.021.006.042.006.063a2 2 0 0 1-1.994 2A1.997 1.997 0 0 0 52 47zM61.994 47a2 2 0 0 0-2-2h-.006c.001.021.006.041.006.062a2 2 0 0 1-1.994 2A1.996 1.996 0 0 0 61.994 47z" fill="#3e3e3f"/><circle cx="70.347" cy="56.371" r="1.629" fill="#fbe158"/><circle cx="39.371" cy="56.371" r="1.629" fill="#fbe158"/></svg>