<svg version="1" xmlns="http://www.w3.org/2000/svg" width="110" height="110" viewBox="0 0 110 110"><circle cx="55" cy="55" r="55" fill="#fabc3d"/><path fill="#f1f2f2" d="M55 87L43 67.997h24z"/><path d="M59 68.031h-8l-6-3.752v3.218s0 7.5 10 7.5 10-7.5 10-7.5v-3.219l-6 3.753z" fill="#f7b4b4"/><path d="M72 47.222C72 46.111 71 45 70 45s-1 1.111-1 1.111V45c-.018-9-1.024-15-14-15s-13.982 6-14 15v7.997l4 10 5.105 3.996a2.999 2.999 0 0 0 2.24 1.004h5.31c.856 0 1.671-.365 2.24-1.004L65 62.997l3.207-8.017C71.042 54.776 72 50.476 72 47.222z" fill="#fbc8c8"/><path d="M41 45v1.111S41 45 40 45s-2 1.111-2 2.222c0 3.253.958 7.554 3.793 7.758L45 62.997l5.105 3.996a2.999 2.999 0 0 0 2.24 1.004H55V30c-12.976 0-13.982 6-14 15z" fill="#fbd7d7"/><g fill="#fbc8c8"><path d="M48 60.031l.011-.034h-1.029l.018.034zM55 68.031h-4l-6-3.752v3.218s0 7.5 10 7.5v-6.966z"/></g><path d="M67.807 34.274c.098-.417.146-.84.146-1.262 0-2.842-.908-4.783-12.953-4.972v-.024c-.634-.01-1.289-.016-1.985-.016-12.511 0-13.042 7.98-13.014 9.679.003.203.014.322.014.322v7.03l2 4v7l.984 6.997 8 5.003h8l8-5.003.984-6.997v-7h.031l2-4V40c.001-1.977-.739-3.945-2.207-5.726zm-4.808 25.757h-1l-2-6h-10l-2 6h-1l-3-6V37.673c3.339 2.246 6.812 2.372 11 2.354v-.003c2.604-.012 7.892.031 11-2.787v16.792l-3 6.002z" fill="#692e19"/><path d="M55 40.028V28.016c-.633-.01-1.288-.016-1.984-.016-14 0-13 10-13 10v7.031l2 4v7L43 63.028l8 5.003h4v-14h-5l-2 6h-1l-3-6V37.665c2.189 1.472 3.936 2.39 11 2.363z" fill="#84462d"/><path d="M52 46.997a2 2 0 0 0-2-2h-.006c.001.022.006.042.006.063a2 2 0 0 1-1.994 2A1.996 1.996 0 0 0 52 46.997zM61.994 46.997a2 2 0 0 0-2-2h-.006c.001.021.006.041.006.062a2 2 0 0 1-1.994 2 1.996 1.996 0 0 0 3.994-.062z" fill="#3e3e3f"/><path fill="#fff" d="M43 67.997l2-1 9.985 4.981L49 77.997zM67 67.997l-2-1-9.985 4.981L61 77.997z"/><path fill="#099686" d="M59 87l-2.799-10.2L58 75.002l-3.019-3.024-2.998 2.998 1.818 1.817L51 87z"/><path fill="#12b2a0" d="M55 87V71.997l-.019-.019-2.998 2.998 1.818 1.817L51 87z"/><path d="M23 87l4-11a6.002 6.002 0 0 1 3.043-2.983L43 68l12 19H23zM87 87l-4-11a6.002 6.002 0 0 0-3.043-2.983L67 68 55 87h32z" fill="#3e3e3f"/><path fill="#fff" d="M66 79.997h10v2H66z"/><path d="M51 56.997h8S59 61 55 61s-4-4.003-4-4.003z" fill="#fbc8c8"/></svg>