<svg xmlns="http://www.w3.org/2000/svg" viewBox="0 0 110 110"><circle fill="#32BEA6" cx="55" cy="55" r="55"/><path fill="#EDBC7C" d="M83.9 79.9c-.6-.6-1.3-.9-2.1-.9H28.2c-.8 0-1.6.3-2.1.9L23 83v4h64v-4l-3.1-3.1z"/><path fill="#F8E1C2" d="M23 83l3.1-3.1c.6-.6 1.3-.9 2.1-.9h53.5c.8 0 1.6.3 2.1.9L87 83H23z"/><circle fill="#FACB1B" cx="31" cy="31" r="8"/><path fill="#0C7367" d="M76 35c-3.6 0-6 2.8-6 5.9V45c0 1.1-.9 2-2 2s-2-.9-2-2V31c0-4.4-3.6-8-8-8s-8 3.6-8 8v22c0 1.1-.9 2-2 2s-2-.9-2-2v-4.1c0-3.2-2.5-5.9-6-5.9-3.4 0-6 2.7-6 5.9v10.2c0 12 16 7.7 16 19.9v4h16V71c0-12.2 16-7.8 16-19.9V40.9c0-3.2-2.7-5.9-6-5.9z"/><path fill="#099686" d="M50 31v22c0 1.1-.9 2-2 2s-2-.9-2-2v-4.1c0-3.2-2.5-5.9-6-5.9-3.4 0-6 2.7-6 5.9v10.2c0 12 16 7.7 16 19.9v4h8V23c-4.4 0-8 3.6-8 8z"/></svg>