<svg version="1" xmlns="http://www.w3.org/2000/svg" width="110" height="110" viewBox="0 0 110 110"><circle cx="55" cy="55" r="55" fill="#e04f5f"/><path d="M83 85a2 2 0 0 1-2 2H61a2 2 0 0 1-2-2V41a2 2 0 0 1 2-2h20a2 2 0 0 1 2 2v44z" fill="#f3b607"/><path d="M71.001 39H61a2 2 0 0 0-2 2v44a2 2 0 0 0 2 2h10V39z" fill="#facb1b"/><path d="M62 58.5a4.5 4.5 0 0 0 9 0v-10a1.5 1.5 0 0 1 3 0v4a2.5 2.5 0 1 0 5 0V39H61a2 2 0 0 0-2 2v15h3v2.5z" fill="#fbe158"/><path d="M71.001 39H61a2 2 0 0 0-2 2v15h3v2.5a4.5 4.5 0 0 0 9 0v-10V39z" fill="#fbec9a"/><path d="M43 57a2 2 0 0 1 2-2h16a2 2 0 0 1 2 2v28a2 2 0 0 1-2 2H45a2 2 0 0 1-2-2V57z" fill="#059bbf"/><path d="M53.001 55h-8a2 2 0 0 0-2 2v28a2 2 0 0 0 2 2h8V55z" fill="#21b2d1"/><path d="M51 61a2 2 0 0 1 4 0 2 2 0 0 0 4 0v-6H45a2 2 0 0 0-2 2v13h8v-9z" fill="#40c9e7"/><path d="M77.429 33.286a5.714 5.714 0 1 1-11.428 0c0-3.429 4.571-5.714 3.429-10.286 6.857 2.286 7.999 7.13 7.999 10.286z" fill="#fbe158"/><path d="M74.572 36.143a2.857 2.857 0 1 1-5.714 0c0-1.714 2.286-2.857 1.714-5.143 3.429 1.143 4 3.565 4 5.143z" fill="#f37a10"/><path d="M56.001 51a4 4 0 0 1-8 0c0-2.4 3.2-4 2.4-7.201 4.8 1.6 5.6 4.991 5.6 7.201z" fill="#fbe158"/><path d="M54.001 53a2 2 0 0 1-4 0c0-1.2 1.6-2 1.2-3.6 2.4.8 2.8 2.495 2.8 3.6z" fill="#f37a10"/><path d="M53 55h-8a2 2 0 0 0-2 2v14h8V61a2 2 0 0 1 2-2v-4z" fill="#6fdaf1"/><path d="M50.688 70.17c-1.035-2.236-3.907-3.192-6.908-2.513-.478-3.32-2.665-5.829-5.294-5.829-2.693 0-4.919 2.634-5.322 6.074-3.301-1.094-6.644-.183-7.779 2.269-1.199 2.591.508 5.949 3.824 7.693-1.989 2.758-2.147 6.134-.215 7.958 2.213 2.089 6.299 1.337 9.042-1.737 2.755 3.087 6.839 3.816 9.042 1.737 1.932-1.824 1.775-5.2-.215-7.958 3.317-1.745 5.024-5.103 3.825-7.694z" fill="#f0f1f1"/><path d="M43.78 67.657c-.478-3.32-2.665-5.829-5.294-5.829-2.693 0-4.919 2.634-5.322 6.074-3.301-1.094-6.644-.183-7.779 2.269-1.199 2.591.508 5.949 3.824 7.693-1.701 2.359-2.057 5.166-.919 7.071l17.479-17.48a8.415 8.415 0 0 0-1.989.202z" fill="#fff"/><circle cx="38.485" cy="75.313" r="5.394" fill="#facb1b"/><path d="M38.485 69.919a5.394 5.394 0 0 0-5.394 5.394c0 1.343.494 2.569 1.306 3.513l7.601-7.601a5.367 5.367 0 0 0-3.513-1.306z" fill="#fbe158"/></svg>