<svg version="1" xmlns="http://www.w3.org/2000/svg" width="110" height="110" viewBox="0 0 110 110"><circle cx="55" cy="55" r="55" fill="#fabc3d"/><path d="M67 55c0 17.669-8.008 32-12 32-3.99 0-12-14.328-12-32 0-17.671 8.009-32 12-32s12 14.329 12 32z" fill="#059bbf"/><path d="M57 23.91v62.18c-.73.6-1.41.91-2 .91-.59 0-1.27-.31-2-.91V23.91c.73-.6 1.41-.91 2-.91.59 0 1.27.31 2 .91z" fill="#fff"/><path d="M55 51c-4.808 0-8.143 14.963-5.214 18.536A4 4 0 0 0 52.879 71h4.242a3.998 3.998 0 0 0 3.093-1.464C63.078 66.042 59.852 51 55 51z" fill="#3e3e3f"/><path d="M72.497 39.971l4.95.707 9.192-9.192c-.471-4.243-4.243-8.014-8.485-8.485l-9.192 9.192.707 4.95-32.527 32.526-4.95-.707L23 78.154c.472 4.243 4.243 8.014 8.485 8.485l9.192-9.192-.707-4.95 32.527-32.526z" fill="#e2e4e5"/><path d="M78.154 23l-9.192 9.192.707 4.95-32.527 32.527-4.95-.707L23 78.154c.237 2.135 1.312 4.15 2.86 5.686l57.98-57.98c-1.536-1.548-3.55-2.623-5.686-2.86z" fill="#fff"/></svg>