<svg version="1" xmlns="http://www.w3.org/2000/svg" width="110" height="110" viewBox="0 0 110 110"><circle cx="55" cy="55" r="55" fill="#fabc3d"/><path d="M43 35h36l7.418 44.507A3 3 0 0 1 83.459 83H35l8-48z" fill="#fff"/><path fill="#df2c2c" d="M23 55h48v32H23z"/><path fill="#fa5655" d="M23 55v32h3.891l32-32z"/><path d="M70 42a1 1 0 0 1-2 0V32c0-3.86-3.14-7-7-7s-7 3.14-7 7v10a1 1 0 0 1-2 0V32c0-4.962 4.037-9 9-9s9 4.038 9 9v10z" fill="#3e3e3f"/><path fill="#facb1b" d="M71 70H57V55h-4v15H23v4h30v13h4V74h14z"/><path d="M66.067 61.442c-2.02-2.02-5.652-1.661-8.114.8-1.748 1.748-2.538 6.216-2.85 8.667l-.178.147-.178-.147c-.313-2.451-1.103-6.919-2.85-8.667-2.461-2.461-6.094-2.82-8.114-.8-2.02 2.02-1.662 5.652.8 8.114 1.475 1.475 4.888 2.266 7.393 2.667l-5.184 5.089L50.054 80l4.871-7.368L59.795 80l3.263-2.689-5.184-5.089c2.505-.4 5.918-1.192 7.393-2.667 2.461-2.461 2.819-6.094.8-8.113zm-20.471 5.55c-1.257-1.258-1.44-3.113-.409-4.145s2.887-.849 4.145.409 1.547 5.283 1.547 5.283-4.025-.29-5.283-1.547zm13.374 1.547s.29-4.026 1.547-5.283 3.113-1.44 4.145-.409.849 2.887-.409 4.145c-1.258 1.257-5.283 1.547-5.283 1.547z" fill="#fbe158"/><path d="M45.596 66.992c-1.257-1.258-1.44-3.113-.409-4.145s2.887-.849 4.145.409c.198.198.37.47.523.78l1.907-1.907c-2.458-2.348-5.995-2.672-7.98-.687-1.985 1.985-1.661 5.522.687 7.98l1.907-1.907c-.309-.153-.581-.325-.78-.523z" fill="#fbec9a"/><g fill="#fbe158"><path d="M53 55v5.891l4-4V55zM23 70v4h16.891l4-4z"/></g></svg>