<svg version="1" xmlns="http://www.w3.org/2000/svg" width="110" height="110" viewBox="0 0 110 110"><circle cx="55" cy="55" r="55" fill="#fabc3d"/><path d="M79 31a8 8 0 0 0-8-8H39a8 8 0 0 0-8 8v50a2 2 0 0 0 2 2h44a2 2 0 0 0 2-2V31z" fill="#df2c2c"/><path d="M76.198 24.926A7.963 7.963 0 0 0 71 23H39a8 8 0 0 0-8 8v39.124l45.198-45.198z" fill="#fa5655"/><path d="M31 83v2a2 2 0 0 0 2 2h8a2 2 0 0 0 2-2v-2H31zM67 85a2 2 0 0 0 2 2h8a2 2 0 0 0 2-2v-2H67v2z" fill="#3e3e3f"/><path d="M81 74a4 4 0 0 0-4-4h-9l-2.447-2.894A2 2 0 0 0 63.764 66H46.236a2 2 0 0 0-1.789 1.106L42 70h-9a4 4 0 0 0-4 4v7a2 2 0 0 0 2 2h48a2 2 0 0 0 2-2v-7z" fill="#fa5655"/><path d="M54 69h-7a2 2 0 0 0-2 2v7a2 2 0 0 0 2 2h7V69zM56 69h7a2 2 0 0 1 2 2v7a2 2 0 0 1-2 2h-7V69z" fill="#bf0302"/><circle cx="37" cy="77" r="3" fill="#fbe158"/><circle cx="72" cy="77" r="3" fill="#fbe158"/><path fill="#e2e4e5" d="M31 47h48v2H31z"/><path fill="#fff" d="M54.124 47H31v2h21.124z"/><path d="M75 49H57v12a2 2 0 0 0 2 2h14a2 2 0 0 0 2-2V49z" fill="#40c9e7"/><path d="M35 37a2 2 0 0 0 2 2h14a2 2 0 0 0 2-2v-8a2 2 0 0 0-2-2H37a2 2 0 0 0-2 2v8z" fill="#6fdaf1"/><path d="M57 37a2 2 0 0 0 2 2h14a2 2 0 0 0 2-2v-8a2 2 0 0 0-2-2H59a2 2 0 0 0-2 2v8z" fill="#40c9e7"/><path d="M73 27H59a2 2 0 0 0-2 2v8a2 2 0 0 0 2 2h3.124L73.9 27.223A1.977 1.977 0 0 0 73 27z" fill="#6fdaf1"/><path d="M72 74.044a3 3 0 0 0-3 3c0 .751.286 1.43.742 1.956l4.214-4.214A2.976 2.976 0 0 0 72 74.044zM37 74a3 3 0 0 0-3 3c0 .751.286 1.43.742 1.956l4.214-4.214A2.976 2.976 0 0 0 37 74z" fill="#fbec9a"/><path fill="#40c9e7" d="M35 49h18v8H35zM35 61a2 2 0 0 0 2 2h14a2 2 0 0 0 2-2v-2H35v2z"/><path fill="#6fdaf1" d="M44.124 57l8-8H35v8zM35 59v2a2 2 0 0 0 2 2h1.124l4-4H35z"/></svg>