<svg xmlns="http://www.w3.org/2000/svg" viewBox="0 0 110 110"><circle fill="#FABC3D" cx="55" cy="55" r="55"/><path fill="#F0F1F1" d="M79 55c0-2.2-1.8-4-4-4H35c-2.2 0-4 1.8-4 4v26h48V55z"/><path fill="#FFF" d="M55 42.2c-1.6 0-2.9 1.3-2.9 2.8 0 1.6 1.3 2.8 2.8 2.8 1.6 0 2.8-1.3 2.8-2.8.2-1.5-1.1-2.8-2.7-2.8zM55 34.1c-4.7 0-8.9 2.5-11.1 6.3l2.5 1.4c1.5-2.7 4.8-4.9 8.6-4.9 3.7 0 7.1 2.2 8.6 4.9l2.5-1.4c-2.3-3.7-6.5-6.3-11.1-6.3z"/><path fill="#FFF" d="M55 24.9c-7.3 0-14.3 3.1-19.3 9.5l2.3 1.7c3.9-5.2 10.1-8.4 17-8.4s13.1 3.3 17 8.4l2.3-1.7c-5-6.3-12-9.5-19.3-9.5zM23 81v2c2.6 2.6 6 4 9.7 4h44.7c3.6 0 7.1-1.4 9.7-4v-2H23z"/><path fill="#3E3E3F" d="M35 55h40v26H35z"/><path fill="#5B5C5F" d="M35 80.9L60.9 55H35z"/><path fill="#E2E4E5" d="M50 81h10v2H50z"/></svg>