<svg version="1" xmlns="http://www.w3.org/2000/svg" width="110" height="110" viewBox="0 0 110 110"><circle cx="55" cy="55" r="55" fill="#32bea6"/><path fill="#f1f2f2" d="M55 87L43 67.997h24z"/><path d="M57.655 68h-5.31a2.999 2.999 0 0 1-2.24-1.004L45 63v4.497s0 7.5 10 7.5 10-7.5 10-7.5V63l-5.105 3.996A2.999 2.999 0 0 1 57.655 68z" fill="#f7b4b4"/><path d="M50.105 66.996L45 63v4.497s0 7.5 10 7.5V68h-2.655a2.999 2.999 0 0 1-2.24-1.004z" fill="#fbc8c8"/><path fill="#fff" d="M43 67.997l2-1 9.985 4.981L49 77.997zM67 67.997l-2-1-9.985 4.981L61 77.997z"/><path fill="#df2c2c" d="M59 87l-2.799-10.2L58 75.002l-3.019-3.024-2.998 2.998 1.818 1.817L51 87z"/><path fill="#fa5655" d="M55 87V71.997l-.019-.019-2.998 2.998 1.818 1.817L51 87z"/><path d="M23 87l4-11a6.002 6.002 0 0 1 3.043-2.983L43 68l12 19H23zM87 87l-4-11a6.002 6.002 0 0 0-3.043-2.983L67 68 55 87h32z" fill="#fff"/><path d="M70 45c-1 0-1 1.111-1 1.111V46h-1v-7.902C65.643 40.306 61.912 42 56 42c-9.201 0-13.313-5.068-13.913-5.88-.029.076-.06.151-.087.228V46h-1v6.997l4 10 5.105 3.996a2.999 2.999 0 0 0 2.24 1.004h5.31c.856 0 1.671-.365 2.24-1.004L65 62.997l3.207-8.017C71.042 54.776 72 50.476 72 47.222 72 46.111 71 45 70 45z" fill="#fbc8c8"/><path d="M42 36c-.029.076.028.274 0 .351v9.652h-1l-.065-.277c-.095-.321-.332-.723-.935-.723-1 0-2 1.111-2 2.222 0 3.253.958 7.554 3.793 7.758L45 63l5.105 3.996A2.999 2.999 0 0 0 52.345 68H55V41.966C46.511 41.61 42.577 36.781 42 36z" fill="#fbd7d7"/><path fill="#f3b607" d="M33 87h22L43 68l-10 3.872zM77 87H55l12-19 10 3.872z"/><path fill="#facb1b" d="M37 70.323V87h3V69.162zM47 74.333l-3-4.75V87h3zM73 70.323V87h-3V69.162zM63 74.333l3-4.75V87h-3z"/><path d="M50 56.997h10s0 3-5 3-5-3-5-3z" fill="#f79392"/><path d="M69.426 36.491C72.321 32.572 72 28 72 28H48.134a9.073 9.073 0 0 0-9.015 10.072L41 46h1V36s4 6 14 6c5.912 0 9.643-1.694 12-3.902V46h1l1.272-7.09a2.34 2.34 0 0 0-.426-2.009 2.295 2.295 0 0 0-.42-.41z" fill="#3e3e3f"/><g><path d="M61.934 43.467H48.067c-1.192 0-6.067.379-6.067 3.467C42 50.021 43.246 53 46.333 53c2.851 0 6.583-2.384 6.902-6.385.432-.338 1.054-.548 1.764-.548h.005c.709.001 1.332.212 1.761.551.32 4 4.052 6.383 6.902 6.383C66.754 53 68 50.021 68 46.934c0-3.088-4.875-3.467-6.066-3.467zm-8.719 2.141c-.126-.558-.484-.97-.96-1.275h5.49c-.473.303-.828.711-.957 1.263a4.005 4.005 0 0 0-1.784-.396c-.667.018-1.279.16-1.789.408z" fill="#3e3e3f"/><path d="M51.533 45.532c-1.008-.306-2.228-.332-2.764-.332-.989 0-5.036.273-5.036 2.498 0 1.387.402 2.744 1.327 3.569l6.473-5.735zM58.467 45.532c1.008-.306 2.228-.332 2.764-.332.989 0 5.036.273 5.036 2.498 0 1.387-.402 2.744-1.327 3.569l-6.473-5.735z" fill="#5b5c5f"/></g><g><path d="M75.556 58.894c-2.4-.48-17.65-3.528-18.238-.587-.588 2.942 15.003 6.059 17.553 6.568 1.354.271 2.715-.827 3.04-2.452.64-3.202-2.355-3.529-2.355-3.529z" fill="#692e19"/><ellipse transform="rotate(11.304 75.959 62.039)" cx="75.949" cy="62.032" rx="2" ry="3" fill="#fa5655"/></g></svg>