<svg xmlns="http://www.w3.org/2000/svg" viewBox="0 0 110 110"><circle fill="#25B7D3" cx="55" cy="55" r="55"/><path fill="#3E3E3F" d="M64 27.7C61.8 26 58.8 25 55 25s-6.8 1-9 2.7L40 23l1 17c0 8.3 6.3 15 14 15s14-6.7 14-15l1-17-6 4.7z"/><path fill="#5B5C5F" d="M46 27.7L40 23l1 17c0 8.3 6.3 15 14 15V25c-3.8 0-6.8 1-9 2.7z"/><path fill="#3E3E3F" d="M55 49c-4 0-28 2-28 34 0 0 10 4 28 4s28-4 28-4c0-32-24-34-28-34z"/><path fill="#CFD3D4" d="M55 87c6.8 0 12.5-.6 17-1.3-.9-26-17-30.7-17-30.7s-16.1 4.7-17 30.7c4.5.7 10.2 1.3 17 1.3z"/><path fill="#3E3E3F" d="M63 68l-4 3v-4l-4 3-4-3v4l-4-3c-3 2.6-5.1 5.7-5 10 6-.7 10 0 13 5 3-5 7-5.7 13-5 .1-4.3-2-7.4-5-10z"/><path fill="#FBC8C8" d="M55 55c3.7 0 7-1.5 9.5-4 4.6-13.5-5.9-6-9.5-6s-14.1-7.6-9.5 6c2.5 2.5 5.8 4 9.5 4z"/><path fill="#CFD3D4" d="M62.5 39.7c-2.5 1.3-5.7.2-5.7.2s.8-3.3 3.3-4.7c2.5-1.3 5.7-.2 5.7-.2s-.8 3.4-3.3 4.7zM47.5 39.7c2.5 1.3 5.7.2 5.7.2s-.8-3.3-3.3-4.7c-2.5-1.3-5.7-.2-5.7-.2s.8 3.4 3.3 4.7z"/><path fill="#FBD7D7" d="M45.5 51c2.5 2.5 5.9 4 9.5 4V45c-3.7 0-14.1-7.6-9.5 6z"/><path fill="#F79392" d="M50 48h10s0 3-5 3-5-3-5-3z"/><path fill="#5B5C5F" d="M51 67v4l-4-3c-3 2.6-5.1 5.7-5 10 6-.7 10 0 13 5V70l-4-3z"/></svg>