<svg version="1" xmlns="http://www.w3.org/2000/svg" width="110" height="110" viewBox="0 0 110 110"><circle cx="55" cy="55" r="55" fill="#25b7d3"/><path d="M79 39a4 4 0 0 0-4-4H35a4 4 0 0 0-4 4v12h48V39z" fill="#cfd3d4"/><path d="M75 35H35a4 4 0 0 0-4 4v12h29.744L76.46 35.284A3.983 3.983 0 0 0 75 35z" fill="#f0f1f1"/><path fill="#818284" d="M23 75h64v12H23z"/><path fill="#f0f1f1" d="M31 51h48l8 20H23z"/><path fill="#fff" d="M31 51l-8 20h17.744l20-20zM35 43V27l4 4 4-4 4 4 4-4v16z"/><path fill="#cfd3d4" d="M23 71h64v4H23z"/><path fill="#17b198" d="M55 39h20v8H55z"/><path fill="#4ac3af" d="M72.744 39H55v8h9.744z"/><path fill="#818284" d="M69 32h4v3h-4z"/><path d="M83 24a1 1 0 0 0-1-1H60a1 1 0 0 0-1 1v7a1 1 0 0 0 1 1h22a1 1 0 0 0 1-1v-7z" fill="#3e3e3f"/><path fill="#cfd3d4" d="M34 43h18v2H34zM47 35.5c0 .275-.225.5-.5.5h-7a.501.501 0 0 1-.5-.5c0-.275.225-.5.5-.5h7c.275 0 .5.225.5.5zM47 39.5c0 .275-.225.5-.5.5h-7a.501.501 0 0 1-.5-.5c0-.275.225-.5.5-.5h7c.275 0 .5.225.5.5z"/><circle cx="55" cy="81" r="2" fill="#cfd3d4"/><circle cx="35" cy="57" r="2" fill="#cfd3d4"/><circle cx="43" cy="57" r="2" fill="#cfd3d4"/><circle cx="51" cy="57" r="2" fill="#cfd3d4"/><circle cx="33" cy="65" r="2" fill="#cfd3d4"/><circle cx="41" cy="65" r="2" fill="#cfd3d4"/><circle cx="49" cy="65" r="2" fill="#b6bcbd"/><circle cx="61" cy="65" r="2" fill="#b6bcbd"/><circle cx="69" cy="65" r="2" fill="#b6bcbd"/><circle cx="77" cy="65" r="2" fill="#17b198"/><circle cx="59" cy="57" r="2" fill="#b6bcbd"/><circle cx="67" cy="57" r="2" fill="#b6bcbd"/><circle cx="75" cy="57" r="2" fill="#fa5655"/><path d="M74.272 23H60a1 1 0 0 0-1 1v7a1 1 0 0 0 1 1h5.272l9-9z" fill="#5b5c5f"/></svg>