<svg xmlns="http://www.w3.org/2000/svg" width="110" height="110" viewBox="0 0 110 110"><circle fill="#0091EA" cx="55" cy="55" r="55"/><path fill="#D32F2F" d="M55 35L31 83s4 4 24 4 24-4 24-4L55 35z"/><path fill="#FFF" d="M59.293 43.6l-12.072 6.968-4.869 9.741 19.63-11.333zM64.961 54.935L36.953 71.104l-4.869 9.741 35.565-20.534zM70.727 66.464l-33.06 19.087c2.398.52 5.606.986 9.843 1.245L73.414 71.84l-2.687-5.376z"/><path fill="#EF5350" d="M55.25 35.5L55 35 31 83s4 4 24 4l.25-.002V35.5z"/><path fill="#F0F0F0" d="M59.293 43.6l-12.072 6.968-4.869 9.741 19.63-11.333z"/><path fill="#FFF" d="M55.25 45.934l-8.029 4.634-4.869 9.741 12.898-7.448z"/><path fill="#F0F0F0" d="M64.961 54.935L36.953 71.104l-4.869 9.741 35.565-20.534z"/><path fill="#FFF" d="M55.25 60.542L36.953 71.104l-4.869 9.741L55.25 67.47z"/><path fill="#F0F0F0" d="M70.727 66.464l-33.06 19.087c2.398.52 5.606.986 9.843 1.245L73.414 71.84l-2.687-5.376z"/><path fill="#FFF" d="M55.25 75.398L37.667 85.551c2.398.52 5.606.986 9.843 1.245l7.74-4.469v-6.929z"/><path fill="#F0F0F0" d="M76.471 77.953l-15.452 8.922C75.82 86.178 79 83.011 79 83.011l-2.529-5.058z"/><path fill="#FDD835" d="M65 33.857a.999.999 0 0 0-1.153-.988l-5.893.907 4.809-3.526a1.001 1.001 0 0 0 .115-1.513l-1.615-1.615a1.003 1.003 0 0 0-1.513.115l-3.526 4.81.907-5.894A1.003 1.003 0 0 0 56.142 25h-2.284a1.001 1.001 0 0 0-.988 1.153l.907 5.894-3.526-4.809a.999.999 0 0 0-1.513-.116l-1.615 1.615a.99.99 0 0 0-.289.783c.021.291.17.559.405.73l4.809 3.526-5.894-.907a1.003 1.003 0 0 0-1.153.988v2.284a1 1 0 0 0 1.153.989l5.894-.907-4.809 3.526a.996.996 0 0 0-.405.73.994.994 0 0 0 .289.783l1.615 1.615a.998.998 0 0 0 1.513-.116l3.526-4.808-.907 5.893c-.044.289.04.582.229.804.19.223.467.35.758.35h2.284a.998.998 0 0 0 .989-1.153l-.907-5.893 3.526 4.808a1 1 0 0 0 1.513.116l1.615-1.615a.998.998 0 0 0-.115-1.513l-4.809-3.526 5.893.907a1 1 0 0 0 1.153-.989v-2.285z"/></svg>