<?xml version="1.0" encoding="utf-8"?>
<!-- Generator: Adobe Illustrator 18.1.1, SVG Export Plug-In . SVG Version: 6.00 Build 0)  -->
<!DOCTYPE svg PUBLIC "-//W3C//DTD SVG 1.1//EN" "http://www.w3.org/Graphics/SVG/1.1/DTD/svg11.dtd">
<svg version="1.1" id="Layer_1" xmlns="http://www.w3.org/2000/svg" xmlns:xlink="http://www.w3.org/1999/xlink" x="0px" y="0px"
	 viewBox="0 0 48 44.5" enable-background="new 0 0 48 44.5" xml:space="preserve">
<g>
	<path fill="none" stroke="currentColor" stroke-width="2" stroke-linecap="round" stroke-linejoin="round" stroke-miterlimit="10" d="
		M7.7,40.3c-9-9-9-23.5,0-32.5c9-9,23.5-9,32.5,0c9,9,9,23.5,0,32.5c-4.3,4.3-11.3,4.3-15.6,0l-8.5-8.5c-0.8-0.8-2-0.8-2.8,0
		c-0.8,0.8-0.8,2,0,2.8c1.6,1.6,1.6,4.1,0,5.7C11.8,41.8,9.3,41.8,7.7,40.3z"/>

		<circle fill="none" stroke="currentColor" stroke-width="2" stroke-linecap="round" stroke-linejoin="round" stroke-miterlimit="10" cx="32.5" cy="14.1" r="3"/>

		<circle fill="none" stroke="currentColor" stroke-width="2" stroke-linecap="round" stroke-linejoin="round" stroke-miterlimit="10" cx="38" cy="24" r="2"/>

		<circle fill="none" stroke="currentColor" stroke-width="2" stroke-linecap="round" stroke-linejoin="round" stroke-miterlimit="10" cx="32.5" cy="33.9" r="4"/>

		<circle fill="none" stroke="currentColor" stroke-width="2" stroke-linecap="round" stroke-linejoin="round" stroke-miterlimit="10" cx="20.5" cy="12" r="3"/>
</g>
</svg>
