<?xml version="1.0" encoding="utf-8"?>
<!-- Generator: Adobe Illustrator 18.1.1, SVG Export Plug-In . SVG Version: 6.00 Build 0)  -->
<!DOCTYPE svg PUBLIC "-//W3C//DTD SVG 1.1//EN" "http://www.w3.org/Graphics/SVG/1.1/DTD/svg11.dtd">
<svg version="1.1" id="Layer_1" xmlns="http://www.w3.org/2000/svg" xmlns:xlink="http://www.w3.org/1999/xlink" x="0px" y="0px"
	 viewBox="0 0 47.7 47.7" enable-background="new 0 0 47.7 47.7" xml:space="preserve">
<g>
	<path fill="none" stroke="currentColor" stroke-width="2" stroke-linecap="round" stroke-linejoin="round" stroke-miterlimit="10" d="
		M16.4,35.6l19.2-19.2c2.9,1.2,6.4,0.7,8.8-1.7c2.4-2.4,2.9-5.7,1.7-8.6l-3.8,4H38V5.5l3.8-3.8C38.9,0.4,35.4,1,33,3.3
		c-2.4,2.4-2.9,5.9-1.7,8.8L12.1,31.3c-2.9-1.2-6.4-0.7-8.8,1.7c-2.4,2.4-2.9,5.9-1.7,8.8L5.5,38H10v4.2l-4,3.8
		c2.9,1.2,6.3,0.7,8.7-1.7C17.1,42,17.6,38.5,16.4,35.6z"/>
	<path fill="none" stroke="currentColor" stroke-width="2" stroke-linecap="round" stroke-linejoin="round" stroke-miterlimit="10" d="
		M23.8,19.6l-7.5-7.5c1.2-2.9,0.7-6.4-1.7-8.8C12.3,1,8.9,0.4,6,1.6l4,3.8V10H5.5L1.6,6C0.4,8.9,1,12.4,3.3,14.7
		c2.4,2.4,5.9,2.9,8.8,1.7l7.5,7.5"/>
	<path fill="none" stroke="currentColor" stroke-width="2" stroke-linecap="round" stroke-linejoin="round" stroke-miterlimit="10" d="
		M23.8,28.1l7.5,7.5c-1.2,2.9-0.7,6.4,1.7,8.8c2.4,2.4,5.9,2.9,8.8,1.7L38,42.2V38h4.2l3.8,3.8c1.2-2.9,0.7-6.4-1.7-8.8
		c-2.4-2.4-5.9-2.9-8.8-1.7l-7.5-7.5"/>
</g>
</svg>
