<?xml version="1.0" encoding="utf-8"?>
<!-- Generator: Adobe Illustrator 18.1.1, SVG Export Plug-In . SVG Version: 6.00 Build 0)  -->
<!DOCTYPE svg PUBLIC "-//W3C//DTD SVG 1.1//EN" "http://www.w3.org/Graphics/SVG/1.1/DTD/svg11.dtd">
<svg version="1.1" id="Layer_1" xmlns="http://www.w3.org/2000/svg" xmlns:xlink="http://www.w3.org/1999/xlink" x="0px" y="0px"
	 viewBox="0 0 48.5 45.9" enable-background="new 0 0 48.5 45.9" xml:space="preserve">
<g>

		<circle fill="none" stroke="currentColor" stroke-width="2" stroke-linecap="round" stroke-linejoin="round" stroke-miterlimit="10" cx="33" cy="11" r="10"/>
	<path fill="currentColor" d="M47.5,9c-0.6,0-1,0.4-1,1c0,0.6,0.4,1,1,1c0.6,0,1-0.4,1-1C48.5,9.4,48.1,9,47.5,9L47.5,9z"/>

		<line fill="none" stroke="currentColor" stroke-width="2" stroke-linecap="round" stroke-linejoin="round" stroke-miterlimit="10" x1="47.5" y1="44.9" x2="47.5" y2="12.9"/>
	<path fill="none" stroke="currentColor" stroke-width="2" stroke-linecap="round" stroke-linejoin="round" stroke-miterlimit="10" d="
		M33.4,40.9c-2.8,0-5.1-2.3-5.1-5.1c0-5.3-6.2-6.4-9-3.5c-2.7-3-9-1.8-9,3.5c0,2.8-2.3,5.1-5.1,5.1c-1.8,0-3.3-0.9-4.2-2.2
		c3.8,8.6,14.6,7,18.3,1.3c3.7,5.7,14.5,7.3,18.3-1.3C36.7,40,35.1,40.9,33.4,40.9z"/>
	<path fill="none" stroke="currentColor" stroke-width="2" stroke-linecap="round" stroke-linejoin="round" stroke-miterlimit="10" d="
		M39,11c0,3.3-2.7,6-6,6"/>
</g>
</svg>
