<?xml version="1.0" encoding="utf-8"?>
<!-- Generator: Adobe Illustrator 18.1.1, SVG Export Plug-In . SVG Version: 6.00 Build 0)  -->
<!DOCTYPE svg PUBLIC "-//W3C//DTD SVG 1.1//EN" "http://www.w3.org/Graphics/SVG/1.1/DTD/svg11.dtd">
<svg version="1.1" id="Layer_1" xmlns="http://www.w3.org/2000/svg" xmlns:xlink="http://www.w3.org/1999/xlink" x="0px" y="0px"
	 viewBox="480.2 475 39.7 50" enable-background="new 480.2 475 39.7 50" xml:space="preserve">
<g>
	<path fill="none" stroke="currentColor" stroke-width="2" stroke-linecap="round" stroke-linejoin="round" stroke-miterlimit="10" d="
		M511.5,481.2c-1.3,0-2.4,0.3-3.5,0.9c-1-3.5-4.2-6.1-8-6.1c-3.8,0-7.1,2.6-8.1,6.1c-1-0.6-2.2-0.9-3.5-0.9c-4,0-7.3,3.3-7.3,7.3
		c0,4,3.1,7.3,7.3,7.3V524h23v-28.1c4.2,0,7.3-3.3,7.3-7.3C518.8,484.5,515.6,481.2,511.5,481.2z"/>

		<line fill="none" stroke="currentColor" stroke-width="2" stroke-linecap="round" stroke-linejoin="round" stroke-miterlimit="10" x1="488.5" y1="515.6" x2="511.5" y2="515.6"/>

		<line fill="none" stroke="currentColor" stroke-width="2" stroke-linecap="round" stroke-linejoin="round" stroke-miterlimit="10" x1="494.8" y1="507.3" x2="494.8" y2="515.6"/>

		<line fill="none" stroke="currentColor" stroke-width="2" stroke-linecap="round" stroke-linejoin="round" stroke-miterlimit="10" x1="500" y1="505.2" x2="500" y2="515.6"/>

		<line fill="none" stroke="currentColor" stroke-width="2" stroke-linecap="round" stroke-linejoin="round" stroke-miterlimit="10" x1="505.2" y1="507.3" x2="505.2" y2="515.6"/>
</g>
</svg>
