<?xml version="1.0" encoding="utf-8"?>
<!-- Generator: Adobe Illustrator 18.1.1, SVG Export Plug-In . SVG Version: 6.00 Build 0)  -->
<!DOCTYPE svg PUBLIC "-//W3C//DTD SVG 1.1//EN" "http://www.w3.org/Graphics/SVG/1.1/DTD/svg11.dtd">
<svg version="1.1" id="Layer_1" xmlns="http://www.w3.org/2000/svg" xmlns:xlink="http://www.w3.org/1999/xlink" x="0px" y="0px"
	 viewBox="0 0 48 36" enable-background="new 0 0 48 36" xml:space="preserve">
<g>
	<path fill="none" stroke="currentColor" stroke-width="2" stroke-linecap="round" stroke-linejoin="round" stroke-miterlimit="10" d="
		M19,19l26.7,9.5c0.8,0.3,1.3,1,1.3,1.9V35H1V21c0-1.1,0.9-2,2-2h2c0,1.7,3.5,3,7,3C16.4,22,19,20.7,19,19z"/>

		<line fill="none" stroke="currentColor" stroke-width="2" stroke-linecap="round" stroke-linejoin="round" stroke-miterlimit="10" x1="1" y1="31" x2="47" y2="31"/>

		<line fill="none" stroke="currentColor" stroke-width="2" stroke-linecap="round" stroke-linejoin="round" stroke-miterlimit="10" x1="24.2" y1="20.8" x2="22" y2="23"/>

		<line fill="none" stroke="currentColor" stroke-width="2" stroke-linecap="round" stroke-linejoin="round" stroke-miterlimit="10" x1="27.8" y1="22.2" x2="26" y2="24"/>
	<path fill="none" stroke="currentColor" stroke-width="2" stroke-linecap="round" stroke-linejoin="round" stroke-miterlimit="10" d="
		M35,24.7c0,1.1-0.9,2.3-2,2.3h-6c-1.7,0-3,1.3-3,3v1"/>
	<path fill="none" stroke="currentColor" stroke-width="2" stroke-linecap="round" stroke-linejoin="round" stroke-miterlimit="10" d="
		M7,31c0-3.3-2.7-6-6-6"/>
	<path fill="none" stroke="currentColor" stroke-width="2" stroke-linecap="round" stroke-linejoin="round" stroke-miterlimit="10" d="
		M29,17L2.3,7.5C1.5,7.2,1,6.4,1,5.6V1h46v14c0,1.1-0.9,2-2,2h-2c0-1.7-3.5-3-7-3C31.6,14,29,15.3,29,17z"/>

		<line fill="none" stroke="currentColor" stroke-width="2" stroke-linecap="round" stroke-linejoin="round" stroke-miterlimit="10" x1="47" y1="5" x2="1" y2="5"/>

		<line fill="none" stroke="currentColor" stroke-width="2" stroke-linecap="round" stroke-linejoin="round" stroke-miterlimit="10" x1="23.8" y1="15.2" x2="26" y2="13"/>

		<line fill="none" stroke="currentColor" stroke-width="2" stroke-linecap="round" stroke-linejoin="round" stroke-miterlimit="10" x1="20.2" y1="13.8" x2="22" y2="12"/>
	<path fill="none" stroke="currentColor" stroke-width="2" stroke-linecap="round" stroke-linejoin="round" stroke-miterlimit="10" d="
		M13,11.3c0-1.1,0.9-2.3,2-2.3h6c1.7,0,3-1.3,3-3V5"/>
	<path fill="none" stroke="currentColor" stroke-width="2" stroke-linecap="round" stroke-linejoin="round" stroke-miterlimit="10" d="
		M41,5c0,3.3,2.7,6,6,6"/>
</g>
</svg>
