<?xml version="1.0" encoding="utf-8"?>
<!-- Generator: Adobe Illustrator 18.1.1, SVG Export Plug-In . SVG Version: 6.00 Build 0)  -->
<!DOCTYPE svg PUBLIC "-//W3C//DTD SVG 1.1//EN" "http://www.w3.org/Graphics/SVG/1.1/DTD/svg11.dtd">
<svg version="1.1" id="Layer_1" xmlns="http://www.w3.org/2000/svg" xmlns:xlink="http://www.w3.org/1999/xlink" x="0px" y="0px"
	 viewBox="475 475 50 50" enable-background="new 475 475 50 50" xml:space="preserve">
<g>
	<path fill="none" stroke="currentColor" stroke-width="2" stroke-linecap="round" stroke-linejoin="round" stroke-miterlimit="10" d="
		M476,524v-11.5c0-1.7,1.4-3.1,3.1-3.1h41.7c1.7,0,3.1,1.4,3.1,3.1V524H476z"/>
	<path fill="none" stroke="currentColor" stroke-width="2" stroke-linecap="round" stroke-linejoin="round" stroke-miterlimit="10" d="
		M521.9,501c0,2.3-1.7,4.2-3.8,4.2h-36.2c-2.1,0-3.8-1.9-3.8-4.2v-20.9c0-2.3,1.7-4.2,3.8-4.2h36.2c2.1,0,3.8,1.9,3.8,4.2V501
		L521.9,501z"/>

		<rect x="482.3" y="480.2" fill="none" stroke="currentColor" stroke-width="2" stroke-linecap="round" stroke-linejoin="round" stroke-miterlimit="10" width="35.5" height="20.9"/>

		<line fill="none" stroke="currentColor" stroke-width="2" stroke-linecap="round" stroke-linejoin="round" stroke-miterlimit="10" x1="480.2" y1="513.6" x2="492.7" y2="513.6"/>

		<line fill="none" stroke="currentColor" stroke-width="2" stroke-linecap="round" stroke-linejoin="round" stroke-miterlimit="10" x1="480.2" y1="517.7" x2="486.4" y2="517.7"/>

		<rect x="501" y="513.6" fill="none" stroke="currentColor" stroke-width="2" stroke-linecap="round" stroke-linejoin="round" stroke-miterlimit="10" width="18.8" height="4.2"/>
</g>
</svg>
