<?xml version="1.0" encoding="utf-8"?>
<!-- Generator: Adobe Illustrator 18.1.1, SVG Export Plug-In . SVG Version: 6.00 Build 0)  -->
<!DOCTYPE svg PUBLIC "-//W3C//DTD SVG 1.1//EN" "http://www.w3.org/Graphics/SVG/1.1/DTD/svg11.dtd">
<svg version="1.1" id="Layer_1" xmlns="http://www.w3.org/2000/svg" xmlns:xlink="http://www.w3.org/1999/xlink" x="0px" y="0px"
	 viewBox="0 0 34 48" enable-background="new 0 0 34 48" xml:space="preserve">
<g>
	<path fill="none" stroke="currentColor" stroke-width="2" stroke-linecap="round" stroke-linejoin="round" stroke-miterlimit="10" d="
		M33,47l-5-7v-9.1c0-3.4-3.2-5.1-7-8.4"/>
	<path fill="none" stroke="currentColor" stroke-width="2" stroke-linecap="round" stroke-linejoin="round" stroke-miterlimit="10" d="
		M24,35l-5.5-5.5c-0.8-0.8-2.2-0.8-3,0c-0.8,0.8-0.8,2.2,0,3L20,39v3.1c0,1.2,0.4,2.5,1.1,3.5l1.1,1.5"/>
	<path fill="none" stroke="currentColor" stroke-width="2" stroke-linecap="round" stroke-linejoin="round" stroke-miterlimit="10" d="
		M15,43H4c-1.6,0-3-1.3-3-3V18c0-1.6,1.4-3,3-3h14c1.6,0,3,1.4,3,3v10"/>
	<path fill="currentColor" d="M7,20c-0.6,0-1,0.4-1,1c0,0.6,0.4,1,1,1s1-0.4,1-1C8,20.4,7.6,20,7,20L7,20z"/>
	<path fill="currentColor" d="M11,20c-0.6,0-1,0.4-1,1c0,0.6,0.4,1,1,1s1-0.4,1-1C12,20.4,11.6,20,11,20L11,20z"/>
	<path fill="currentColor" d="M15,20c-0.6,0-1,0.4-1,1c0,0.6,0.4,1,1,1s1-0.4,1-1C16,20.4,15.6,20,15,20L15,20z"/>
	<path fill="currentColor" d="M7,24c-0.6,0-1,0.4-1,1c0,0.6,0.4,1,1,1s1-0.4,1-1C8,24.4,7.6,24,7,24L7,24z"/>
	<path fill="currentColor" d="M7,28c-0.6,0-1,0.4-1,1c0,0.6,0.4,1,1,1s1-0.4,1-1C8,28.4,7.6,28,7,28L7,28z"/>
	<path fill="currentColor" d="M7,32c-0.6,0-1,0.4-1,1c0,0.6,0.4,1,1,1s1-0.4,1-1C8,32.4,7.6,32,7,32L7,32z"/>
	<path fill="currentColor" d="M7,36c-0.6,0-1,0.4-1,1c0,0.6,0.4,1,1,1s1-0.4,1-1C8,36.4,7.6,36,7,36L7,36z"/>
	<path fill="currentColor" d="M11,24c-0.6,0-1,0.4-1,1c0,0.6,0.4,1,1,1s1-0.4,1-1C12,24.4,11.6,24,11,24L11,24z"/>
	<path fill="currentColor" d="M11,28c-0.6,0-1,0.4-1,1c0,0.6,0.4,1,1,1s1-0.4,1-1C12,28.4,11.6,28,11,28L11,28z"/>
	<path fill="currentColor" d="M11,32c-0.6,0-1,0.4-1,1c0,0.6,0.4,1,1,1s1-0.4,1-1C12,32.4,11.6,32,11,32L11,32z"/>
	<path fill="currentColor" d="M11,36c-0.6,0-1,0.4-1,1c0,0.6,0.4,1,1,1s1-0.4,1-1C12,36.4,11.6,36,11,36L11,36z"/>
	<path fill="currentColor" d="M15,24c-0.6,0-1,0.4-1,1c0,0.6,0.4,1,1,1s1-0.4,1-1C16,24.4,15.6,24,15,24L15,24z"/>
	<path fill="none" stroke="currentColor" stroke-width="2" stroke-linecap="round" stroke-linejoin="round" stroke-miterlimit="10" d="
		M20.6,3.9C17.9,2.1,14.6,1,11.1,1C7.6,1,4.4,2.1,1.7,3.9"/>
	<path fill="none" stroke="currentColor" stroke-width="2" stroke-linecap="round" stroke-linejoin="round" stroke-miterlimit="10" d="
		M18.3,7.2C16.3,5.8,13.8,5,11.1,5S6,5.8,3.9,7.2"/>
	<path fill="none" stroke="currentColor" stroke-width="2" stroke-linecap="round" stroke-linejoin="round" stroke-miterlimit="10" d="
		M16.1,10.5c-1.4-1-3.1-1.5-5-1.5c-1.8,0-3.6,0.6-5,1.5"/>
</g>
</svg>
