<?xml version="1.0" encoding="utf-8"?>
<!-- Generator: Adobe Illustrator 18.1.1, SVG Export Plug-In . SVG Version: 6.00 Build 0)  -->
<!DOCTYPE svg PUBLIC "-//W3C//DTD SVG 1.1//EN" "http://www.w3.org/Graphics/SVG/1.1/DTD/svg11.dtd">
<svg version="1.1" id="Layer_1" xmlns="http://www.w3.org/2000/svg" xmlns:xlink="http://www.w3.org/1999/xlink" x="0px" y="0px"
	 viewBox="0 0 40 48" enable-background="new 0 0 40 48" xml:space="preserve">
<g>
	<path fill="none" stroke="currentColor" stroke-width="2" stroke-linecap="round" stroke-linejoin="round" stroke-miterlimit="10" d="
		M26,21c-0.7,0-1.3-0.3-1.7-0.9c-0.4-0.5-0.4-1.2-0.2-1.9c0.6-1.5,0.9-3.1,0.9-4.7V6c0-2.8-2.2-5-5-5s-5,2.2-5,5v7.6
		c0,1.6,0.3,3.2,0.9,4.7c0.2,0.6,0.2,1.3-0.2,1.9c-0.4,0.5-1,0.9-1.7,0.9H4c-1.7,0-3,1.3-3,3v7h38v-7c0-1.7-1.3-3-3-3H26z"/>

		<polygon fill="none" stroke="currentColor" stroke-width="2" stroke-linecap="round" stroke-linejoin="round" stroke-miterlimit="10" points="
		37,47 12,47 12,39 8,47 3,47 3,31 37,31 	"/>

		<line fill="none" stroke="currentColor" stroke-width="2" stroke-linecap="round" stroke-linejoin="round" stroke-miterlimit="10" x1="33" y1="37" x2="33" y2="47"/>

		<line fill="none" stroke="currentColor" stroke-width="2" stroke-linecap="round" stroke-linejoin="round" stroke-miterlimit="10" x1="29" y1="39" x2="29" y2="47"/>

		<line fill="none" stroke="currentColor" stroke-width="2" stroke-linecap="round" stroke-linejoin="round" stroke-miterlimit="10" x1="25" y1="42" x2="25" y2="47"/>

		<circle fill="none" stroke="currentColor" stroke-width="2" stroke-linecap="round" stroke-linejoin="round" stroke-miterlimit="10" cx="20" cy="6" r="1"/>
</g>
</svg>
