<?xml version="1.0" encoding="utf-8"?>
<!-- Generator: Adobe Illustrator 18.1.1, SVG Export Plug-In . SVG Version: 6.00 Build 0)  -->
<!DOCTYPE svg PUBLIC "-//W3C//DTD SVG 1.1//EN" "http://www.w3.org/Graphics/SVG/1.1/DTD/svg11.dtd">
<svg version="1.1" id="Layer_1" xmlns="http://www.w3.org/2000/svg" xmlns:xlink="http://www.w3.org/1999/xlink" x="0px" y="0px"
	 viewBox="0 0 36 44" enable-background="new 0 0 36 44" xml:space="preserve">
<g>
	<path fill="none" stroke="currentColor" stroke-width="2" stroke-linecap="round" stroke-linejoin="round" stroke-miterlimit="10" d="
		M35,4c-1.1,0-2,0.9-2,2c0,2.2-1.8,4-4,4c-2.2,0-4-1.8-4-4c0-2.8-2.2-5-5-5c-2.8,0-5,2.2-5,5v5"/>
	<path fill="none" stroke="currentColor" stroke-width="2" stroke-linecap="round" stroke-linejoin="round" stroke-miterlimit="10" d="
		M7,34.3c-3.5-5-2.2-11.8,2.7-15.3"/>
	<path fill="none" stroke="currentColor" stroke-width="2" stroke-linecap="round" stroke-linejoin="round" stroke-miterlimit="10" d="
		M21,13.9V11H11v2.9C5.2,15.9,1,21.5,1,28c0,8.3,6.7,15,15,15c8.3,0,15-6.7,15-15C31,21.5,26.8,15.9,21,13.9z"/>
</g>
</svg>
