<?xml version="1.0" encoding="utf-8"?>
<!-- Generator: Adobe Illustrator 16.0.0, SVG Export Plug-In . SVG Version: 6.00 Build 0)  -->
<!DOCTYPE svg PUBLIC "-//W3C//DTD SVG 1.1//EN" "http://www.w3.org/Graphics/SVG/1.1/DTD/svg11.dtd">
<svg version="1.1" xmlns="http://www.w3.org/2000/svg" xmlns:xlink="http://www.w3.org/1999/xlink" x="0px" y="0px" width="110px"
	 height="110px" viewBox="0 0 110 110" enable-background="new 0 0 110 110" xml:space="preserve">
<g id="R-Multicolor">
	<circle fill="#00C853" cx="55" cy="55" r="55"/>
	<g>
		<path fill="#FFFFFF" d="M73.5,23C66.044,23,60,28.289,60,34.813c0,4.874,3.376,9.058,8.192,10.862L66.75,50l6.124-3.403
			c0.209,0.009,0.415,0.028,0.626,0.028c7.456,0,13.5-5.288,13.5-11.813C87,28.289,80.956,23,73.5,23z"/>
		<path fill="#F8E1C2" d="M45.94,87H42.5l-3.28-5.74c1.15-0.01,2.24-0.109,3.271-0.29L45.94,87z"/>
		<path fill="#F8E1C2" d="M51.681,87h-3.44l-3.72-6.51c0.989-0.3,1.92-0.681,2.799-1.12L51.681,87z"/>
		<path fill="#FDD835" d="M62,45.706l-7.362,1.84c1.105,1.803,1.922,3.881,2.439,6.105L62,54.883l-3.441-4.589L62,45.706z"/>
		<path fill="#1565C0" d="M39.06,81.26c-9.18,0-13.77-3.439-16.06-8.02c14.91,4.58,6.88-6.89,6.88-17.21
			c0-8.03,4.59-14.91,13.77-14.91C63.144,41.12,63.159,81.26,39.06,81.26z"/>
		<path fill="#1E88E5" d="M43.647,41.118c-9.177,0-13.766,6.882-13.766,14.911c0,10.323,8.029,21.794-6.882,17.206
			c1.235,2.471,3.146,4.603,6.07,6.05l27.49-27.491C54.604,45.714,50.243,41.118,43.647,41.118z"/>
		<circle fill="#FFFFFF" cx="45.941" cy="50.294" r="2.294"/>
		<circle fill="#5B5C5F" cx="73.5" cy="34.813" r="1.688"/>
		<circle fill="#5B5C5F" cx="66.75" cy="34.813" r="1.688"/>
		<circle fill="#5B5C5F" cx="80.25" cy="34.813" r="1.688"/>
	</g>
</g>
<g id="Multicolor_1_" display="none">
	<g display="inline">
		<path fill="#FFFFFF" d="M73.5,23C66.044,23,60,28.289,60,34.813c0,4.874,3.376,9.058,8.192,10.862L66.75,50l6.124-3.403
			c0.209,0.009,0.415,0.028,0.626,0.028c7.456,0,13.5-5.288,13.5-11.813C87,28.289,80.956,23,73.5,23z"/>
		<path fill="#F8E1C2" d="M45.94,87H42.5l-3.28-5.74c1.15-0.01,2.24-0.109,3.271-0.29L45.94,87z"/>
		<path fill="#F8E1C2" d="M51.681,87h-3.44l-3.72-6.51c0.989-0.3,1.92-0.681,2.799-1.12L51.681,87z"/>
		<path fill="#FDD835" d="M62,45.706l-7.362,1.84c1.105,1.803,1.922,3.881,2.439,6.105L62,54.883l-3.441-4.589L62,45.706z"/>
		<path fill="#1565C0" d="M39.06,81.26c-9.18,0-13.77-3.439-16.06-8.02c14.91,4.58,6.88-6.89,6.88-17.21
			c0-8.03,4.59-14.91,13.77-14.91C63.144,41.12,63.159,81.26,39.06,81.26z"/>
		<path fill="#1E88E5" d="M43.647,41.118c-9.177,0-13.766,6.882-13.766,14.911c0,10.323,8.029,21.794-6.882,17.206
			c1.235,2.471,3.146,4.603,6.07,6.05l27.49-27.491C54.604,45.714,50.243,41.118,43.647,41.118z"/>
		<circle fill="#FFFFFF" cx="45.941" cy="50.294" r="2.294"/>
		<circle fill="#5B5C5F" cx="73.5" cy="34.813" r="1.688"/>
		<circle fill="#5B5C5F" cx="66.75" cy="34.813" r="1.688"/>
		<circle fill="#5B5C5F" cx="80.25" cy="34.813" r="1.688"/>
	</g>
</g>
<g id="Blue" display="none">
	<g display="inline">
		<g>
			<path fill="#FFFFFF" d="M73.5,23C66.044,23,60,28.289,60,34.813c0,4.874,3.375,9.057,8.191,10.862L66.75,50l6.125-3.402
				c0.209,0.008,0.414,0.027,0.625,0.027c7.456,0,13.5-5.289,13.5-11.813S80.956,23,73.5,23z"/>
		</g>
		<g>
			<path fill="#E8EAF6" d="M45.939,87H42.5l-3.279-5.74c1.149-0.01,2.239-0.109,3.27-0.29L45.939,87z"/>
		</g>
		<g>
			<path fill="#E8EAF6" d="M51.68,87H48.24l-3.721-6.51c0.99-0.3,1.92-0.68,2.801-1.12L51.68,87z"/>
		</g>
		<g>
			<path fill="#0D57A1" d="M62,45.706l-7.362,1.841c1.106,1.801,1.922,3.88,2.439,6.104L62,54.883l-3.441-4.589L62,45.706z"/>
		</g>
		<g>
			<path fill="#2962FF" d="M39.061,81.26C29.88,81.26,25.29,77.82,23,73.24c14.91,4.58,6.88-6.891,6.88-17.21
				c0-8.03,4.591-14.91,13.771-14.91C63.143,41.12,63.159,81.26,39.061,81.26z"/>
		</g>
		<g>
			<path fill="#2979FF" d="M43.646,41.117c-9.176,0-13.764,6.883-13.764,14.912c0,10.323,8.029,21.795-6.883,17.206
				c1.235,2.471,3.146,4.603,6.07,6.05l27.49-27.49C54.605,45.714,50.244,41.117,43.646,41.117z"/>
		</g>
		<g>
			<circle fill="#FFFFFF" cx="45.941" cy="50.294" r="2.294"/>
		</g>
		<g>
			<circle fill="#448AFF" cx="73.5" cy="34.813" r="1.688"/>
		</g>
		<g>
			<circle fill="#448AFF" cx="66.75" cy="34.813" r="1.688"/>
		</g>
		<g>
			<circle fill="#448AFF" cx="80.25" cy="34.813" r="1.688"/>
		</g>
	</g>
</g>
<g id="R-Blue" display="none">
	<g display="inline">
		<circle fill="#00B0FF" cx="55" cy="55" r="55"/>
	</g>
	<g display="inline">
		<g>
			<path fill="#FFFFFF" d="M73.5,23C66.044,23,60,28.289,60,34.813c0,4.874,3.375,9.057,8.191,10.862L66.75,50l6.125-3.402
				c0.209,0.008,0.414,0.027,0.625,0.027c7.456,0,13.5-5.289,13.5-11.813S80.956,23,73.5,23z"/>
		</g>
		<g>
			<path fill="#E8EAF6" d="M45.939,87H42.5l-3.279-5.74c1.149-0.01,2.239-0.109,3.27-0.29L45.939,87z"/>
		</g>
		<g>
			<path fill="#E8EAF6" d="M51.68,87H48.24l-3.721-6.51c0.99-0.3,1.92-0.68,2.801-1.12L51.68,87z"/>
		</g>
		<g>
			<path fill="#0D57A1" d="M62,45.706l-7.362,1.841c1.106,1.801,1.922,3.88,2.439,6.104L62,54.883l-3.441-4.589L62,45.706z"/>
		</g>
		<g>
			<path fill="#2962FF" d="M39.061,81.26C29.88,81.26,25.29,77.82,23,73.24c14.91,4.58,6.88-6.891,6.88-17.21
				c0-8.03,4.591-14.91,13.771-14.91C63.143,41.12,63.159,81.26,39.061,81.26z"/>
		</g>
		<g>
			<path fill="#2979FF" d="M43.646,41.117c-9.176,0-13.764,6.883-13.764,14.912c0,10.323,8.029,21.795-6.883,17.206
				c1.235,2.471,3.146,4.603,6.07,6.05l27.49-27.49C54.605,45.714,50.244,41.117,43.646,41.117z"/>
		</g>
		<g>
			<circle fill="#FFFFFF" cx="45.941" cy="50.294" r="2.294"/>
		</g>
		<g>
			<circle fill="#448AFF" cx="73.5" cy="34.813" r="1.688"/>
		</g>
		<g>
			<circle fill="#448AFF" cx="66.75" cy="34.813" r="1.688"/>
		</g>
		<g>
			<circle fill="#448AFF" cx="80.25" cy="34.813" r="1.688"/>
		</g>
	</g>
</g>
<g id="Green" display="none">
	<g display="inline">
		<g>
			<path fill="#FFFFFF" d="M73.5,23C66.044,23,60,28.289,60,34.813c0,4.874,3.375,9.057,8.191,10.862L66.75,50l6.125-3.402
				c0.209,0.008,0.414,0.027,0.625,0.027c7.456,0,13.5-5.289,13.5-11.813S80.956,23,73.5,23z"/>
		</g>
		<g>
			<path fill="#ECF5E1" d="M45.939,87H42.5l-3.279-5.74c1.149-0.01,2.239-0.109,3.27-0.29L45.939,87z"/>
		</g>
		<g>
			<path fill="#ECF5E1" d="M51.68,87H48.24l-3.721-6.51c0.99-0.3,1.92-0.68,2.801-1.12L51.68,87z"/>
		</g>
		<g>
			<path fill="#006E31" d="M62,45.706l-7.362,1.841c1.106,1.801,1.922,3.88,2.439,6.104L62,54.883l-3.441-4.589L62,45.706z"/>
		</g>
		<g>
			<path fill="#00A344" d="M39.061,81.26C29.88,81.26,25.29,77.82,23,73.24c14.91,4.58,6.88-6.891,6.88-17.21
				c0-8.03,4.591-14.91,13.771-14.91C63.143,41.12,63.159,81.26,39.061,81.26z"/>
		</g>
		<g>
			<path fill="#00C250" d="M43.646,41.117c-9.176,0-13.764,6.883-13.764,14.912c0,10.323,8.029,21.795-6.883,17.206
				c1.235,2.471,3.146,4.603,6.07,6.05l27.49-27.49C54.605,45.714,50.244,41.117,43.646,41.117z"/>
		</g>
		<g>
			<circle fill="#FFFFFF" cx="45.941" cy="50.294" r="2.294"/>
		</g>
		<g>
			<circle fill="#00E676" cx="73.5" cy="34.813" r="1.688"/>
		</g>
		<g>
			<circle fill="#00E676" cx="66.75" cy="34.813" r="1.688"/>
		</g>
		<g>
			<circle fill="#00E676" cx="80.25" cy="34.813" r="1.688"/>
		</g>
	</g>
</g>
<g id="R-Green" display="none">
	<g display="inline">
		<circle fill="#64DD17" cx="55" cy="55" r="55"/>
	</g>
	<g display="inline">
		<g>
			<path fill="#FFFFFF" d="M73.5,23C66.044,23,60,28.289,60,34.813c0,4.874,3.375,9.057,8.191,10.862L66.75,50l6.125-3.402
				c0.209,0.008,0.414,0.027,0.625,0.027c7.456,0,13.5-5.289,13.5-11.813S80.956,23,73.5,23z"/>
		</g>
		<g>
			<path fill="#ECF5E1" d="M45.939,87H42.5l-3.279-5.74c1.149-0.01,2.239-0.109,3.27-0.29L45.939,87z"/>
		</g>
		<g>
			<path fill="#ECF5E1" d="M51.68,87H48.24l-3.721-6.51c0.99-0.3,1.92-0.68,2.801-1.12L51.68,87z"/>
		</g>
		<g>
			<path fill="#006E31" d="M62,45.706l-7.362,1.841c1.106,1.801,1.922,3.88,2.439,6.104L62,54.883l-3.441-4.589L62,45.706z"/>
		</g>
		<g>
			<path fill="#00A344" d="M39.061,81.26C29.88,81.26,25.29,77.82,23,73.24c14.91,4.58,6.88-6.891,6.88-17.21
				c0-8.03,4.591-14.91,13.771-14.91C63.143,41.12,63.159,81.26,39.061,81.26z"/>
		</g>
		<g>
			<path fill="#00C250" d="M43.646,41.117c-9.176,0-13.764,6.883-13.764,14.912c0,10.323,8.029,21.795-6.883,17.206
				c1.235,2.471,3.146,4.603,6.07,6.05l27.49-27.49C54.605,45.714,50.244,41.117,43.646,41.117z"/>
		</g>
		<g>
			<circle fill="#FFFFFF" cx="45.941" cy="50.294" r="2.294"/>
		</g>
		<g>
			<circle fill="#00E676" cx="73.5" cy="34.813" r="1.688"/>
		</g>
		<g>
			<circle fill="#00E676" cx="66.75" cy="34.813" r="1.688"/>
		</g>
		<g>
			<circle fill="#00E676" cx="80.25" cy="34.813" r="1.688"/>
		</g>
	</g>
</g>
<g id="Red" display="none">
	<g display="inline">
		<g>
			<path fill="#FFFFFF" d="M73.5,23C66.044,23,60,28.289,60,34.813c0,4.874,3.375,9.057,8.191,10.862L66.75,50l6.125-3.402
				c0.209,0.008,0.414,0.027,0.625,0.027c7.456,0,13.5-5.289,13.5-11.813S80.956,23,73.5,23z"/>
		</g>
		<g>
			<path fill="#FFE4DE" d="M45.939,87H42.5l-3.279-5.74c1.149-0.01,2.239-0.109,3.27-0.29L45.939,87z"/>
		</g>
		<g>
			<path fill="#FFE4DE" d="M51.68,87H48.24l-3.721-6.51c0.99-0.3,1.92-0.68,2.801-1.12L51.68,87z"/>
		</g>
		<g>
			<path fill="#7A1C05" d="M62,45.706l-7.362,1.841c1.106,1.801,1.922,3.88,2.439,6.104L62,54.883l-3.441-4.589L62,45.706z"/>
		</g>
		<g>
			<path fill="#AC2200" d="M39.061,81.26C29.88,81.26,25.29,77.82,23,73.24c14.91,4.58,6.88-6.891,6.88-17.21
				c0-8.03,4.591-14.91,13.771-14.91C63.143,41.12,63.159,81.26,39.061,81.26z"/>
		</g>
		<g>
			<path fill="#D22600" d="M43.646,41.117c-9.176,0-13.764,6.883-13.764,14.912c0,10.323,8.029,21.795-6.883,17.206
				c1.235,2.471,3.146,4.603,6.07,6.05l27.49-27.49C54.605,45.714,50.244,41.117,43.646,41.117z"/>
		</g>
		<g>
			<circle fill="#FFFFFF" cx="45.941" cy="50.294" r="2.294"/>
		</g>
		<g>
			<circle fill="#FF2F00" cx="73.5" cy="34.813" r="1.688"/>
		</g>
		<g>
			<circle fill="#FF2F00" cx="66.75" cy="34.813" r="1.688"/>
		</g>
		<g>
			<circle fill="#FF2F00" cx="80.25" cy="34.813" r="1.688"/>
		</g>
	</g>
</g>
<g id="R-Red" display="none">
	<g display="inline">
		<circle fill="#FF5722" cx="55" cy="55" r="55"/>
	</g>
	<g display="inline">
		<g>
			<path fill="#FFFFFF" d="M73.5,23C66.044,23,60,28.289,60,34.813c0,4.874,3.375,9.057,8.191,10.862L66.75,50l6.125-3.402
				c0.209,0.008,0.414,0.027,0.625,0.027c7.456,0,13.5-5.289,13.5-11.813S80.956,23,73.5,23z"/>
		</g>
		<g>
			<path fill="#FFE4DE" d="M45.939,87H42.5l-3.279-5.74c1.149-0.01,2.239-0.109,3.27-0.29L45.939,87z"/>
		</g>
		<g>
			<path fill="#FFE4DE" d="M51.68,87H48.24l-3.721-6.51c0.99-0.3,1.92-0.68,2.801-1.12L51.68,87z"/>
		</g>
		<g>
			<path fill="#7A1C05" d="M62,45.706l-7.362,1.841c1.106,1.801,1.922,3.88,2.439,6.104L62,54.883l-3.441-4.589L62,45.706z"/>
		</g>
		<g>
			<path fill="#AC2200" d="M39.061,81.26C29.88,81.26,25.29,77.82,23,73.24c14.91,4.58,6.88-6.891,6.88-17.21
				c0-8.03,4.591-14.91,13.771-14.91C63.143,41.12,63.159,81.26,39.061,81.26z"/>
		</g>
		<g>
			<path fill="#D22600" d="M43.646,41.117c-9.176,0-13.764,6.883-13.764,14.912c0,10.323,8.029,21.795-6.883,17.206
				c1.235,2.471,3.146,4.603,6.07,6.05l27.49-27.49C54.605,45.714,50.244,41.117,43.646,41.117z"/>
		</g>
		<g>
			<circle fill="#FFFFFF" cx="45.941" cy="50.294" r="2.294"/>
		</g>
		<g>
			<circle fill="#FF2F00" cx="73.5" cy="34.813" r="1.688"/>
		</g>
		<g>
			<circle fill="#FF2F00" cx="66.75" cy="34.813" r="1.688"/>
		</g>
		<g>
			<circle fill="#FF2F00" cx="80.25" cy="34.813" r="1.688"/>
		</g>
	</g>
</g>
<g id="Yellow" display="none">
	<g display="inline">
		<g>
			<path fill="#FFFFFF" d="M73.5,23C66.044,23,60,28.289,60,34.813c0,4.874,3.375,9.057,8.191,10.862L66.75,50l6.125-3.402
				c0.209,0.008,0.414,0.027,0.625,0.027c7.456,0,13.5-5.289,13.5-11.813S80.956,23,73.5,23z"/>
		</g>
		<g>
			<path fill="#FFF4D1" d="M45.939,87H42.5l-3.279-5.74c1.149-0.01,2.239-0.109,3.27-0.29L45.939,87z"/>
		</g>
		<g>
			<path fill="#FFF4D1" d="M51.68,87H48.24l-3.721-6.51c0.99-0.3,1.92-0.68,2.801-1.12L51.68,87z"/>
		</g>
		<g>
			<path fill="#804B1C" d="M62,45.706l-7.362,1.841c1.106,1.801,1.922,3.88,2.439,6.104L62,54.883l-3.441-4.589L62,45.706z"/>
		</g>
		<g>
			<path fill="#FC6100" d="M39.061,81.26C29.88,81.26,25.29,77.82,23,73.24c14.91,4.58,6.88-6.891,6.88-17.21
				c0-8.03,4.591-14.91,13.771-14.91C63.143,41.12,63.159,81.26,39.061,81.26z"/>
		</g>
		<g>
			<path fill="#FF8000" d="M43.646,41.117c-9.176,0-13.764,6.883-13.764,14.912c0,10.323,8.029,21.795-6.883,17.206
				c1.235,2.471,3.146,4.603,6.07,6.05l27.49-27.49C54.605,45.714,50.244,41.117,43.646,41.117z"/>
		</g>
		<g>
			<circle fill="#FFFFFF" cx="45.941" cy="50.294" r="2.294"/>
		</g>
		<g>
			<circle fill="#FFAA00" cx="73.5" cy="34.813" r="1.688"/>
		</g>
		<g>
			<circle fill="#FFAA00" cx="66.75" cy="34.813" r="1.688"/>
		</g>
		<g>
			<circle fill="#FFAA00" cx="80.25" cy="34.813" r="1.688"/>
		</g>
	</g>
</g>
<g id="R-Yellow" display="none">
	<g display="inline">
		<circle fill="#FFD600" cx="55" cy="55" r="55"/>
	</g>
	<g display="inline">
		<g>
			<path fill="#FFFFFF" d="M73.5,23C66.044,23,60,28.289,60,34.813c0,4.874,3.375,9.057,8.191,10.862L66.75,50l6.125-3.402
				c0.209,0.008,0.414,0.027,0.625,0.027c7.456,0,13.5-5.289,13.5-11.813S80.956,23,73.5,23z"/>
		</g>
		<g>
			<path fill="#FFF4D1" d="M45.939,87H42.5l-3.279-5.74c1.149-0.01,2.239-0.109,3.27-0.29L45.939,87z"/>
		</g>
		<g>
			<path fill="#FFF4D1" d="M51.68,87H48.24l-3.721-6.51c0.99-0.3,1.92-0.68,2.801-1.12L51.68,87z"/>
		</g>
		<g>
			<path fill="#804B1C" d="M62,45.706l-7.362,1.841c1.106,1.801,1.922,3.88,2.439,6.104L62,54.883l-3.441-4.589L62,45.706z"/>
		</g>
		<g>
			<path fill="#FC6100" d="M39.061,81.26C29.88,81.26,25.29,77.82,23,73.24c14.91,4.58,6.88-6.891,6.88-17.21
				c0-8.03,4.591-14.91,13.771-14.91C63.143,41.12,63.159,81.26,39.061,81.26z"/>
		</g>
		<g>
			<path fill="#FF8000" d="M43.646,41.117c-9.176,0-13.764,6.883-13.764,14.912c0,10.323,8.029,21.795-6.883,17.206
				c1.235,2.471,3.146,4.603,6.07,6.05l27.49-27.49C54.605,45.714,50.244,41.117,43.646,41.117z"/>
		</g>
		<g>
			<circle fill="#FFFFFF" cx="45.941" cy="50.294" r="2.294"/>
		</g>
		<g>
			<circle fill="#FFAA00" cx="73.5" cy="34.813" r="1.688"/>
		</g>
		<g>
			<circle fill="#FFAA00" cx="66.75" cy="34.813" r="1.688"/>
		</g>
		<g>
			<circle fill="#FFAA00" cx="80.25" cy="34.813" r="1.688"/>
		</g>
	</g>
</g>
</svg>
