<?xml version="1.0" encoding="utf-8"?>
<!-- Generator: Adobe Illustrator 16.0.0, SVG Export Plug-In . SVG Version: 6.00 Build 0)  -->
<!DOCTYPE svg PUBLIC "-//W3C//DTD SVG 1.1//EN" "http://www.w3.org/Graphics/SVG/1.1/DTD/svg11.dtd">
<svg version="1.1" xmlns="http://www.w3.org/2000/svg" xmlns:xlink="http://www.w3.org/1999/xlink" x="0px" y="0px" width="110px"
	 height="110px" viewBox="0 0 110 110" enable-background="new 0 0 110 110" xml:space="preserve">
<g id="R-Multicolor">
	<g>
		<circle fill="#0091EA" cx="55" cy="55" r="55"/>
	</g>
	<g>
		<g>
			<path fill="#D32F2F" d="M55,35L31,83c0,0,4,4,24,4s24-4,24-4L55,35z"/>
		</g>
		<g>
			<g>
				<polygon fill="#FFFFFF" points="59.293,43.6 47.221,50.568 42.352,60.309 61.982,48.976 				"/>
			</g>
		</g>
		<g>
			<g>
				<polygon fill="#FFFFFF" points="64.961,54.935 36.953,71.104 32.084,80.845 67.649,60.311 				"/>
			</g>
		</g>
		<g>
			<g>
				<path fill="#FFFFFF" d="M70.727,66.464l-33.06,19.087c2.398,0.52,5.606,0.986,9.843,1.245L73.414,71.84L70.727,66.464z"/>
			</g>
		</g>
		<g>
			<g>
				<path fill="#EF5350" d="M55.25,35.5L55,35L31,83c0,0,4,4,24,4c0.086,0,0.164-0.002,0.25-0.002V35.5z"/>
			</g>
		</g>
		<g>
			<g>
				<polygon fill="#F0F0F0" points="59.293,43.6 47.221,50.568 42.352,60.309 61.982,48.976 				"/>
			</g>
		</g>
		<g>
			<g>
				<polygon fill="#FFFFFF" points="55.25,45.934 47.221,50.568 42.352,60.309 55.25,52.861 				"/>
			</g>
		</g>
		<g>
			<g>
				<polygon fill="#F0F0F0" points="64.961,54.935 36.953,71.104 32.084,80.845 67.649,60.311 				"/>
			</g>
		</g>
		<g>
			<g>
				<polygon fill="#FFFFFF" points="55.25,60.542 36.953,71.104 32.084,80.845 55.25,67.47 				"/>
			</g>
		</g>
		<g>
			<g>
				<path fill="#F0F0F0" d="M70.727,66.464l-33.06,19.087c2.398,0.52,5.606,0.986,9.843,1.245L73.414,71.84L70.727,66.464z"/>
			</g>
		</g>
		<g>
			<g>
				<path fill="#FFFFFF" d="M55.25,75.398L37.667,85.551c2.398,0.52,5.606,0.986,9.843,1.245l7.74-4.469V75.398z"/>
			</g>
		</g>
		<g>
			<g>
				<path fill="#F0F0F0" d="M76.471,77.953l-15.452,8.922C75.82,86.178,79,83.011,79,83.011L76.471,77.953z"/>
			</g>
		</g>
		<g>
			<g>
				<path fill="#FDD835" d="M65,33.857c0-0.291-0.127-0.568-0.35-0.759c-0.221-0.189-0.514-0.273-0.803-0.229l-5.893,0.907
					l4.809-3.526c0.234-0.172,0.383-0.439,0.405-0.73s-0.084-0.576-0.29-0.783l-1.615-1.615c-0.207-0.206-0.493-0.312-0.783-0.29
					c-0.291,0.022-0.558,0.171-0.73,0.405l-3.526,4.81l0.907-5.894c0.044-0.289-0.04-0.582-0.23-0.804
					C56.711,25.127,56.434,25,56.142,25h-2.284c-0.291,0-0.568,0.127-0.759,0.349c-0.189,0.222-0.273,0.515-0.229,0.804l0.907,5.894
					l-3.526-4.809c-0.172-0.235-0.439-0.384-0.73-0.406c-0.291-0.021-0.576,0.084-0.783,0.29l-1.615,1.615
					c-0.207,0.207-0.313,0.492-0.289,0.783c0.021,0.291,0.17,0.559,0.405,0.73l4.809,3.526l-5.894-0.907
					c-0.289-0.044-0.582,0.04-0.803,0.229c-0.223,0.19-0.35,0.468-0.35,0.759v2.284c0,0.292,0.127,0.569,0.35,0.759
					c0.221,0.19,0.514,0.274,0.803,0.23l5.894-0.907l-4.809,3.526c-0.235,0.173-0.384,0.439-0.405,0.73
					c-0.023,0.29,0.082,0.577,0.289,0.783l1.615,1.615c0.207,0.206,0.492,0.313,0.783,0.29s0.559-0.171,0.73-0.406l3.526-4.808
					l-0.907,5.893c-0.044,0.289,0.04,0.582,0.229,0.804C53.289,44.873,53.566,45,53.857,45h2.284c0.292,0,0.569-0.127,0.759-0.349
					c0.19-0.222,0.274-0.515,0.23-0.804l-0.907-5.893l3.526,4.808c0.173,0.235,0.439,0.384,0.73,0.406
					c0.29,0.022,0.576-0.084,0.783-0.29l1.615-1.615c0.206-0.206,0.313-0.493,0.29-0.783c-0.022-0.291-0.171-0.558-0.405-0.73
					l-4.809-3.526l5.893,0.907c0.289,0.044,0.582-0.04,0.803-0.23c0.223-0.189,0.35-0.467,0.35-0.759V33.857z"/>
			</g>
		</g>
	</g>
</g>
<g id="Multicolor" display="none">
	<g display="inline">
		<g>
			<path fill="#D32F2F" d="M55,35L31,83c0,0,4,4,24,4s24-4,24-4L55,35z"/>
		</g>
		<g>
			<g>
				<polygon fill="#FFFFFF" points="59.293,43.6 47.221,50.568 42.352,60.309 61.982,48.976 				"/>
			</g>
		</g>
		<g>
			<g>
				<polygon fill="#FFFFFF" points="64.961,54.935 36.953,71.104 32.084,80.845 67.649,60.311 				"/>
			</g>
		</g>
		<g>
			<g>
				<path fill="#FFFFFF" d="M70.727,66.464l-33.06,19.087c2.398,0.52,5.606,0.986,9.843,1.245L73.414,71.84L70.727,66.464z"/>
			</g>
		</g>
		<g>
			<g>
				<path fill="#EF5350" d="M55.25,35.5L55,35L31,83c0,0,4,4,24,4c0.086,0,0.164-0.002,0.25-0.002V35.5z"/>
			</g>
		</g>
		<g>
			<g>
				<polygon fill="#F0F0F0" points="59.293,43.6 47.221,50.568 42.352,60.309 61.982,48.976 				"/>
			</g>
		</g>
		<g>
			<g>
				<polygon fill="#FFFFFF" points="55.25,45.934 47.221,50.568 42.352,60.309 55.25,52.861 				"/>
			</g>
		</g>
		<g>
			<g>
				<polygon fill="#F0F0F0" points="64.961,54.935 36.953,71.104 32.084,80.845 67.649,60.311 				"/>
			</g>
		</g>
		<g>
			<g>
				<polygon fill="#FFFFFF" points="55.25,60.542 36.953,71.104 32.084,80.845 55.25,67.47 				"/>
			</g>
		</g>
		<g>
			<g>
				<path fill="#F0F0F0" d="M70.727,66.464l-33.06,19.087c2.398,0.52,5.606,0.986,9.843,1.245L73.414,71.84L70.727,66.464z"/>
			</g>
		</g>
		<g>
			<g>
				<path fill="#FFFFFF" d="M55.25,75.398L37.667,85.551c2.398,0.52,5.606,0.986,9.843,1.245l7.74-4.469V75.398z"/>
			</g>
		</g>
		<g>
			<g>
				<path fill="#F0F0F0" d="M76.471,77.953l-15.452,8.922C75.82,86.178,79,83.011,79,83.011L76.471,77.953z"/>
			</g>
		</g>
		<g>
			<g>
				<path fill="#FDD835" d="M65,33.857c0-0.291-0.127-0.568-0.35-0.759c-0.221-0.189-0.514-0.273-0.803-0.229l-5.893,0.907
					l4.809-3.526c0.234-0.172,0.383-0.439,0.405-0.73s-0.084-0.576-0.29-0.783l-1.615-1.615c-0.207-0.206-0.493-0.312-0.783-0.29
					c-0.291,0.022-0.558,0.171-0.73,0.405l-3.526,4.81l0.907-5.894c0.044-0.289-0.04-0.582-0.23-0.804
					C56.711,25.127,56.434,25,56.142,25h-2.284c-0.291,0-0.568,0.127-0.759,0.349c-0.189,0.222-0.273,0.515-0.229,0.804l0.907,5.894
					l-3.526-4.809c-0.172-0.235-0.439-0.384-0.73-0.406c-0.291-0.021-0.576,0.084-0.783,0.29l-1.615,1.615
					c-0.207,0.207-0.313,0.492-0.289,0.783c0.021,0.291,0.17,0.559,0.405,0.73l4.809,3.526l-5.894-0.907
					c-0.289-0.044-0.582,0.04-0.803,0.229c-0.223,0.19-0.35,0.468-0.35,0.759v2.284c0,0.292,0.127,0.569,0.35,0.759
					c0.221,0.19,0.514,0.274,0.803,0.23l5.894-0.907l-4.809,3.526c-0.235,0.173-0.384,0.439-0.405,0.73
					c-0.023,0.29,0.082,0.577,0.289,0.783l1.615,1.615c0.207,0.206,0.492,0.313,0.783,0.29s0.559-0.171,0.73-0.406l3.526-4.808
					l-0.907,5.893c-0.044,0.289,0.04,0.582,0.229,0.804C53.289,44.873,53.566,45,53.857,45h2.284c0.292,0,0.569-0.127,0.759-0.349
					c0.19-0.222,0.274-0.515,0.23-0.804l-0.907-5.893l3.526,4.808c0.173,0.235,0.439,0.384,0.73,0.406
					c0.29,0.022,0.576-0.084,0.783-0.29l1.615-1.615c0.206-0.206,0.313-0.493,0.29-0.783c-0.022-0.291-0.171-0.558-0.405-0.73
					l-4.809-3.526l5.893,0.907c0.289,0.044,0.582-0.04,0.803-0.23c0.223-0.189,0.35-0.467,0.35-0.759V33.857z"/>
			</g>
		</g>
	</g>
</g>
<g id="Blue" display="none">
	<g display="inline">
		<path fill="#2962FF" d="M55.125,35l-24,48c0,0,4,4,24,4s24-4,24-4L55.125,35z"/>
		<g>
			<polygon fill="#FFFFFF" points="59.418,43.599 47.346,50.569 42.477,60.309 62.107,48.976 			"/>
		</g>
		<g>
			<polygon fill="#FFFFFF" points="65.086,54.935 37.078,71.104 32.209,80.845 67.775,60.311 			"/>
		</g>
		<g>
			<path fill="#FFFFFF" d="M70.852,66.464L37.793,85.551c2.398,0.521,5.605,0.985,9.842,1.245L73.539,71.84L70.852,66.464z"/>
		</g>
		<g>
			<path fill="#2979FF" d="M55.375,35.5l-0.25-0.5l-24,48c0,0,4,4,24,4c0.086,0,0.164-0.001,0.25-0.001V35.5z"/>
		</g>
		<g>
			<polygon fill="#E8EAF6" points="59.418,43.599 47.346,50.569 42.477,60.309 62.107,48.976 			"/>
		</g>
		<g>
			<polygon fill="#FFFFFF" points="55.375,45.934 47.346,50.569 42.477,60.309 55.375,52.862 			"/>
		</g>
		<g>
			<polygon fill="#E8EAF6" points="65.086,54.935 37.078,71.104 32.209,80.845 67.775,60.311 			"/>
		</g>
		<g>
			<polygon fill="#FFFFFF" points="55.375,60.542 37.078,71.104 32.209,80.845 55.375,67.47 			"/>
		</g>
		<g>
			<path fill="#E8EAF6" d="M70.852,66.464L37.793,85.551c2.398,0.521,5.605,0.985,9.842,1.245L73.539,71.84L70.852,66.464z"/>
		</g>
		<g>
			<path fill="#FFFFFF" d="M55.375,75.399L37.793,85.551c2.398,0.521,5.605,0.985,9.842,1.245l7.74-4.469V75.399z"/>
		</g>
		<g>
			<path fill="#E8EAF6" d="M76.596,77.953l-15.453,8.921c14.803-0.696,17.982-3.863,17.982-3.863L76.596,77.953z"/>
		</g>
		<g>
			<path fill="#FFFFFF" d="M65.125,33.858c0-0.292-0.127-0.569-0.35-0.76c-0.221-0.189-0.514-0.273-0.803-0.229l-5.893,0.906
				l4.809-3.526c0.234-0.173,0.383-0.438,0.406-0.729c0.021-0.292-0.084-0.577-0.291-0.783l-1.615-1.616
				c-0.207-0.206-0.492-0.312-0.783-0.29c-0.291,0.022-0.557,0.171-0.73,0.406l-3.525,4.809l0.906-5.894
				c0.045-0.288-0.039-0.582-0.23-0.804C56.836,25.128,56.559,25,56.268,25h-2.285c-0.291,0-0.568,0.128-0.758,0.349
				c-0.189,0.222-0.273,0.516-0.23,0.804l0.908,5.894l-3.527-4.809c-0.172-0.235-0.439-0.384-0.73-0.406
				c-0.291-0.021-0.576,0.084-0.783,0.291l-1.615,1.615c-0.207,0.206-0.313,0.491-0.289,0.783c0.021,0.29,0.17,0.557,0.406,0.729
				l4.809,3.526l-5.895-0.906c-0.289-0.045-0.582,0.039-0.803,0.229c-0.223,0.19-0.35,0.468-0.35,0.76v2.283
				c0,0.292,0.127,0.569,0.35,0.76c0.221,0.189,0.514,0.273,0.803,0.229l5.895-0.907l-4.809,3.526
				c-0.236,0.173-0.385,0.439-0.406,0.73c-0.023,0.29,0.082,0.577,0.289,0.783l1.615,1.615c0.207,0.206,0.492,0.312,0.783,0.29
				c0.291-0.022,0.559-0.171,0.73-0.406l3.527-4.809l-0.908,5.894c-0.043,0.289,0.041,0.582,0.23,0.804S53.691,45,53.982,45h2.285
				c0.291,0,0.568-0.127,0.758-0.349c0.191-0.222,0.275-0.515,0.23-0.804l-0.906-5.894l3.525,4.809
				c0.174,0.235,0.439,0.384,0.73,0.406c0.291,0.021,0.576-0.084,0.783-0.29l1.615-1.615c0.207-0.206,0.313-0.493,0.291-0.783
				c-0.023-0.291-0.172-0.558-0.406-0.73l-4.809-3.526l5.893,0.907c0.289,0.044,0.582-0.04,0.803-0.229
				c0.223-0.19,0.35-0.468,0.35-0.76V33.858z"/>
		</g>
	</g>
</g>
<g id="R-Blue" display="none">
	<circle display="inline" fill="#00B0FF" cx="55.125" cy="55" r="55"/>
	<g display="inline">
		<path fill="#2962FF" d="M55.125,35l-24,48c0,0,4,4,24,4s24-4,24-4L55.125,35z"/>
		<g>
			<polygon fill="#FFFFFF" points="59.418,43.599 47.346,50.569 42.477,60.309 62.107,48.976 			"/>
		</g>
		<g>
			<polygon fill="#FFFFFF" points="65.086,54.935 37.078,71.104 32.209,80.845 67.775,60.311 			"/>
		</g>
		<g>
			<path fill="#FFFFFF" d="M70.852,66.464L37.793,85.551c2.398,0.521,5.605,0.985,9.842,1.245L73.539,71.84L70.852,66.464z"/>
		</g>
		<g>
			<path fill="#2979FF" d="M55.375,35.5l-0.25-0.5l-24,48c0,0,4,4,24,4c0.086,0,0.164-0.001,0.25-0.001V35.5z"/>
		</g>
		<g>
			<polygon fill="#E8EAF6" points="59.418,43.599 47.346,50.569 42.477,60.309 62.107,48.976 			"/>
		</g>
		<g>
			<polygon fill="#FFFFFF" points="55.375,45.934 47.346,50.569 42.477,60.309 55.375,52.862 			"/>
		</g>
		<g>
			<polygon fill="#E8EAF6" points="65.086,54.935 37.078,71.104 32.209,80.845 67.775,60.311 			"/>
		</g>
		<g>
			<polygon fill="#FFFFFF" points="55.375,60.542 37.078,71.104 32.209,80.845 55.375,67.47 			"/>
		</g>
		<g>
			<path fill="#E8EAF6" d="M70.852,66.464L37.793,85.551c2.398,0.521,5.605,0.985,9.842,1.245L73.539,71.84L70.852,66.464z"/>
		</g>
		<g>
			<path fill="#FFFFFF" d="M55.375,75.399L37.793,85.551c2.398,0.521,5.605,0.985,9.842,1.245l7.74-4.469V75.399z"/>
		</g>
		<g>
			<path fill="#E8EAF6" d="M76.596,77.953l-15.453,8.921c14.803-0.696,17.982-3.863,17.982-3.863L76.596,77.953z"/>
		</g>
		<g>
			<path fill="#FFFFFF" d="M65.125,33.858c0-0.292-0.127-0.569-0.35-0.76c-0.221-0.189-0.514-0.273-0.803-0.229l-5.893,0.906
				l4.809-3.526c0.234-0.173,0.383-0.438,0.406-0.729c0.021-0.292-0.084-0.577-0.291-0.783l-1.615-1.616
				c-0.207-0.206-0.492-0.312-0.783-0.29c-0.291,0.022-0.557,0.171-0.73,0.406l-3.525,4.809l0.906-5.894
				c0.045-0.288-0.039-0.582-0.23-0.804C56.836,25.128,56.559,25,56.268,25h-2.285c-0.291,0-0.568,0.128-0.758,0.349
				c-0.189,0.222-0.273,0.516-0.23,0.804l0.908,5.894l-3.527-4.809c-0.172-0.235-0.439-0.384-0.73-0.406
				c-0.291-0.021-0.576,0.084-0.783,0.291l-1.615,1.615c-0.207,0.206-0.313,0.491-0.289,0.783c0.021,0.29,0.17,0.557,0.406,0.729
				l4.809,3.526l-5.895-0.906c-0.289-0.045-0.582,0.039-0.803,0.229c-0.223,0.19-0.35,0.468-0.35,0.76v2.283
				c0,0.292,0.127,0.569,0.35,0.76c0.221,0.189,0.514,0.273,0.803,0.229l5.895-0.907l-4.809,3.526
				c-0.236,0.173-0.385,0.439-0.406,0.73c-0.023,0.29,0.082,0.577,0.289,0.783l1.615,1.615c0.207,0.206,0.492,0.312,0.783,0.29
				c0.291-0.022,0.559-0.171,0.73-0.406l3.527-4.809l-0.908,5.894c-0.043,0.289,0.041,0.582,0.23,0.804S53.691,45,53.982,45h2.285
				c0.291,0,0.568-0.127,0.758-0.349c0.191-0.222,0.275-0.515,0.23-0.804l-0.906-5.894l3.525,4.809
				c0.174,0.235,0.439,0.384,0.73,0.406c0.291,0.021,0.576-0.084,0.783-0.29l1.615-1.615c0.207-0.206,0.313-0.493,0.291-0.783
				c-0.023-0.291-0.172-0.558-0.406-0.73l-4.809-3.526l5.893,0.907c0.289,0.044,0.582-0.04,0.803-0.229
				c0.223-0.19,0.35-0.468,0.35-0.76V33.858z"/>
		</g>
	</g>
</g>
<g id="Green" display="none">
	<g display="inline">
		<path fill="#00A344" d="M55.125,35l-24,48c0,0,4,4,24,4s24-4,24-4L55.125,35z"/>
		<g>
			<polygon fill="#FFFFFF" points="59.418,43.599 47.346,50.569 42.477,60.309 62.107,48.976 			"/>
		</g>
		<g>
			<polygon fill="#FFFFFF" points="65.086,54.935 37.078,71.104 32.209,80.845 67.775,60.311 			"/>
		</g>
		<g>
			<path fill="#FFFFFF" d="M70.852,66.464L37.793,85.551c2.398,0.521,5.605,0.985,9.842,1.245L73.539,71.84L70.852,66.464z"/>
		</g>
		<g>
			<path fill="#00C250" d="M55.375,35.5l-0.25-0.5l-24,48c0,0,4,4,24,4c0.086,0,0.164-0.001,0.25-0.001V35.5z"/>
		</g>
		<g>
			<polygon fill="#ECF5E1" points="59.418,43.599 47.346,50.569 42.477,60.309 62.107,48.976 			"/>
		</g>
		<g>
			<polygon fill="#FFFFFF" points="55.375,45.934 47.346,50.569 42.477,60.309 55.375,52.862 			"/>
		</g>
		<g>
			<polygon fill="#ECF5E1" points="65.086,54.935 37.078,71.104 32.209,80.845 67.775,60.311 			"/>
		</g>
		<g>
			<polygon fill="#FFFFFF" points="55.375,60.542 37.078,71.104 32.209,80.845 55.375,67.47 			"/>
		</g>
		<g>
			<path fill="#ECF5E1" d="M70.852,66.464L37.793,85.551c2.398,0.521,5.605,0.985,9.842,1.245L73.539,71.84L70.852,66.464z"/>
		</g>
		<g>
			<path fill="#FFFFFF" d="M55.375,75.399L37.793,85.551c2.398,0.521,5.605,0.985,9.842,1.245l7.74-4.469V75.399z"/>
		</g>
		<g>
			<path fill="#ECF5E1" d="M76.596,77.953l-15.453,8.921c14.803-0.696,17.982-3.863,17.982-3.863L76.596,77.953z"/>
		</g>
		<g>
			<path fill="#FFFFFF" d="M65.125,33.858c0-0.292-0.127-0.569-0.35-0.76c-0.221-0.189-0.514-0.273-0.803-0.229l-5.893,0.906
				l4.809-3.526c0.234-0.173,0.383-0.438,0.406-0.729c0.021-0.292-0.084-0.577-0.291-0.783l-1.615-1.616
				c-0.207-0.206-0.492-0.312-0.783-0.29c-0.291,0.022-0.557,0.171-0.73,0.406l-3.525,4.809l0.906-5.894
				c0.045-0.288-0.039-0.582-0.23-0.804C56.836,25.128,56.559,25,56.268,25h-2.285c-0.291,0-0.568,0.128-0.758,0.349
				c-0.189,0.222-0.273,0.516-0.23,0.804l0.908,5.894l-3.527-4.809c-0.172-0.235-0.439-0.384-0.73-0.406
				c-0.291-0.021-0.576,0.084-0.783,0.291l-1.615,1.615c-0.207,0.206-0.313,0.491-0.289,0.783c0.021,0.29,0.17,0.557,0.406,0.729
				l4.809,3.526l-5.895-0.906c-0.289-0.045-0.582,0.039-0.803,0.229c-0.223,0.19-0.35,0.468-0.35,0.76v2.283
				c0,0.292,0.127,0.569,0.35,0.76c0.221,0.189,0.514,0.273,0.803,0.229l5.895-0.907l-4.809,3.526
				c-0.236,0.173-0.385,0.439-0.406,0.73c-0.023,0.29,0.082,0.577,0.289,0.783l1.615,1.615c0.207,0.206,0.492,0.312,0.783,0.29
				c0.291-0.022,0.559-0.171,0.73-0.406l3.527-4.809l-0.908,5.894c-0.043,0.289,0.041,0.582,0.23,0.804S53.691,45,53.982,45h2.285
				c0.291,0,0.568-0.127,0.758-0.349c0.191-0.222,0.275-0.515,0.23-0.804l-0.906-5.894l3.525,4.809
				c0.174,0.235,0.439,0.384,0.73,0.406c0.291,0.021,0.576-0.084,0.783-0.29l1.615-1.615c0.207-0.206,0.313-0.493,0.291-0.783
				c-0.023-0.291-0.172-0.558-0.406-0.73l-4.809-3.526l5.893,0.907c0.289,0.044,0.582-0.04,0.803-0.229
				c0.223-0.19,0.35-0.468,0.35-0.76V33.858z"/>
		</g>
	</g>
</g>
<g id="R-Green" display="none">
	<circle display="inline" fill="#64DD17" cx="55.125" cy="55" r="55"/>
	<g display="inline">
		<path fill="#00A344" d="M55.125,35l-24,48c0,0,4,4,24,4s24-4,24-4L55.125,35z"/>
		<g>
			<polygon fill="#FFFFFF" points="59.418,43.599 47.346,50.569 42.477,60.309 62.107,48.976 			"/>
		</g>
		<g>
			<polygon fill="#FFFFFF" points="65.086,54.935 37.078,71.104 32.209,80.845 67.775,60.311 			"/>
		</g>
		<g>
			<path fill="#FFFFFF" d="M70.852,66.464L37.793,85.551c2.398,0.521,5.605,0.985,9.842,1.245L73.539,71.84L70.852,66.464z"/>
		</g>
		<g>
			<path fill="#00C250" d="M55.375,35.5l-0.25-0.5l-24,48c0,0,4,4,24,4c0.086,0,0.164-0.001,0.25-0.001V35.5z"/>
		</g>
		<g>
			<polygon fill="#ECF5E1" points="59.418,43.599 47.346,50.569 42.477,60.309 62.107,48.976 			"/>
		</g>
		<g>
			<polygon fill="#FFFFFF" points="55.375,45.934 47.346,50.569 42.477,60.309 55.375,52.862 			"/>
		</g>
		<g>
			<polygon fill="#ECF5E1" points="65.086,54.935 37.078,71.104 32.209,80.845 67.775,60.311 			"/>
		</g>
		<g>
			<polygon fill="#FFFFFF" points="55.375,60.542 37.078,71.104 32.209,80.845 55.375,67.47 			"/>
		</g>
		<g>
			<path fill="#ECF5E1" d="M70.852,66.464L37.793,85.551c2.398,0.521,5.605,0.985,9.842,1.245L73.539,71.84L70.852,66.464z"/>
		</g>
		<g>
			<path fill="#FFFFFF" d="M55.375,75.399L37.793,85.551c2.398,0.521,5.605,0.985,9.842,1.245l7.74-4.469V75.399z"/>
		</g>
		<g>
			<path fill="#ECF5E1" d="M76.596,77.953l-15.453,8.921c14.803-0.696,17.982-3.863,17.982-3.863L76.596,77.953z"/>
		</g>
		<g>
			<path fill="#FFFFFF" d="M65.125,33.858c0-0.292-0.127-0.569-0.35-0.76c-0.221-0.189-0.514-0.273-0.803-0.229l-5.893,0.906
				l4.809-3.526c0.234-0.173,0.383-0.438,0.406-0.729c0.021-0.292-0.084-0.577-0.291-0.783l-1.615-1.616
				c-0.207-0.206-0.492-0.312-0.783-0.29c-0.291,0.022-0.557,0.171-0.73,0.406l-3.525,4.809l0.906-5.894
				c0.045-0.288-0.039-0.582-0.23-0.804C56.836,25.128,56.559,25,56.268,25h-2.285c-0.291,0-0.568,0.128-0.758,0.349
				c-0.189,0.222-0.273,0.516-0.23,0.804l0.908,5.894l-3.527-4.809c-0.172-0.235-0.439-0.384-0.73-0.406
				c-0.291-0.021-0.576,0.084-0.783,0.291l-1.615,1.615c-0.207,0.206-0.313,0.491-0.289,0.783c0.021,0.29,0.17,0.557,0.406,0.729
				l4.809,3.526l-5.895-0.906c-0.289-0.045-0.582,0.039-0.803,0.229c-0.223,0.19-0.35,0.468-0.35,0.76v2.283
				c0,0.292,0.127,0.569,0.35,0.76c0.221,0.189,0.514,0.273,0.803,0.229l5.895-0.907l-4.809,3.526
				c-0.236,0.173-0.385,0.439-0.406,0.73c-0.023,0.29,0.082,0.577,0.289,0.783l1.615,1.615c0.207,0.206,0.492,0.312,0.783,0.29
				c0.291-0.022,0.559-0.171,0.73-0.406l3.527-4.809l-0.908,5.894c-0.043,0.289,0.041,0.582,0.23,0.804S53.691,45,53.982,45h2.285
				c0.291,0,0.568-0.127,0.758-0.349c0.191-0.222,0.275-0.515,0.23-0.804l-0.906-5.894l3.525,4.809
				c0.174,0.235,0.439,0.384,0.73,0.406c0.291,0.021,0.576-0.084,0.783-0.29l1.615-1.615c0.207-0.206,0.313-0.493,0.291-0.783
				c-0.023-0.291-0.172-0.558-0.406-0.73l-4.809-3.526l5.893,0.907c0.289,0.044,0.582-0.04,0.803-0.229
				c0.223-0.19,0.35-0.468,0.35-0.76V33.858z"/>
		</g>
	</g>
</g>
<g id="Red" display="none">
	<g display="inline">
		<path fill="#AC2200" d="M55.125,35l-24,48c0,0,4,4,24,4s24-4,24-4L55.125,35z"/>
		<g>
			<polygon fill="#FFFFFF" points="59.418,43.599 47.346,50.569 42.477,60.309 62.107,48.976 			"/>
		</g>
		<g>
			<polygon fill="#FFFFFF" points="65.086,54.935 37.078,71.104 32.209,80.845 67.775,60.311 			"/>
		</g>
		<g>
			<path fill="#FFFFFF" d="M70.852,66.464L37.793,85.551c2.398,0.521,5.605,0.985,9.842,1.245L73.539,71.84L70.852,66.464z"/>
		</g>
		<g>
			<path fill="#D22600" d="M55.375,35.5l-0.25-0.5l-24,48c0,0,4,4,24,4c0.086,0,0.164-0.001,0.25-0.001V35.5z"/>
		</g>
		<g>
			<polygon fill="#FFE4DE" points="59.418,43.599 47.346,50.569 42.477,60.309 62.107,48.976 			"/>
		</g>
		<g>
			<polygon fill="#FFFFFF" points="55.375,45.934 47.346,50.569 42.477,60.309 55.375,52.862 			"/>
		</g>
		<g>
			<polygon fill="#FFE4DE" points="65.086,54.935 37.078,71.104 32.209,80.845 67.775,60.311 			"/>
		</g>
		<g>
			<polygon fill="#FFFFFF" points="55.375,60.542 37.078,71.104 32.209,80.845 55.375,67.47 			"/>
		</g>
		<g>
			<path fill="#FFE4DE" d="M70.852,66.464L37.793,85.551c2.398,0.521,5.605,0.985,9.842,1.245L73.539,71.84L70.852,66.464z"/>
		</g>
		<g>
			<path fill="#FFFFFF" d="M55.375,75.399L37.793,85.551c2.398,0.521,5.605,0.985,9.842,1.245l7.74-4.469V75.399z"/>
		</g>
		<g>
			<path fill="#FFE4DE" d="M76.596,77.953l-15.453,8.921c14.803-0.696,17.982-3.863,17.982-3.863L76.596,77.953z"/>
		</g>
		<g>
			<path fill="#FFFFFF" d="M65.125,33.858c0-0.292-0.127-0.569-0.35-0.76c-0.221-0.189-0.514-0.273-0.803-0.229l-5.893,0.906
				l4.809-3.526c0.234-0.173,0.383-0.438,0.406-0.729c0.021-0.292-0.084-0.577-0.291-0.783l-1.615-1.616
				c-0.207-0.206-0.492-0.312-0.783-0.29c-0.291,0.022-0.557,0.171-0.73,0.406l-3.525,4.809l0.906-5.894
				c0.045-0.288-0.039-0.582-0.23-0.804C56.836,25.128,56.559,25,56.268,25h-2.285c-0.291,0-0.568,0.128-0.758,0.349
				c-0.189,0.222-0.273,0.516-0.23,0.804l0.908,5.894l-3.527-4.809c-0.172-0.235-0.439-0.384-0.73-0.406
				c-0.291-0.021-0.576,0.084-0.783,0.291l-1.615,1.615c-0.207,0.206-0.313,0.491-0.289,0.783c0.021,0.29,0.17,0.557,0.406,0.729
				l4.809,3.526l-5.895-0.906c-0.289-0.045-0.582,0.039-0.803,0.229c-0.223,0.19-0.35,0.468-0.35,0.76v2.283
				c0,0.292,0.127,0.569,0.35,0.76c0.221,0.189,0.514,0.273,0.803,0.229l5.895-0.907l-4.809,3.526
				c-0.236,0.173-0.385,0.439-0.406,0.73c-0.023,0.29,0.082,0.577,0.289,0.783l1.615,1.615c0.207,0.206,0.492,0.312,0.783,0.29
				c0.291-0.022,0.559-0.171,0.73-0.406l3.527-4.809l-0.908,5.894c-0.043,0.289,0.041,0.582,0.23,0.804S53.691,45,53.982,45h2.285
				c0.291,0,0.568-0.127,0.758-0.349c0.191-0.222,0.275-0.515,0.23-0.804l-0.906-5.894l3.525,4.809
				c0.174,0.235,0.439,0.384,0.73,0.406c0.291,0.021,0.576-0.084,0.783-0.29l1.615-1.615c0.207-0.206,0.313-0.493,0.291-0.783
				c-0.023-0.291-0.172-0.558-0.406-0.73l-4.809-3.526l5.893,0.907c0.289,0.044,0.582-0.04,0.803-0.229
				c0.223-0.19,0.35-0.468,0.35-0.76V33.858z"/>
		</g>
	</g>
</g>
<g id="R-Red" display="none">
	<circle display="inline" fill="#FF5722" cx="55.125" cy="55" r="55"/>
	<g display="inline">
		<path fill="#AC2200" d="M55.125,35l-24,48c0,0,4,4,24,4s24-4,24-4L55.125,35z"/>
		<g>
			<polygon fill="#FFFFFF" points="59.418,43.599 47.346,50.569 42.477,60.309 62.107,48.976 			"/>
		</g>
		<g>
			<polygon fill="#FFFFFF" points="65.086,54.935 37.078,71.104 32.209,80.845 67.775,60.311 			"/>
		</g>
		<g>
			<path fill="#FFFFFF" d="M70.852,66.464L37.793,85.551c2.398,0.521,5.605,0.985,9.842,1.245L73.539,71.84L70.852,66.464z"/>
		</g>
		<g>
			<path fill="#D22600" d="M55.375,35.5l-0.25-0.5l-24,48c0,0,4,4,24,4c0.086,0,0.164-0.001,0.25-0.001V35.5z"/>
		</g>
		<g>
			<polygon fill="#FFE4DE" points="59.418,43.599 47.346,50.569 42.477,60.309 62.107,48.976 			"/>
		</g>
		<g>
			<polygon fill="#FFFFFF" points="55.375,45.934 47.346,50.569 42.477,60.309 55.375,52.862 			"/>
		</g>
		<g>
			<polygon fill="#FFE4DE" points="65.086,54.935 37.078,71.104 32.209,80.845 67.775,60.311 			"/>
		</g>
		<g>
			<polygon fill="#FFFFFF" points="55.375,60.542 37.078,71.104 32.209,80.845 55.375,67.47 			"/>
		</g>
		<g>
			<path fill="#FFE4DE" d="M70.852,66.464L37.793,85.551c2.398,0.521,5.605,0.985,9.842,1.245L73.539,71.84L70.852,66.464z"/>
		</g>
		<g>
			<path fill="#FFFFFF" d="M55.375,75.399L37.793,85.551c2.398,0.521,5.605,0.985,9.842,1.245l7.74-4.469V75.399z"/>
		</g>
		<g>
			<path fill="#FFE4DE" d="M76.596,77.953l-15.453,8.921c14.803-0.696,17.982-3.863,17.982-3.863L76.596,77.953z"/>
		</g>
		<g>
			<path fill="#FFFFFF" d="M65.125,33.858c0-0.292-0.127-0.569-0.35-0.76c-0.221-0.189-0.514-0.273-0.803-0.229l-5.893,0.906
				l4.809-3.526c0.234-0.173,0.383-0.438,0.406-0.729c0.021-0.292-0.084-0.577-0.291-0.783l-1.615-1.616
				c-0.207-0.206-0.492-0.312-0.783-0.29c-0.291,0.022-0.557,0.171-0.73,0.406l-3.525,4.809l0.906-5.894
				c0.045-0.288-0.039-0.582-0.23-0.804C56.836,25.128,56.559,25,56.268,25h-2.285c-0.291,0-0.568,0.128-0.758,0.349
				c-0.189,0.222-0.273,0.516-0.23,0.804l0.908,5.894l-3.527-4.809c-0.172-0.235-0.439-0.384-0.73-0.406
				c-0.291-0.021-0.576,0.084-0.783,0.291l-1.615,1.615c-0.207,0.206-0.313,0.491-0.289,0.783c0.021,0.29,0.17,0.557,0.406,0.729
				l4.809,3.526l-5.895-0.906c-0.289-0.045-0.582,0.039-0.803,0.229c-0.223,0.19-0.35,0.468-0.35,0.76v2.283
				c0,0.292,0.127,0.569,0.35,0.76c0.221,0.189,0.514,0.273,0.803,0.229l5.895-0.907l-4.809,3.526
				c-0.236,0.173-0.385,0.439-0.406,0.73c-0.023,0.29,0.082,0.577,0.289,0.783l1.615,1.615c0.207,0.206,0.492,0.312,0.783,0.29
				c0.291-0.022,0.559-0.171,0.73-0.406l3.527-4.809l-0.908,5.894c-0.043,0.289,0.041,0.582,0.23,0.804S53.691,45,53.982,45h2.285
				c0.291,0,0.568-0.127,0.758-0.349c0.191-0.222,0.275-0.515,0.23-0.804l-0.906-5.894l3.525,4.809
				c0.174,0.235,0.439,0.384,0.73,0.406c0.291,0.021,0.576-0.084,0.783-0.29l1.615-1.615c0.207-0.206,0.313-0.493,0.291-0.783
				c-0.023-0.291-0.172-0.558-0.406-0.73l-4.809-3.526l5.893,0.907c0.289,0.044,0.582-0.04,0.803-0.229
				c0.223-0.19,0.35-0.468,0.35-0.76V33.858z"/>
		</g>
	</g>
</g>
<g id="Yellow" display="none">
	<g display="inline">
		<path fill="#FC6100" d="M55.125,35l-24,48c0,0,4,4,24,4s24-4,24-4L55.125,35z"/>
		<g>
			<polygon fill="#FFFFFF" points="59.418,43.599 47.346,50.569 42.477,60.309 62.107,48.976 			"/>
		</g>
		<g>
			<polygon fill="#FFFFFF" points="65.086,54.935 37.078,71.104 32.209,80.845 67.775,60.311 			"/>
		</g>
		<g>
			<path fill="#FFFFFF" d="M70.852,66.464L37.793,85.551c2.398,0.521,5.605,0.985,9.842,1.245L73.539,71.84L70.852,66.464z"/>
		</g>
		<g>
			<path fill="#FF8000" d="M55.375,35.5l-0.25-0.5l-24,48c0,0,4,4,24,4c0.086,0,0.164-0.001,0.25-0.001V35.5z"/>
		</g>
		<g>
			<polygon fill="#FFF4D1" points="59.418,43.599 47.346,50.569 42.477,60.309 62.107,48.976 			"/>
		</g>
		<g>
			<polygon fill="#FFFFFF" points="55.375,45.934 47.346,50.569 42.477,60.309 55.375,52.862 			"/>
		</g>
		<g>
			<polygon fill="#FFF4D1" points="65.086,54.935 37.078,71.104 32.209,80.845 67.775,60.311 			"/>
		</g>
		<g>
			<polygon fill="#FFFFFF" points="55.375,60.542 37.078,71.104 32.209,80.845 55.375,67.47 			"/>
		</g>
		<g>
			<path fill="#FFF4D1" d="M70.852,66.464L37.793,85.551c2.398,0.521,5.605,0.985,9.842,1.245L73.539,71.84L70.852,66.464z"/>
		</g>
		<g>
			<path fill="#FFFFFF" d="M55.375,75.399L37.793,85.551c2.398,0.521,5.605,0.985,9.842,1.245l7.74-4.469V75.399z"/>
		</g>
		<g>
			<path fill="#FFF4D1" d="M76.596,77.953l-15.453,8.921c14.803-0.696,17.982-3.863,17.982-3.863L76.596,77.953z"/>
		</g>
		<g>
			<path fill="#FFFFFF" d="M65.125,33.858c0-0.292-0.127-0.569-0.35-0.76c-0.221-0.189-0.514-0.273-0.803-0.229l-5.893,0.906
				l4.809-3.526c0.234-0.173,0.383-0.438,0.406-0.729c0.021-0.292-0.084-0.577-0.291-0.783l-1.615-1.616
				c-0.207-0.206-0.492-0.312-0.783-0.29c-0.291,0.022-0.557,0.171-0.73,0.406l-3.525,4.809l0.906-5.894
				c0.045-0.288-0.039-0.582-0.23-0.804C56.836,25.128,56.559,25,56.268,25h-2.285c-0.291,0-0.568,0.128-0.758,0.349
				c-0.189,0.222-0.273,0.516-0.23,0.804l0.908,5.894l-3.527-4.809c-0.172-0.235-0.439-0.384-0.73-0.406
				c-0.291-0.021-0.576,0.084-0.783,0.291l-1.615,1.615c-0.207,0.206-0.313,0.491-0.289,0.783c0.021,0.29,0.17,0.557,0.406,0.729
				l4.809,3.526l-5.895-0.906c-0.289-0.045-0.582,0.039-0.803,0.229c-0.223,0.19-0.35,0.468-0.35,0.76v2.283
				c0,0.292,0.127,0.569,0.35,0.76c0.221,0.189,0.514,0.273,0.803,0.229l5.895-0.907l-4.809,3.526
				c-0.236,0.173-0.385,0.439-0.406,0.73c-0.023,0.29,0.082,0.577,0.289,0.783l1.615,1.615c0.207,0.206,0.492,0.312,0.783,0.29
				c0.291-0.022,0.559-0.171,0.73-0.406l3.527-4.809l-0.908,5.894c-0.043,0.289,0.041,0.582,0.23,0.804S53.691,45,53.982,45h2.285
				c0.291,0,0.568-0.127,0.758-0.349c0.191-0.222,0.275-0.515,0.23-0.804l-0.906-5.894l3.525,4.809
				c0.174,0.235,0.439,0.384,0.73,0.406c0.291,0.021,0.576-0.084,0.783-0.29l1.615-1.615c0.207-0.206,0.313-0.493,0.291-0.783
				c-0.023-0.291-0.172-0.558-0.406-0.73l-4.809-3.526l5.893,0.907c0.289,0.044,0.582-0.04,0.803-0.229
				c0.223-0.19,0.35-0.468,0.35-0.76V33.858z"/>
		</g>
	</g>
</g>
<g id="R-Yellow" display="none">
	<circle display="inline" fill="#FFD600" cx="55.125" cy="55" r="55"/>
	<g display="inline">
		<path fill="#FC6100" d="M55.125,35l-24,48c0,0,4,4,24,4s24-4,24-4L55.125,35z"/>
		<g>
			<polygon fill="#FFFFFF" points="59.418,43.599 47.346,50.569 42.477,60.309 62.107,48.976 			"/>
		</g>
		<g>
			<polygon fill="#FFFFFF" points="65.086,54.935 37.078,71.104 32.209,80.845 67.775,60.311 			"/>
		</g>
		<g>
			<path fill="#FFFFFF" d="M70.852,66.464L37.793,85.551c2.398,0.521,5.605,0.985,9.842,1.245L73.539,71.84L70.852,66.464z"/>
		</g>
		<g>
			<path fill="#FF8000" d="M55.375,35.5l-0.25-0.5l-24,48c0,0,4,4,24,4c0.086,0,0.164-0.001,0.25-0.001V35.5z"/>
		</g>
		<g>
			<polygon fill="#FFF4D1" points="59.418,43.599 47.346,50.569 42.477,60.309 62.107,48.976 			"/>
		</g>
		<g>
			<polygon fill="#FFFFFF" points="55.375,45.934 47.346,50.569 42.477,60.309 55.375,52.862 			"/>
		</g>
		<g>
			<polygon fill="#FFF4D1" points="65.086,54.935 37.078,71.104 32.209,80.845 67.775,60.311 			"/>
		</g>
		<g>
			<polygon fill="#FFFFFF" points="55.375,60.542 37.078,71.104 32.209,80.845 55.375,67.47 			"/>
		</g>
		<g>
			<path fill="#FFF4D1" d="M70.852,66.464L37.793,85.551c2.398,0.521,5.605,0.985,9.842,1.245L73.539,71.84L70.852,66.464z"/>
		</g>
		<g>
			<path fill="#FFFFFF" d="M55.375,75.399L37.793,85.551c2.398,0.521,5.605,0.985,9.842,1.245l7.74-4.469V75.399z"/>
		</g>
		<g>
			<path fill="#FFF4D1" d="M76.596,77.953l-15.453,8.921c14.803-0.696,17.982-3.863,17.982-3.863L76.596,77.953z"/>
		</g>
		<g>
			<path fill="#FFFFFF" d="M65.125,33.858c0-0.292-0.127-0.569-0.35-0.76c-0.221-0.189-0.514-0.273-0.803-0.229l-5.893,0.906
				l4.809-3.526c0.234-0.173,0.383-0.438,0.406-0.729c0.021-0.292-0.084-0.577-0.291-0.783l-1.615-1.616
				c-0.207-0.206-0.492-0.312-0.783-0.29c-0.291,0.022-0.557,0.171-0.73,0.406l-3.525,4.809l0.906-5.894
				c0.045-0.288-0.039-0.582-0.23-0.804C56.836,25.128,56.559,25,56.268,25h-2.285c-0.291,0-0.568,0.128-0.758,0.349
				c-0.189,0.222-0.273,0.516-0.23,0.804l0.908,5.894l-3.527-4.809c-0.172-0.235-0.439-0.384-0.73-0.406
				c-0.291-0.021-0.576,0.084-0.783,0.291l-1.615,1.615c-0.207,0.206-0.313,0.491-0.289,0.783c0.021,0.29,0.17,0.557,0.406,0.729
				l4.809,3.526l-5.895-0.906c-0.289-0.045-0.582,0.039-0.803,0.229c-0.223,0.19-0.35,0.468-0.35,0.76v2.283
				c0,0.292,0.127,0.569,0.35,0.76c0.221,0.189,0.514,0.273,0.803,0.229l5.895-0.907l-4.809,3.526
				c-0.236,0.173-0.385,0.439-0.406,0.73c-0.023,0.29,0.082,0.577,0.289,0.783l1.615,1.615c0.207,0.206,0.492,0.312,0.783,0.29
				c0.291-0.022,0.559-0.171,0.73-0.406l3.527-4.809l-0.908,5.894c-0.043,0.289,0.041,0.582,0.23,0.804S53.691,45,53.982,45h2.285
				c0.291,0,0.568-0.127,0.758-0.349c0.191-0.222,0.275-0.515,0.23-0.804l-0.906-5.894l3.525,4.809
				c0.174,0.235,0.439,0.384,0.73,0.406c0.291,0.021,0.576-0.084,0.783-0.29l1.615-1.615c0.207-0.206,0.313-0.493,0.291-0.783
				c-0.023-0.291-0.172-0.558-0.406-0.73l-4.809-3.526l5.893,0.907c0.289,0.044,0.582-0.04,0.803-0.229
				c0.223-0.19,0.35-0.468,0.35-0.76V33.858z"/>
		</g>
	</g>
</g>
</svg>
