<?xml version="1.0" encoding="utf-8"?>
<!-- Generator: Adobe Illustrator 18.1.1, SVG Export Plug-In . SVG Version: 6.00 Build 0)  -->
<!DOCTYPE svg PUBLIC "-//W3C//DTD SVG 1.1//EN" "http://www.w3.org/Graphics/SVG/1.1/DTD/svg11.dtd">
<svg version="1.1" id="Layer_1" xmlns="http://www.w3.org/2000/svg" xmlns:xlink="http://www.w3.org/1999/xlink" x="0px" y="0px"
	 viewBox="0 0 110 110" enable-background="new 0 0 110 110" xml:space="preserve">
<g>
	<circle fill="#FABC3D" cx="55" cy="55" r="55"/>
</g>
<g>
	<g>
		<polygon fill="#3E3E3F" points="77,75 75,77 35,77 33,75 33,35 35,33 75,33 77,35 		"/>
	</g>
	<g>
		<path fill="#FFFFFF" d="M41,33h-4v-4c0-1.1,0.9-2,2-2c1.1,0,2,0.9,2,2V33z"/>
	</g>
	<g>
		<path fill="#FFFFFF" d="M49,33h-4v-4c0-1.1,0.9-2,2-2c1.1,0,2,0.9,2,2V33z"/>
	</g>
	<g>
		<path fill="#FFFFFF" d="M57,33h-4v-4c0-1.1,0.9-2,2-2c1.1,0,2,0.9,2,2V33z"/>
	</g>
	<g>
		<path fill="#FFFFFF" d="M65,33h-4v-4c0-1.1,0.9-2,2-2c1.1,0,2,0.9,2,2V33z"/>
	</g>
	<g>
		<path fill="#FFFFFF" d="M73,33h-4v-4c0-1.1,0.9-2,2-2s2,0.9,2,2V33z"/>
	</g>
	<g>
		<path fill="#F0F1F1" d="M41,81c0,1.1-0.9,2-2,2c-1.1,0-2-0.9-2-2v-4h4V81z"/>
	</g>
	<g>
		<path fill="#FFFFFF" d="M33,73h-4c-1.1,0-2-0.9-2-2c0-1.1,0.9-2,2-2h4V73z"/>
	</g>
	<g>
		<path fill="#FFFFFF" d="M33,65h-4c-1.1,0-2-0.9-2-2c0-1.1,0.9-2,2-2h4V65z"/>
	</g>
	<g>
		<path fill="#FFFFFF" d="M33,57h-4c-1.1,0-2-0.9-2-2c0-1.1,0.9-2,2-2h4V57z"/>
	</g>
	<g>
		<path fill="#FFFFFF" d="M33,49h-4c-1.1,0-2-0.9-2-2c0-1.1,0.9-2,2-2h4V49z"/>
	</g>
	<g>
		<path fill="#FFFFFF" d="M33,41h-4c-1.1,0-2-0.9-2-2c0-1.1,0.9-2,2-2h4V41z"/>
	</g>
	<g>
		<path fill="#F0F1F1" d="M83,71c0,1.1-0.9,2-2,2h-4v-4h4C82.1,69,83,69.9,83,71z"/>
	</g>
	<g>
		<path fill="#F0F1F1" d="M83,63c0,1.1-0.9,2-2,2h-4v-4h4C82.1,61,83,61.9,83,63z"/>
	</g>
	<g>
		<path fill="#F0F1F1" d="M83,55c0,1.1-0.9,2-2,2h-4v-4h4C82.1,53,83,53.9,83,55z"/>
	</g>
	<g>
		<path fill="#F0F1F1" d="M83,47c0,1.1-0.9,2-2,2h-4v-4h4C82.1,45,83,45.9,83,47z"/>
	</g>
	<g>
		<path fill="#F0F1F1" d="M83,39c0,1.1-0.9,2-2,2h-4v-4h4C82.1,37,83,37.9,83,39z"/>
	</g>
	<g>
		<path fill="#F0F1F1" d="M49,81c0,1.1-0.9,2-2,2c-1.1,0-2-0.9-2-2v-4h4V81z"/>
	</g>
	<g>
		<path fill="#F0F1F1" d="M57,81c0,1.1-0.9,2-2,2c-1.1,0-2-0.9-2-2v-4h4V81z"/>
	</g>
	<g>
		<path fill="#F0F1F1" d="M65,81c0,1.1-0.9,2-2,2c-1.1,0-2-0.9-2-2v-4h4V81z"/>
	</g>
	<g>
		<path fill="#F0F1F1" d="M73,81c0,1.1-0.9,2-2,2s-2-0.9-2-2v-4h4V81z"/>
	</g>
	<g>
		<rect x="38" y="38" fill="#5B5C5F" width="34" height="34"/>
	</g>
	<g>
		<polygon fill="#818284" points="38,38 72,38 38,72 		"/>
	</g>
	<g>
		<g>
			<path fill="#B6BCBD" d="M41.2,42.8h0.6l0.5,1.1l0.5-1.1h0.6V45h-0.6l0-0.6l0-0.4l0,0l-0.3,0.8H42l-0.3-0.8l0,0l0,0.4V45h-0.6
				V42.8z"/>
		</g>
		<g>
			<path fill="#B6BCBD" d="M44.1,44.3c0,0.4,0.6,0.4,0.6,0v-1.5h0.6v1.5c0,1-1.8,1-1.8,0v-1.5h0.6V44.3z"/>
		</g>
		<g>
			<path fill="#B6BCBD" d="M45.6,42.8h0.6v1.7h0.9V45h-1.5V42.8z"/>
		</g>
		<g>
			<path fill="#B6BCBD" d="M48,43.3V45h-0.6v-1.7h-0.6v-0.5h1.7v0.5H48z"/>
		</g>
		<g>
			<path fill="#B6BCBD" d="M49.4,45h-0.6v-2.2h0.6V45z"/>
		</g>
		<g>
			<path fill="#B6BCBD" d="M51.3,44.5c-0.2,0.4-0.5,0.5-0.8,0.5c-0.4,0-0.9-0.3-0.9-0.8v-0.8c0-0.5,0.4-0.8,0.9-0.8
				c0.3,0,0.6,0.1,0.8,0.5l-0.5,0.2c-0.1-0.3-0.6-0.2-0.6,0.1v0.8c0,0.3,0.5,0.3,0.6,0L51.3,44.5z"/>
		</g>
		<g>
			<path fill="#B6BCBD" d="M51.5,43.5c0-0.5,0.5-0.8,0.9-0.8s0.9,0.3,0.9,0.8v0.8c0,0.5-0.5,0.8-0.9,0.8c-0.5,0-0.9-0.3-0.9-0.8
				V43.5z M52,44.3c0,0.2,0.2,0.2,0.4,0.2c0.2,0,0.4-0.1,0.4-0.2v-0.8c0-0.2-0.2-0.2-0.4-0.2c-0.2,0-0.3,0.1-0.3,0.2V44.3z"/>
		</g>
		<g>
			<path fill="#B6BCBD" d="M54.3,44.3L54.3,44.3L54.2,45h-0.6v-2.2h0.9c0.5,0,0.8,0.2,0.8,0.7c0,0.4-0.2,0.6-0.4,0.7l0.6,0.8h-0.7
				L54.3,44.3z M54.5,43.8c0.4,0,0.4-0.5,0-0.5h-0.3v0.5H54.5z"/>
		</g>
		<g>
			<path fill="#B6BCBD" d="M56.2,43.7h0.9v0.5h-0.9v0.3h1V45h-1.5v-2.2h1.5v0.5h-1V43.7z"/>
		</g>
		<g>
			<path fill="#B6BCBD" d="M59.6,44.5c-0.2,0.4-0.5,0.5-0.8,0.5c-0.4,0-0.9-0.3-0.9-0.8v-0.8c0-0.5,0.4-0.8,0.9-0.8
				c0.3,0,0.6,0.1,0.8,0.5l-0.5,0.2c-0.1-0.3-0.6-0.2-0.6,0.1v0.8c0,0.3,0.5,0.3,0.6,0L59.6,44.5z"/>
		</g>
		<g>
			<path fill="#B6BCBD" d="M59.8,42.8h0.9c0.5,0,0.8,0.4,0.8,0.8c0,0.4-0.3,0.8-0.8,0.8h-0.3V45h-0.6V42.8z M60.7,43.9
				c0.3,0,0.3-0.5,0-0.5h-0.3v0.5H60.7z"/>
		</g>
		<g>
			<path fill="#B6BCBD" d="M62.3,44.3c0,0.4,0.6,0.4,0.6,0v-1.5h0.6v1.5c0,1-1.8,1-1.8,0v-1.5h0.6V44.3z"/>
		</g>
		<g>
			<path fill="#B6BCBD" d="M41.5,48c0.2,0.3,0.6,0.2,0.6-0.1c0-0.2-0.1-0.3-0.3-0.3c-0.1,0-0.3,0-0.4,0.2h-0.3v-1.3h1.3V47h-0.9v0.2
				c0.5-0.2,1,0.1,1,0.7c0,0.4-0.3,0.8-0.8,0.8c-0.2,0-0.5-0.1-0.7-0.4L41.5,48z"/>
		</g>
		<g>
			<path fill="#B6BCBD" d="M43.1,48.1c0.2,0,0.3,0.1,0.3,0.3c0,0.2-0.1,0.3-0.3,0.3s-0.3-0.1-0.3-0.3C42.8,48.3,42.9,48.1,43.1,48.1
				z"/>
		</g>
		<g>
			<path fill="#B6BCBD" d="M44,48c0.2,0.3,0.6,0.2,0.6-0.1c0-0.2-0.1-0.3-0.3-0.3c-0.1,0-0.3,0-0.4,0.2h-0.3v-1.3h1.3V47h-0.9v0.2
				c0.5-0.2,1,0.1,1,0.7c0,0.4-0.3,0.8-0.8,0.8c-0.2,0-0.5-0.1-0.7-0.4L44,48z"/>
		</g>
		<g>
			<path fill="#B6BCBD" d="M47,47.2c-0.1-0.3-0.6-0.2-0.6,0.1V48c0,0.3,0.6,0.3,0.6,0v-0.1h-0.4v-0.5h0.9V48c0,0.5-0.4,0.8-0.9,0.8
				c-0.4,0-0.9-0.3-0.9-0.8v-0.8c0-0.5,0.4-0.7,0.9-0.7c0.3,0,0.6,0.1,0.8,0.5L47,47.2z"/>
		</g>
		<g>
			<path fill="#B6BCBD" d="M48.4,48.7h-0.6v-2.2h0.6v0.8H49v-0.8h0.6v2.2H49v-0.8h-0.6V48.7z"/>
		</g>
		<g>
			<path fill="#B6BCBD" d="M51.5,46.5l0.1,0.2l-0.9,1.5l0.9,0v0.5h-1.6l-0.1-0.2l1-1.5h-0.9v-0.5H51.5z"/>
		</g>
	</g>
</g>
</svg>
