<?xml version="1.0" encoding="utf-8"?>
<!-- Generator: Adobe Illustrator 18.1.1, SVG Export Plug-In . SVG Version: 6.00 Build 0)  -->
<!DOCTYPE svg PUBLIC "-//W3C//DTD SVG 1.1//EN" "http://www.w3.org/Graphics/SVG/1.1/DTD/svg11.dtd">
<svg version="1.1" id="Layer_1" xmlns="http://www.w3.org/2000/svg" xmlns:xlink="http://www.w3.org/1999/xlink" x="0px" y="0px"
	 viewBox="0 0 110 110" enable-background="new 0 0 110 110" xml:space="preserve">
<g>
	<circle fill="#32BEA6" cx="55" cy="55" r="55"/>
</g>
<g>
	<g>
		<path fill="#EDBC7C" d="M83.9,79.9c-0.6-0.6-1.3-0.9-2.1-0.9H28.2c-0.8,0-1.6,0.3-2.1,0.9L23,83v4h64v-4L83.9,79.9z"/>
	</g>
	<g>
		<path fill="#F8E1C2" d="M23,83l3.1-3.1c0.6-0.6,1.3-0.9,2.1-0.9h53.5c0.8,0,1.6,0.3,2.1,0.9L87,83H23z"/>
	</g>
	<g>
		<circle fill="#FACB1B" cx="31" cy="31" r="8"/>
	</g>
	<g>
		<path fill="#0C7367" d="M76,35c-3.6,0-6,2.8-6,5.9V45c0,1.1-0.9,2-2,2h0c-1.1,0-2-0.9-2-2V31c0-4.4-3.6-8-8-8s-8,3.6-8,8v22
			c0,1.1-0.9,2-2,2h0c-1.1,0-2-0.9-2-2v-4.1c0-3.2-2.5-5.9-6-5.9c-3.4,0-6,2.7-6,5.9v10.2c0,12,16,7.7,16,19.9v4h16V71
			c0-12.2,16-7.8,16-19.9V40.9C82,37.7,79.3,35,76,35z"/>
	</g>
	<g>
		<path fill="#099686" d="M50,31v22c0,1.1-0.9,2-2,2h0c-1.1,0-2-0.9-2-2v-4.1c0-3.2-2.5-5.9-6-5.9c-3.4,0-6,2.7-6,5.9v10.2
			c0,12,16,7.7,16,19.9v4h8V23C53.6,23,50,26.6,50,31z"/>
	</g>
</g>
</svg>
