<?xml version="1.0" encoding="utf-8"?>
<!-- Generator: Adobe Illustrator 16.0.0, SVG Export Plug-In . SVG Version: 6.00 Build 0)  -->
<!DOCTYPE svg PUBLIC "-//W3C//DTD SVG 1.1//EN" "http://www.w3.org/Graphics/SVG/1.1/DTD/svg11.dtd">
<svg version="1.1" xmlns="http://www.w3.org/2000/svg" xmlns:xlink="http://www.w3.org/1999/xlink" x="0px" y="0px" width="110px"
	 height="110px" viewBox="0 0 110 110" enable-background="new 0 0 110 110" xml:space="preserve">
<g id="R-Multicolor">
	<g>
		<circle fill="#F44336" cx="55" cy="55" r="55"/>
	</g>
	<g>
		<g>
			<g>
				<polygon fill="#212121" points="23,87 43,23 67,23 87,87 				"/>
			</g>
		</g>
		<g>
			<g>
				<polygon fill="#FFFFFF" points="29,87 47,23 48,23 34,87 				"/>
			</g>
		</g>
		<g>
			<g>
				<polygon fill="#FFFFFF" points="81,87 63,23 62,23 76,87 				"/>
			</g>
		</g>
		<g>
			<g>
				<g>
					<polygon fill="#FFFFFF" points="51.2,83 58.8,83 58.25,72 51.75,72 					"/>
				</g>
			</g>
			<g>
				<g>
					<polygon fill="#FFFFFF" points="52.05,66 57.95,66 57.45,56 52.55,56 					"/>
				</g>
			</g>
			<g>
				<g>
					<polygon fill="#FFFFFF" points="56,27 54,27 53.65,34 56.35,34 					"/>
				</g>
			</g>
			<g>
				<g>
					<polygon fill="#FFFFFF" points="53.35,40 52.85,50 57.15,50 56.65,40 					"/>
				</g>
			</g>
		</g>
	</g>
</g>
<g id="Multicolor" display="none">
	<g display="inline">
		<g>
			<g>
				<polygon fill="#212121" points="23,87 43,23 67,23 87,87 				"/>
			</g>
		</g>
		<g>
			<g>
				<polygon fill="#FFFFFF" points="29,87 47,23 48,23 34,87 				"/>
			</g>
		</g>
		<g>
			<g>
				<polygon fill="#FFFFFF" points="81,87 63,23 62,23 76,87 				"/>
			</g>
		</g>
		<g>
			<g>
				<g>
					<polygon fill="#FFFFFF" points="51.2,83 58.8,83 58.25,72 51.75,72 					"/>
				</g>
			</g>
			<g>
				<g>
					<polygon fill="#FFFFFF" points="52.05,66 57.95,66 57.45,56 52.55,56 					"/>
				</g>
			</g>
			<g>
				<g>
					<polygon fill="#FFFFFF" points="56,27 54,27 53.65,34 56.35,34 					"/>
				</g>
			</g>
			<g>
				<g>
					<polygon fill="#FFFFFF" points="53.35,40 52.85,50 57.15,50 56.65,40 					"/>
				</g>
			</g>
		</g>
	</g>
</g>
<g id="Blue" display="none">
	<g display="inline">
		<g>
			<polygon fill="#1A3B7E" points="23,87 43,23 67,23 87,87 			"/>
		</g>
		<g>
			<polygon fill="#FFFFFF" points="29,87 47,23 48,23 34,87 			"/>
		</g>
		<g>
			<polygon fill="#FFFFFF" points="81,87 63,23 62,23 76,87 			"/>
		</g>
		<g>
			<g>
				<polygon fill="#FFFFFF" points="51.2,83 58.8,83 58.25,72 51.75,72 				"/>
			</g>
			<g>
				<polygon fill="#FFFFFF" points="52.05,66 57.95,66 57.45,56 52.55,56 				"/>
			</g>
			<g>
				<polygon fill="#FFFFFF" points="56,27 54,27 53.65,34 56.35,34 				"/>
			</g>
			<g>
				<polygon fill="#FFFFFF" points="53.35,40 52.85,50 57.15,50 56.65,40 				"/>
			</g>
		</g>
	</g>
</g>
<g id="R-Blue" display="none">
	<circle display="inline" fill="#00B0FF" cx="55" cy="55" r="55"/>
	<g display="inline">
		<g>
			<polygon fill="#1A3B7E" points="23,87 43,23 67,23 87,87 			"/>
		</g>
		<g>
			<polygon fill="#FFFFFF" points="29,87 47,23 48,23 34,87 			"/>
		</g>
		<g>
			<polygon fill="#FFFFFF" points="81,87 63,23 62,23 76,87 			"/>
		</g>
		<g>
			<g>
				<polygon fill="#FFFFFF" points="51.2,83 58.8,83 58.25,72 51.75,72 				"/>
			</g>
			<g>
				<polygon fill="#FFFFFF" points="52.05,66 57.95,66 57.45,56 52.55,56 				"/>
			</g>
			<g>
				<polygon fill="#FFFFFF" points="56,27 54,27 53.65,34 56.35,34 				"/>
			</g>
			<g>
				<polygon fill="#FFFFFF" points="53.35,40 52.85,50 57.15,50 56.65,40 				"/>
			</g>
		</g>
	</g>
</g>
<g id="Green" display="none">
	<g display="inline">
		<g>
			<polygon fill="#003B15" points="23,87 43,23 67,23 87,87 			"/>
		</g>
		<g>
			<polygon fill="#FFFFFF" points="29,87 47,23 48,23 34,87 			"/>
		</g>
		<g>
			<polygon fill="#FFFFFF" points="81,87 63,23 62,23 76,87 			"/>
		</g>
		<g>
			<g>
				<polygon fill="#FFFFFF" points="51.2,83 58.8,83 58.25,72 51.75,72 				"/>
			</g>
			<g>
				<polygon fill="#FFFFFF" points="52.05,66 57.95,66 57.45,56 52.55,56 				"/>
			</g>
			<g>
				<polygon fill="#FFFFFF" points="56,27 54,27 53.65,34 56.35,34 				"/>
			</g>
			<g>
				<polygon fill="#FFFFFF" points="53.35,40 52.85,50 57.15,50 56.65,40 				"/>
			</g>
		</g>
	</g>
</g>
<g id="R-Green" display="none">
	<circle display="inline" fill="#64DD17" cx="55" cy="55" r="55"/>
	<g display="inline">
		<g>
			<polygon fill="#003B15" points="23,87 43,23 67,23 87,87 			"/>
		</g>
		<g>
			<polygon fill="#FFFFFF" points="29,87 47,23 48,23 34,87 			"/>
		</g>
		<g>
			<polygon fill="#FFFFFF" points="81,87 63,23 62,23 76,87 			"/>
		</g>
		<g>
			<g>
				<polygon fill="#FFFFFF" points="51.2,83 58.8,83 58.25,72 51.75,72 				"/>
			</g>
			<g>
				<polygon fill="#FFFFFF" points="52.05,66 57.95,66 57.45,56 52.55,56 				"/>
			</g>
			<g>
				<polygon fill="#FFFFFF" points="56,27 54,27 53.65,34 56.35,34 				"/>
			</g>
			<g>
				<polygon fill="#FFFFFF" points="53.35,40 52.85,50 57.15,50 56.65,40 				"/>
			</g>
		</g>
	</g>
</g>
<g id="Red" display="none">
	<g display="inline">
		<g>
			<polygon fill="#4C2720" points="23,87 43,23 67,23 87,87 			"/>
		</g>
		<g>
			<polygon fill="#FFFFFF" points="29,87 47,23 48,23 34,87 			"/>
		</g>
		<g>
			<polygon fill="#FFFFFF" points="81,87 63,23 62,23 76,87 			"/>
		</g>
		<g>
			<g>
				<polygon fill="#FFFFFF" points="51.2,83 58.8,83 58.25,72 51.75,72 				"/>
			</g>
			<g>
				<polygon fill="#FFFFFF" points="52.05,66 57.95,66 57.45,56 52.55,56 				"/>
			</g>
			<g>
				<polygon fill="#FFFFFF" points="56,27 54,27 53.65,34 56.35,34 				"/>
			</g>
			<g>
				<polygon fill="#FFFFFF" points="53.35,40 52.85,50 57.15,50 56.65,40 				"/>
			</g>
		</g>
	</g>
</g>
<g id="R-Red" display="none">
	<circle display="inline" fill="#FF5722" cx="55" cy="55" r="55"/>
	<g display="inline">
		<g>
			<polygon fill="#2C0900" points="23,87 43,23 67,23 87,87 			"/>
		</g>
		<g>
			<polygon fill="#FFFFFF" points="29,87 47,23 48,23 34,87 			"/>
		</g>
		<g>
			<polygon fill="#FFFFFF" points="81,87 63,23 62,23 76,87 			"/>
		</g>
		<g>
			<g>
				<polygon fill="#FFFFFF" points="51.2,83 58.8,83 58.25,72 51.75,72 				"/>
			</g>
			<g>
				<polygon fill="#FFFFFF" points="52.05,66 57.95,66 57.45,56 52.55,56 				"/>
			</g>
			<g>
				<polygon fill="#FFFFFF" points="56,27 54,27 53.65,34 56.35,34 				"/>
			</g>
			<g>
				<polygon fill="#FFFFFF" points="53.35,40 52.85,50 57.15,50 56.65,40 				"/>
			</g>
		</g>
	</g>
</g>
<g id="Yellow" display="none">
	<g display="inline">
		<g>
			<polygon fill="#4C2720" points="23,87 43,23 67,23 87,87 			"/>
		</g>
		<g>
			<polygon fill="#FFFFFF" points="29,87 47,23 48,23 34,87 			"/>
		</g>
		<g>
			<polygon fill="#FFFFFF" points="81,87 63,23 62,23 76,87 			"/>
		</g>
		<g>
			<g>
				<polygon fill="#FFFFFF" points="51.2,83 58.8,83 58.25,72 51.75,72 				"/>
			</g>
			<g>
				<polygon fill="#FFFFFF" points="52.05,66 57.95,66 57.45,56 52.55,56 				"/>
			</g>
			<g>
				<polygon fill="#FFFFFF" points="56,27 54,27 53.65,34 56.35,34 				"/>
			</g>
			<g>
				<polygon fill="#FFFFFF" points="53.35,40 52.85,50 57.15,50 56.65,40 				"/>
			</g>
		</g>
	</g>
</g>
<g id="R-Yellow" display="none">
	<circle display="inline" fill="#FFD600" cx="55" cy="55" r="55"/>
	<g display="inline">
		<g>
			<polygon fill="#4C2720" points="23,87 43,23 67,23 87,87 			"/>
		</g>
		<g>
			<polygon fill="#FFFFFF" points="29,87 47,23 48,23 34,87 			"/>
		</g>
		<g>
			<polygon fill="#FFFFFF" points="81,87 63,23 62,23 76,87 			"/>
		</g>
		<g>
			<g>
				<polygon fill="#FFFFFF" points="51.2,83 58.8,83 58.25,72 51.75,72 				"/>
			</g>
			<g>
				<polygon fill="#FFFFFF" points="52.05,66 57.95,66 57.45,56 52.55,56 				"/>
			</g>
			<g>
				<polygon fill="#FFFFFF" points="56,27 54,27 53.65,34 56.35,34 				"/>
			</g>
			<g>
				<polygon fill="#FFFFFF" points="53.35,40 52.85,50 57.15,50 56.65,40 				"/>
			</g>
		</g>
	</g>
</g>
</svg>
