<?xml version="1.0" encoding="utf-8"?>
<!-- Generator: Adobe Illustrator 18.1.1, SVG Export Plug-In . SVG Version: 6.00 Build 0)  -->
<!DOCTYPE svg PUBLIC "-//W3C//DTD SVG 1.1//EN" "http://www.w3.org/Graphics/SVG/1.1/DTD/svg11.dtd">
<svg version="1.1" id="Layer_1" xmlns="http://www.w3.org/2000/svg" xmlns:xlink="http://www.w3.org/1999/xlink" x="0px" y="0px"
	 viewBox="0 0 110 110" enable-background="new 0 0 110 110" xml:space="preserve">
<g>
	<circle fill="#32BEA6" cx="55" cy="55" r="55"/>
</g>
<g>
	<g>
		<path fill="#FFFFFF" d="M79,27c0-2.2-1.8-4-4-4H35c-2.2,0-4,1.8-4,4v56c0,2.2,1.8,4,4,4h40c2.2,0,4-1.8,4-4V27z"/>
	</g>
	<g>
		<rect x="35" y="29" fill="#3E3E3F" width="40" height="48"/>
	</g>
	<g>
		<circle fill="#CFD3D4" cx="55" cy="82" r="2"/>
	</g>
	<g>
		<g>
			<circle fill="#B6BCBD" cx="59.7" cy="58.3" r="1.3"/>
		</g>
		<g>
			<rect x="64" y="58" fill="#B6BCBD" width="5" height="1"/>
		</g>
	</g>
	<g>
		<g>
			<circle fill="#B6BCBD" cx="59.7" cy="64.7" r="1.3"/>
		</g>
		<g>
			<rect x="64" y="64.3" fill="#B6BCBD" width="5" height="1"/>
		</g>
	</g>
	<g>
		<circle fill="#3E3E3F" cx="55" cy="26" r="1"/>
	</g>
	<g>
		<polygon fill="#5B5C5F" points="35,67 73,29 35,29 		"/>
	</g>
	<g>
		<rect x="42" y="44" fill="#FBE158" width="6" height="7"/>
	</g>
	<g>
		<rect x="52" y="40" fill="#12B2A0" width="6" height="11"/>
	</g>
	<g>
		<rect x="63" y="35" fill="#059BBF" width="6" height="16"/>
	</g>
	<g>
		<g>
			<circle fill="#FACB1B" cx="47" cy="63" r="8"/>
		</g>
		<g>
			<path fill="#47C4B7" d="M55,63c0,4.4-3.6,8-8,8c-3.4,0-6.2-2.1-7.4-5l14.8-6.2C54.8,60.8,55,61.9,55,63z"/>
		</g>
		<g>
			<path fill="#21B2D1" d="M55,63c0,2.8-1.5,5.3-3.7,6.7L47,62.9l7.4-3.1C54.8,60.8,55,61.9,55,63z"/>
		</g>
		<g>
			<path fill="#FA5655" d="M54.4,59.8L47,62.9V55C50.3,55,53.1,57,54.4,59.8z"/>
		</g>
	</g>
</g>
</svg>
