<?xml version="1.0" encoding="utf-8"?>
<!-- Generator: Adobe Illustrator 18.1.1, SVG Export Plug-In . SVG Version: 6.00 Build 0)  -->
<!DOCTYPE svg PUBLIC "-//W3C//DTD SVG 1.1//EN" "http://www.w3.org/Graphics/SVG/1.1/DTD/svg11.dtd">
<svg version="1.1" id="Layer_1" xmlns="http://www.w3.org/2000/svg" xmlns:xlink="http://www.w3.org/1999/xlink" x="0px" y="0px"
	 viewBox="0 0 110 110" enable-background="new 0 0 110 110" xml:space="preserve">
<g>
	<circle fill="#E04F5F" cx="55" cy="55" r="55"/>
</g>
<g>
	<g>
		<g>
			<g>
				<path fill="#FBE158" d="M83,39L27,59v26c0,0.7,0.3,1.3,0.8,1.6c0.5,0.4,1.2,0.5,1.8,0.2l53.3-19V39z"/>
			</g>
		</g>
	</g>
	<g>
		<g>
			<g>
				<path fill="#FCF6C2" d="M83,39L27,59l28-36C67.2,23,78.3,30.4,83,39z"/>
			</g>
		</g>
	</g>
	<g>
		<g>
			<g>
				<circle fill="#F3B607" cx="52" cy="70" r="1"/>
			</g>
		</g>
	</g>
	<g>
		<g>
			<g>
				<circle fill="#F3B607" cx="78" cy="46" r="1"/>
			</g>
		</g>
	</g>
	<g>
		<g>
			<g>
				<circle fill="#F3B607" cx="71" cy="55" r="4"/>
			</g>
		</g>
	</g>
	<g>
		<g>
			<g>
				<circle fill="#F3B607" cx="40" cy="58" r="1"/>
			</g>
		</g>
	</g>
	<g>
		<g>
			<g>
				<path fill="#F3B607" d="M44.6,78.8C44.6,78.8,44.5,78.9,44.6,78.8c-0.8,1-0.7,2-0.2,2.7l3.6-1.3C47.9,78.7,46.2,77.7,44.6,78.8z
					"/>
			</g>
		</g>
	</g>
	<g>
		<g>
			<g>
				<circle fill="#F3B607" cx="64" cy="65" r="2"/>
			</g>
		</g>
	</g>
	<g>
		<g>
			<g>
				<circle fill="#F3B607" cx="37" cy="69" r="2"/>
			</g>
		</g>
	</g>
	<g>
		<g>
			<g>
				<ellipse fill="#FACB1B" cx="58" cy="30.5" rx="3" ry="1.5"/>
			</g>
		</g>
	</g>
	<g>
		<g>
			<g>
				<ellipse fill="#FACB1B" cx="51.5" cy="41.2" rx="2.5" ry="1.2"/>
			</g>
		</g>
	</g>
	<g>
		<g>
			<g>
				<ellipse fill="#FACB1B" cx="66.5" cy="37" rx="4.5" ry="2"/>
			</g>
		</g>
	</g>
	<g>
		<g>
			<g>
				<ellipse fill="#FACB1B" cx="42" cy="48" rx="2" ry="1"/>
			</g>
		</g>
	</g>
</g>
</svg>
