<?xml version="1.0" encoding="utf-8"?>
<!-- Generator: Adobe Illustrator 18.1.1, SVG Export Plug-In . SVG Version: 6.00 Build 0)  -->
<!DOCTYPE svg PUBLIC "-//W3C//DTD SVG 1.1//EN" "http://www.w3.org/Graphics/SVG/1.1/DTD/svg11.dtd">
<svg version="1.1" id="Layer_1" xmlns="http://www.w3.org/2000/svg" xmlns:xlink="http://www.w3.org/1999/xlink" x="0px" y="0px"
	 viewBox="0 0 110 110" enable-background="new 0 0 110 110" xml:space="preserve">
<g>
	<circle fill="#25B7D3" cx="55" cy="55" r="55"/>
</g>
<g>
	<g>
		<path fill="#3E3E3F" d="M64,27.7C61.8,26,58.8,25,55,25s-6.8,1-9,2.7L40,23l1,17c0,8.3,6.3,15,14,15s14-6.7,14-15l1-17L64,27.7z"
			/>
	</g>
	<g>
		<path fill="#5B5C5F" d="M46,27.7L40,23l1,17c0,8.3,6.3,15,14,15V25C51.2,25,48.2,26,46,27.7z"/>
	</g>
	<g>
		<path fill="#3E3E3F" d="M55,49c-4,0-28,2-28,34c0,0,10,4,28,4s28-4,28-4C83,51,59,49,55,49z"/>
	</g>
	<g>
		<path fill="#CFD3D4" d="M55,87c6.8,0,12.5-0.6,17-1.3C71.1,59.7,55,55,55,55s-16.1,4.7-17,30.7C42.5,86.4,48.2,87,55,87z"/>
	</g>
	<g>
		<path fill="#3E3E3F" d="M63,68l-4,3v-4l-4,3l-4-3v4l-4-3c-3,2.6-5.1,5.7-5,10c6-0.7,10,0,13,5c3-5,7-5.7,13-5
			C68.1,73.7,66,70.6,63,68z"/>
	</g>
	<g>
		<path fill="#FBC8C8" d="M55,55c3.7,0,7-1.5,9.5-4c4.6-13.5-5.9-6-9.5-6s-14.1-7.6-9.5,6C48,53.5,51.3,55,55,55z"/>
	</g>
	<g>
		<path fill="#CFD3D4" d="M62.5,39.7c-2.5,1.3-5.7,0.2-5.7,0.2s0.8-3.3,3.3-4.7c2.5-1.3,5.7-0.2,5.7-0.2S65,38.4,62.5,39.7z"/>
	</g>
	<g>
		<path fill="#CFD3D4" d="M47.5,39.7c2.5,1.3,5.7,0.2,5.7,0.2s-0.8-3.3-3.3-4.7c-2.5-1.3-5.7-0.2-5.7-0.2S45,38.4,47.5,39.7z"/>
	</g>
	<g>
		<path fill="#FBD7D7" d="M45.5,51c2.5,2.5,5.9,4,9.5,4V45C51.3,45,40.9,37.4,45.5,51z"/>
	</g>
	<g>
		<path fill="#F79392" d="M50,48h10c0,0,0,3-5,3S50,48,50,48z"/>
	</g>
	<g>
		<path fill="#5B5C5F" d="M51,67v4l-4-3c-3,2.6-5.1,5.7-5,10c6-0.7,10,0,13,5V70L51,67z"/>
	</g>
</g>
</svg>
