<?xml version="1.0" encoding="utf-8"?>
<!-- Generator: Adobe Illustrator 18.1.1, SVG Export Plug-In . SVG Version: 6.00 Build 0)  -->
<!DOCTYPE svg PUBLIC "-//W3C//DTD SVG 1.1//EN" "http://www.w3.org/Graphics/SVG/1.1/DTD/svg11.dtd">
<svg version="1.1" id="Layer_1" xmlns="http://www.w3.org/2000/svg" xmlns:xlink="http://www.w3.org/1999/xlink" x="0px" y="0px"
	 viewBox="0 0 110 110" enable-background="new 0 0 110 110" xml:space="preserve">
<g>
	<circle fill="#FABC3D" cx="55" cy="55" r="55"/>
</g>
<g>
	<g>
		<path fill="#F0F1F1" d="M79,55c0-2.2-1.8-4-4-4H35c-2.2,0-4,1.8-4,4v26h48V55z"/>
	</g>
	<g>
		<path fill="#FFFFFF" d="M55,42.2C55,42.2,55,42.2,55,42.2C55,42.2,55,42.2,55,42.2c-1.6,0-2.9,1.3-2.9,2.8c0,1.6,1.3,2.8,2.8,2.8
			c0,0,0,0,0,0c0,0,0,0,0,0c1.6,0,2.8-1.3,2.8-2.8C57.9,43.5,56.6,42.2,55,42.2z"/>
	</g>
	<g>
		<path fill="#FFFFFF" d="M55,34.1C55,34.1,55,34.1,55,34.1C55,34.1,55,34.1,55,34.1c-4.7,0-8.9,2.5-11.1,6.3l2.5,1.4
			c1.5-2.7,4.8-4.9,8.6-4.9c0,0,0,0,0,0c0,0,0,0,0,0c3.7,0,7.1,2.2,8.6,4.9l2.5-1.4C63.8,36.7,59.6,34.1,55,34.1z"/>
	</g>
	<g>
		<path fill="#FFFFFF" d="M55,24.9C55,24.9,55,24.9,55,24.9C55,24.9,55,24.9,55,24.9c-7.3,0-14.3,3.1-19.3,9.5l2.3,1.7
			c3.9-5.2,10.1-8.4,17-8.4c0,0,0,0,0,0c0,0,0,0,0,0c6.9,0,13.1,3.3,17,8.4l2.3-1.7C69.3,28.1,62.3,24.9,55,24.9z"/>
	</g>
	<g>
		<path fill="#FFFFFF" d="M23,81v2c2.6,2.6,6,4,9.7,4h44.7c3.6,0,7.1-1.4,9.7-4v-2H23z"/>
	</g>
	<g>
		<rect x="35" y="55" fill="#3E3E3F" width="40" height="26"/>
	</g>
	<g>
		<polygon fill="#5B5C5F" points="35,80.9 60.9,55 35,55 		"/>
	</g>
	<g>
		<rect x="50" y="81" fill="#E2E4E5" width="10" height="2"/>
	</g>
</g>
</svg>
